<?xml version="1.0" standalone="no"?>
<!DOCTYPE svg PUBLIC "-//W3C//DTD SVG 1.1//EN" "http://www.w3.org/Graphics/SVG/1.1/DTD/svg11.dtd" >
<svg>
<metadata>
Created by FontForge 20090622 at Tue Jul 14 15:29:16 2015
 By deploy user
[c] Copyright 1991, 1992, 1993, The Font Bureau, Inc. Designed by Tobias Frere-Jones. All Rights Reserved.
</metadata>
<defs>
<font id="GarageGothic-Regular" horiz-adv-x="378" >
  <font-face 
    font-family="GarageGothic Regular"
    font-weight="400"
    font-stretch="normal"
    units-per-em="1000"
    panose-1="2 0 6 8 3 0 0 2 0 4"
    ascent="800"
    descent="-200"
    x-height="479"
    cap-height="699"
    bbox="-40.2667 -200 766.4 859.367"
    underline-thickness="62"
    underline-position="-71"
    unicode-range="U+0020-U+FB02"
  />
<missing-glyph horiz-adv-x="500" 
 />
    <glyph glyph-name="fi" unicode="fi" horiz-adv-x="304" 
d="M273 575q0 -9 -31 -9q-35 0 -35 6q0 31 -15 46t-38 15q-22 0 -37.5 -15t-15.5 -46v-88q0 -11 8.5 -13t42.5 -2q13 0 13 -31q0 -19 -2 -24t-9 -5q-36 0 -44.5 -2.5t-8.5 -12.5v-376q0 -13 -3.5 -15.5t-24.5 -2.5t-25.5 2t-4.5 14v378q0 10 -5 13t-23 3q-2 0 -3.5 0.5
t-2.5 1.5l-2 2t-1.5 3t-0.5 3.5v4.5v5v5.5v5.5q0 28 9 28q17 0 22 2.5t5 12.5v92q0 57 31 91t82 34q52 0 85.5 -30.5t33.5 -95.5zM269 18q0 -13 -4.5 -15.5t-28.5 -2.5q-22 0 -26 2t-4 14v449q0 11 6 13.5t24 2.5q22 0 27.5 -2t5.5 -15v-446z" />
    <glyph glyph-name="fl" unicode="fl" horiz-adv-x="310" 
d="M273 18q0 -13 -5 -15.5t-30 -2.5q-22 0 -26.5 2t-4.5 14v556q0 61 -50 61q-48 0 -50 -61v-88q0 -11 8.5 -13t42.5 -2q13 0 13 -31q0 -19 -2 -24t-9 -5q-37 0 -45.5 -2.5t-8.5 -12.5v-376q0 -13 -5.5 -15.5t-27.5 -2.5q-21 0 -25.5 2t-4.5 14v378q0 10 -5 13t-23 3
q-2 0 -3.5 0.5t-2.5 1.5l-2 2t-1.5 3t-0.5 3.5v4.5v5v5.5v5.5q0 28 9 28q17 0 22 2.5t5 12.5v92q0 57 32 91t84 34t84 -30.5t32 -95.5v-557z" />
    <glyph glyph-name="f_f_l" unicode="ffl" horiz-adv-x="473" 
d="M436 18q0 -13 -5 -15.5t-30 -2.5q-22 0 -26.5 2t-4.5 14v556q0 61 -50 61q-48 0 -50 -61v-88q0 -11 8.5 -13t42.5 -2q13 0 13 -31q0 -19 -2 -24t-9 -5q-37 0 -45.5 -2.5t-8.5 -12.5v-376q0 -13 -5.5 -15.5t-27.5 -2.5q-20 0 -25 2t-5 14v378q0 10 -5 12.5t-23 2.5h-23
q-35 0 -42 -2t-7 -13v-376q0 -13 -5.5 -15.5t-27.5 -2.5q-21 0 -25.5 2t-4.5 14v378q0 10 -5 13t-23 3q-2 0 -3.5 0.5t-2.5 1.5l-2 2t-1.5 3t-0.5 3.5v4.5v5v5.5v5.5q0 28 9 28q18 0 23.5 2.5t5.5 12.5v94q0 51 32 86.5t86 35.5q5 0 5 -21v-10q0 -31 -5 -31q-19 0 -37 -17.5
t-18 -42.5v-94q0 -11 7 -13t40 -2h24q18 0 23 2.5t5 12.5v92q0 57 31.5 91t83.5 34t84 -30.5t32 -95.5v-557z" />
    <glyph glyph-name="f_f_i" unicode="ffi" horiz-adv-x="467" 
d="M436 575q0 -9 -31 -9q-35 0 -35 6q0 31 -15 46t-38 15q-22 0 -37.5 -15t-15.5 -46v-88q0 -11 8.5 -13t42.5 -2q13 0 13 -31q0 -19 -2 -24t-9 -5q-36 0 -44.5 -2.5t-8.5 -12.5v-376q0 -13 -4 -15.5t-24 -2.5t-25 2t-5 14v377q0 10 -5 13t-23 3h-23q-35 0 -42 -2t-7 -13
v-376q0 -13 -5.5 -15.5t-27.5 -2.5q-21 0 -25.5 2t-4.5 14v378q0 10 -5 13t-23 3q-2 0 -3.5 0.5t-2.5 1.5l-2 2t-1.5 3t-0.5 3.5v4.5v5v5.5v5.5q0 28 9 28q18 0 23.5 2.5t5.5 12.5v94q0 51 32 86.5t86 35.5q5 0 5 -21v-10q0 -31 -5 -31q-19 0 -37 -17.5t-18 -42.5v-94
q0 -11 7 -13t40 -2h24q17 0 22 2.5t5 12.5v92q0 57 31 91t82 34q52 0 85.5 -30.5t33.5 -95.5zM432 18q0 -13 -4.5 -15.5t-28.5 -2.5q-21 0 -25.5 2t-4.5 14v449q0 11 6 13.5t24 2.5q22 0 27.5 -2t5.5 -15v-446z" />
    <glyph glyph-name="f_f" unicode="ff" horiz-adv-x="333" 
d="M329 438q0 -19 -2 -24t-9 -5q-37 0 -45.5 -2.5t-8.5 -12.5v-376q0 -13 -4 -15.5t-24 -2.5t-25 2t-5 14v378q0 10 -5 12.5t-23 2.5h-23q-37 0 -45.5 -2.5t-8.5 -12.5v-376q0 -13 -3.5 -15.5t-24.5 -2.5t-25.5 2t-4.5 14v378q0 10 -5 13t-23 3q-2 0 -3.5 0.5t-2.5 1.5l-2 2
t-1.5 3t-0.5 3.5v4.5v5v5.5v5.5q0 28 9 28q18 0 23.5 2.5t5.5 12.5v94q0 50 32 86t80 36q5 0 5 -21v-10q0 -31 -5 -31q-19 0 -36.5 -17.5t-17.5 -42.5v-94q0 -11 8.5 -13t43.5 -2h24q18 0 23.5 2.5t5.5 12.5v94q0 50 32 86t80 36q5 0 5 -21v-10q0 -31 -5 -31
q-19 0 -36.5 -17.5t-17.5 -42.5v-94q0 -11 9 -13t43 -2q13 0 13 -31z" />
    <glyph glyph-name=".notdef" horiz-adv-x="500" 
 />
    <glyph glyph-name=".null" horiz-adv-x="0" 
 />
    <glyph glyph-name="nonmarkingreturn" horiz-adv-x="333" 
 />
    <glyph glyph-name="space" unicode=" " horiz-adv-x="125" 
 />
    <glyph glyph-name="space" unicode="&#xa0;" horiz-adv-x="125" 
 />
    <glyph glyph-name="exclam" unicode="!" horiz-adv-x="144" 
d="M104 187q0 -11 -6 -14.5t-28 -3.5q-20 0 -25 3t-5 14v497q0 11 5.5 14t24.5 3q23 0 28.5 -3t5.5 -16v-494zM112 41q-1 -17 -12 -28t-28 -13q-23 -1 -31.5 9t-10.5 30t11 36.5t31 13.5q21 -2 30.5 -8.5t10 -16.5t-0.5 -23z" />
    <glyph glyph-name="quotedbl" unicode="&#x22;" horiz-adv-x="222" 
d="M192 683q0 -36 -0.5 -67t-0.5 -57q0 -7 -4.5 -16t-14.5 -7q-8 2 -28 0q-9 -1 -12 6.5t-3 24.5v86q-2 46 16 46q20 0 31 3q7 2 11.5 -1.5t4.5 -17.5zM94 683q0 -36 -0.5 -67t-0.5 -57q0 -7 -4.5 -16t-14.5 -7q-8 2 -28 0q-9 -1 -12 6.5t-3 24.5v86q-2 43 16 46q17 3 31 3
q6 0 8 -0.5t5 -5t3 -13.5z" />
    <glyph glyph-name="numbersign" unicode="#" horiz-adv-x="462" 
d="M424 551q-13 -2 -30.5 -2t-26 0.5t-14.5 -1.5q-4 -3 -15.5 -68t-9.5 -70q1 -3 11 -3t30.5 1t32.5 1q4 0 5.5 -13.5t0 -27t-3.5 -13.5q-11 -1 -33 -1t-36 -1t-16 -3q-1 -1 -5.5 -25t-11 -54t-12.5 -44q-4 -8 -29 -7t-26 10t9.5 61.5t10.5 54.5q-1 3 -45.5 3.5t-48.5 -3.5
q-1 -1 -4 -21.5t-8 -47t-11 -40.5q-3 -8 -30.5 -8.5t-27.5 8.5q-1 12 4 38.5l9 47.5t3 23q-2 3 -8.5 4t-21.5 1.5t-28 2.5q-5 1 -4.5 27.5t5.5 27.5q12 1 29 1.5t27 1t13 1.5q4 2 16.5 66t10.5 67q-2 2 -14.5 2.5t-31.5 1t-32 3.5q-9 2 -8 26t10 27q16 5 48.5 3t33.5 1
q9 7 21 93q2 8 30 7t28 -10q-1 -10 -4.5 -34.5t-5.5 -36.5t0 -19q4 -2 45.5 -2t44.5 2q5 4 18 93q0 5 14.5 6.5t28 -1t13.5 -8.5q-1 -11 -4.5 -35t-5.5 -39.5t-1 -16.5q6 -5 58 -3q7 0 8.5 -26.5t-5.5 -28.5zM289 546q-2 3 -43.5 3.5t-45.5 -3.5q-2 -2 -14.5 -68t-10.5 -68
t42.5 -2.5t43.5 2.5t16.5 67.5t11.5 68.5z" />
    <glyph glyph-name="dollar" unicode="$" horiz-adv-x="282" 
d="M257 116q0 -40 -22 -69.5t-58 -41.5q-5 -1 -5 -13v-46q0 -13 -34 -13q-30 0 -30 13v44q0 13 -4 14q-36 8 -57.5 37t-21.5 75v50q0 12 6.5 15.5t27.5 3.5q22 0 27.5 -2.5t5.5 -14.5v-49q0 -21 12 -36.5t37 -15.5q51 0 51 55v61q0 25 -13 55.5t-26.5 52t-39.5 57.5
l-42 61.5t-28.5 55.5t-14.5 61v55q0 37 18 69t55 44q7 2 7 15v51q0 8 5.5 9.5t24.5 1.5q32 0 32 -8v-55q0 -11 6 -14q38 -15 57 -46t19 -66v-43q0 -11 -34 -11q-33 0 -33 12v44q0 24 -14 39t-31 15q-20 0 -33.5 -16.5t-13.5 -36.5v-59q0 -18 12.5 -43.5t23 -41l37.5 -53.5
q28 -38 44.5 -65t31.5 -66.5t15 -74.5v-66z" />
    <glyph glyph-name="percent" unicode="%" horiz-adv-x="302" 
d="M270 680l-59.5 -209.5l-68.5 -240.5l-65 -213q-5 -17 -31 -17q-12 0 -14.5 2t0.5 16l190 663q4 18 21 18q15 0 22.5 -4.5t4.5 -14.5zM146 522q0 -25 -17 -44t-41 -19t-41 19t-17 44v117q0 24 17 42.5t41 18.5t41 -18.5t17 -42.5v-117zM272 63q0 -25 -17 -44t-41 -19
t-41 19t-17 44v117q0 24 17 42.5t41 18.5t41 -18.5t17 -42.5v-117zM108 523v116q0 9 -6 16.5t-14 7.5q-9 0 -15 -7.5t-6 -16.5v-116q0 -9 6 -16.5t15 -7.5t14.5 7.5t5.5 16.5zM234 64v116q0 9 -6 16.5t-14 7.5q-9 0 -15 -7.5t-6 -16.5v-116q0 -9 6 -16.5t15 -7.5t14.5 7.5
t5.5 16.5z" />
    <glyph glyph-name="ampersand" unicode="&#x26;" horiz-adv-x="324" 
d="M310 5q1 -2 0 -3.5t-3.5 -2t-5 -0.5t-6 0.5t-4.5 0.5q-10 -1 -31 1h-4t-4.5 -0.5t-4.5 -0.5t-3.5 1.5t-2.5 4.5q-2 6 -4 13.5t-3.5 11t-3 7.5t-3 5.5t-3.5 1.5t-4 -2q-3 -4 -9 -9q-40 -34 -75 -34q-48 0 -77 32t-29 84v122q0 50 56 115q7 9 7 16q0 10 -4 21
q-54 141 -54 192q0 44 29.5 81t82.5 37q57 0 84.5 -36.5t27.5 -82.5v-61q0 -27 -12.5 -55.5t-26 -47t-38.5 -48.5q-9 -11 -9 -15q0 -6 3 -16q24 -66 39 -98q4 -9 5 -10.5t4 -0.5q5 1 5 40q0 14 -0.5 24t-0.5 14.5v6.5q0 3 2 3.5t7.5 0t7.5 -0.5q13 0 21 -1h5t6 0.5t6 0.5
t4.5 -1t1.5 -4q0 -1 0.5 -5t0.5 -14v-25q0 -58 -15 -121q-4 -17 -4 -27q0 -7 1 -13.5t2 -12t5.5 -16t7 -17.5t10.5 -25t13 -31zM195 117q0 12 -4 21l-60 144q-5 14 -9 14q-5 0 -11 -10q-16 -28 -16 -47v-117v-15t2 -14t6 -14t12.5 -8t20.5 -4q30 0 52 30q7 11 7 20zM194 519
v66q0 20 -13.5 36.5t-33.5 16.5q-18 0 -32.5 -15.5t-14.5 -38.5q0 -34 38 -145q3 -11 10 -11q8 0 17 14q29 43 29 77z" />
    <glyph glyph-name="quotesingle" unicode="'" horiz-adv-x="124" 
d="M94 683q0 -36 -0.5 -67t-0.5 -57q0 -7 -4.5 -16t-14.5 -7q-8 2 -28 0q-9 -1 -12 6.5t-3 24.5v86q-2 46 16 46q20 0 31 3q7 2 11.5 -1.5t4.5 -17.5z" />
    <glyph glyph-name="parenleft" unicode="(" horiz-adv-x="160" 
d="M163 775q0 -32 -7 -32q-22 0 -36.5 -18.5t-14.5 -41.5v-660q0 -26 12.5 -43.5t38.5 -17.5q5 0 5 -28q0 -39 -5 -39q-56 0 -86 35.5t-30 89.5v663q0 51 31 86.5t85 35.5q3 0 4.5 -1.5t2 -5.5t0.5 -7v-8.5v-7.5z" />
    <glyph glyph-name="parenright" unicode=")" horiz-adv-x="160" 
d="M121 20q0 -54 -30 -89.5t-86 -35.5q-5 0 -5 39q0 28 5 28q26 0 38.5 17.5t12.5 43.5v660q0 23 -14.5 41.5t-36.5 18.5q-7 0 -7 32v7.5v8.5t0.5 7t2 5.5t4.5 1.5q54 0 85 -35.5t31 -86.5v-663z" />
    <glyph glyph-name="asterisk" unicode="*" horiz-adv-x="293" 
d="M261 627l-17.5 -10l-19.5 -11l-16 -9.5t-13 -9t-4 -6.5t10 -8.5t26 -13.5t25 -13q2 -1 2 -6.5t-1.5 -12.5t-4.5 -13.5t-6 -10.5t-5 -3l-23 10t-17.5 8t-12.5 6t-9 3h-5q-3 -2 -3.5 -10t0.5 -25t1 -25q0 -6 -24 -6.5t-25 4.5q-2 8 -3 24t-1.5 27.5t-3.5 14.5t-10 -1
t-21 -13.5t-21 -13.5q-4 -3 -11.5 6.5t-12.5 21.5t-2 14q6 5 22.5 12.5t28 14t11.5 10.5q0 6 -22 17t-41 16q-4 3 -2.5 13.5t7.5 21t10 9.5q12 -3 27 -11.5t25 -13.5t12 -4q4 2 5 13t1.5 31t1.5 27q0 7 24 7t24 -7q-3 -72 6 -75q7 -3 64 39q3 2 10.5 -6.5t12.5 -19t1 -12.5z
" />
    <glyph glyph-name="plus" unicode="+" horiz-adv-x="208" 
d="M186 234q-6 -3 -33.5 -4t-29.5 -4q-2 -2 -2 -61q0 -4 -14.5 -6t-15.5 2q-3 7 -4.5 34.5t-3.5 30.5q-3 3 -14.5 3.5t-23 0t-21.5 1.5q-4 1 -4 16t5 17q7 2 31 2t27 3q2 2 2.5 13.5t0.5 26.5t2 22q1 4 16 4t17 -5q2 -6 2 -21v-27t2 -14q4 -4 57 -4q4 0 6 -14t-2 -16z" />
    <glyph glyph-name="comma" unicode="," horiz-adv-x="104" 
d="M91 44q0 -20 -9 -49q-10 -29 -24 -49t-25 -19q-4 1 -6 4.5t-1 11.5t1.5 13.5t3 17.5t3.5 16q2 6 0.5 10.5t-2 5.5t-4.5 3.5t-6 4.5q-11 11 -11 32q0 42 41 38q16 -1 26.5 -12t12.5 -28z" />
    <glyph glyph-name="hyphen" unicode="-" horiz-adv-x="206" 
d="M186 236q2 -7 -1.5 -11.5t-17.5 -4.5q-36 0 -67 0.5t-57 0.5q-7 0 -16 4.5t-7 14.5q2 8 0 28q-1 9 6.5 12t24.5 3q4 0 43.5 -0.5t42.5 0.5q46 2 46 -16q0 -20 3 -31z" />
    <glyph glyph-name="hyphen" unicode="&#xad;" horiz-adv-x="206" 
d="M186 236q2 -7 -1.5 -11.5t-17.5 -4.5q-36 0 -67 0.5t-57 0.5q-7 0 -16 4.5t-7 14.5q2 8 0 28q-1 9 6.5 12t24.5 3q4 0 43.5 -0.5t42.5 0.5q46 2 46 -16q0 -20 3 -31z" />
    <glyph glyph-name="period" unicode="." horiz-adv-x="104" 
d="M92 43q1 -13 0.5 -23t-10 -16.5t-30.5 -8.5q-18 -3 -31 13.5t-11 36.5t10.5 31t31.5 10q17 -1 28 -13t12 -30z" />
    <glyph glyph-name="slash" unicode="/" horiz-adv-x="211" 
d="M195 681l-117 -665q-2 -11 -10 -13.5t-26 -2.5q-11 0 -16 0.5t-8.5 4.5t-2.5 12l119 669q2 16 30 16q22 0 27.5 -3.5t3.5 -17.5z" />
    <glyph glyph-name="zero" unicode="0" horiz-adv-x="302" 
d="M267 125q0 -64 -31.5 -94.5t-84.5 -30.5q-51 0 -83.5 33.5t-32.5 91.5v453q0 55 33 88.5t83 33.5t83 -34.5t33 -87.5v-453zM201 128v450q0 22 -14.5 41t-35.5 19t-36 -19t-15 -41v-450q0 -30 14 -45.5t37 -15.5q50 0 50 61z" />
    <glyph glyph-name="one" unicode="1" horiz-adv-x="258" 
d="M243 33q0 -33 -11 -33h-198q-9 0 -11.5 6.5t-2.5 25.5q0 21 3 28.5t13 7.5h44q15 0 18 2q5 3 5 30v461q0 24 -4 24q-5 0 -12 -4t-16.5 -12t-11.5 -9l-3.5 -3.5t-4.5 -4t-5 -4t-5 -3l-4 -1t-3 1.5t-2 5q-5 33 -2 49q1 9 40 41q8 7 17.5 28.5t13.5 22.5q25 8 55 8
q11 0 11 -30v-570q0 -23 3 -27q4 -5 17 -5h47q6 0 7.5 -6.5t1.5 -28.5z" />
    <glyph glyph-name="two" unicode="2" horiz-adv-x="267" 
d="M249 495q0 -69 -47 -129l-92 -119q-22 -30 -22 -77v-69q0 -24 5 -29t23 -5h116q9 0 12 -7t3 -27t-3 -26.5t-14 -6.5h-174q-19 0 -24 4q-3 2 -4.5 3.5t-2 4t-0.5 3.5v6v7v148q0 69 33 112l103 133q26 34 26 82v93q0 45 -52 45q-20 0 -32 -13t-12 -31v-55q0 -13 -31 -13
q-20 0 -26 2t-6 12q0 9 0.5 28t0.5 28q0 39 28.5 70t78.5 31q54 0 83.5 -30t29.5 -69v-106z" />
    <glyph glyph-name="three" unicode="3" horiz-adv-x="272" 
d="M247 116q0 -47 -34.5 -81.5t-81.5 -34.5q-46 0 -78.5 34t-32.5 82v49q0 13 5.5 16.5t25.5 3.5q23 0 28 -1.5t5 -9.5v-56q0 -24 12 -42t37 -18q24 0 37.5 17.5t13.5 41.5v182q0 39 -31 48q-15 4 -26 -1.5t-15 -5.5q-7 0 -12.5 1.5t-13.5 6t-13 6.5q-6 2 -9.5 7.5
t-1.5 10.5l110 241q7 17 2 24q-3 5 -131 5q-13 0 -13 30q0 17 2.5 22.5t10.5 5.5h189q14 0 14 -29q0 -38 -7 -58l-85 -195q-5 -12 7 -15q23 -4 42 -18q44 -30 44 -80v-189z" />
    <glyph glyph-name="four" unicode="4" horiz-adv-x="267" 
d="M248 165q0 -26 -6 -26q-16 0 -21 -4q-3 -3 -3 -12v-111q0 -8 -8 -10t-29 -2q-30 0 -30 13v101q0 13 -2 18q-3 5 -27 5h-78q-14 0 -16 4q-3 5 -3 23v102q0 18 2 31q1 4 8 28l105 354q5 15 11 19t27 4q27 0 33 -2.5t6 -10.5v-478q0 -12 2 -14q3 -3 23 -3q6 0 6 -29z
M156 467q0 53 -4 53q-2 0 -3.5 -2t-3 -5.5t-2 -6.5t-1.5 -8t-2 -7l-23 -87.5t-22 -83.5q-1 -4 -5 -14.5t-5 -16.5q-1 -7 -1 -19v-52q0 -18 3 -22q2 -3 30 -3q25 0 31 3q3 2 3 18q0 46 2.5 126t2.5 127z" />
    <glyph glyph-name="five" unicode="5" horiz-adv-x="280" 
d="M255 214q0 -54 -24 -105q-22 -49 -90 -90q-16 -9 -54 -17t-52 -1q-5 3 -5 26q0 25 4 29q7 7 21 6t48 9q48 18 71 61q15 28 15 79v82q0 59 -44 59q-26 0 -45 -19q-4 -4 -5.5 -9t-8.5 -8q-26 -9 -54 0q-3 1 -3 34v314q0 20 4 26q7 10 26 10h176q11 0 14 -6.5t3 -22.5
q0 -30 -15 -30h-114q-17 0 -23 -7t-6 -21v-172v-7v-7.5v-7t1 -7t2.5 -5t4 -3.5t6.5 -1q3 0 13 4.5t30 4.5q48 -1 77 -34q27 -31 27 -79v-85z" />
    <glyph glyph-name="six" unicode="6" horiz-adv-x="274" 
d="M249 145q0 -66 -28 -105.5t-80 -39.5q-111 0 -111 144v353q0 59 23 102t58.5 63.5t68.5 29.5t63 9q6 0 6 -27q0 -34 -6 -34q-65 0 -108 -35.5t-43 -110.5v-77q0 -14 4 -19q7 -5 12 -4.5t17.5 3.5t20.5 3q28 0 60 -21q19 -13 31 -32.5t12 -36.5v-165zM190 143v142
q0 26 -14.5 40.5t-36.5 14.5q-48 0 -48 -59v-138q0 -46 9 -64t41 -18q49 0 49 82z" />
    <glyph glyph-name="seven" unicode="7" horiz-adv-x="257" 
d="M238 592q0 -2 -19 -64q-32 -98 -41 -147q-2 -11 -12 -59t-12 -59.5l-8.5 -48.5t-8.5 -57l-5 -52t-4 -64q0 -31 -4 -34q-9 -7 -30 -7q-22 0 -28 5q-4 4 -2 52q9 137 46 325q9 48 31 118t29 96q6 30 -1 40q-3 4 -52 4h-90q-12 0 -12 29v15.5t1 9t3 5.5t6 1h197q8 0 12 -3
q4 -5 4 -14v-91z" />
    <glyph glyph-name="eight" unicode="8" horiz-adv-x="292" 
d="M262 132q0 -58 -32.5 -95t-83.5 -37t-83.5 37.5t-32.5 94.5v177q0 20 11 44q8 17 26 29q-8 7 -23 30q-14 22 -14 47v138q0 43 35 73t81 30q45 0 80.5 -30.5t35.5 -73.5v-140q0 -10 -15 -44q-8 -18 -25 -32q16 -13 23 -27q17 -34 17 -55v-166zM196 132v163
q0 22 -14.5 38.5t-35.5 16.5t-36 -16t-15 -36v-166q0 -28 14 -47.5t37 -19.5q24 0 37 18.5t13 48.5zM196 466v129q0 18 -15 31.5t-35 13.5t-35.5 -14t-15.5 -33v-126q0 -22 15 -38.5t36 -16.5t35.5 15.5t14.5 38.5z" />
    <glyph glyph-name="nine" unicode="9" horiz-adv-x="279" 
d="M249 209q0 -53 -18 -93.5t-43 -61.5t-57 -34.5t-55 -17t-42 -3.5q-7 0 -7 32q0 33 8 33q26 0 49 5.5t47.5 20t39 45t14.5 74.5v74q0 21 -7 28q-5 2 -10.5 0t-16.5 -5.5t-19 -3.5q-32 0 -60 18q-47 33 -47 77v167q0 136 112 136t112 -135v-356zM186 418v148q0 41 -11.5 60
t-38.5 19q-48 0 -48 -79v-152q0 -25 14 -39t36 -14q48 0 48 57z" />
    <glyph glyph-name="colon" unicode=":" horiz-adv-x="124" 
d="M97 243v-19.5t-8.5 -14.5t-26.5 -8q-16 -2 -27.5 12t-9.5 32q1 11 3.5 18t11 12.5t22.5 4.5q15 -1 24.5 -11.5t10.5 -25.5zM97 43v-19.5t-8.5 -14.5t-26.5 -8q-16 -2 -27.5 12t-9.5 32q1 11 3.5 18t11 12.5t22.5 4.5q15 -1 24.5 -11.5t10.5 -25.5z" />
    <glyph glyph-name="semicolon" unicode=";" horiz-adv-x="124" 
d="M97 243v-19.5t-8.5 -14.5t-26.5 -8q-16 -2 -27.5 12t-9.5 32q1 11 3.5 18t11 12.5t22.5 4.5q15 -1 24.5 -11.5t10.5 -25.5zM97 43q0 -21 -8 -44q-27 -75 -46 -72q-4 1 -6 4.5t-1 11.5t1.5 13.5t3 17.5t3.5 16q3 16 -9 26q-10 8 -10 29q0 37 37 35q15 -1 24.5 -11.5
t10.5 -25.5z" />
    <glyph glyph-name="less" unicode="&#x3c;" horiz-adv-x="248" 
d="M199 427q-115 -118 -115 -131q0 -12 113 -130q15 -17 -4 -33q-6 -6 -19 -12q-8 -5 -82 79.5t-74 95.5q0 12 75.5 96.5t82.5 79.5q12 -6 20 -13q7 -6 9 -8.5t2 -9t-8 -14.5z" />
    <glyph glyph-name="equal" unicode="=" horiz-adv-x="226" 
d="M209 342q-6 -3 -37 -5q-44 -4 -110 -2q-22 0 -43 5q-4 1 -4 15.5t5 16.5q8 2 37 2q18 1 54.5 0t45.5 -1t24 -0.5t24 -0.5q4 0 6 -14t-2 -16zM208 224q-6 -3 -37 -5q-44 -4 -110 -2q-26 0 -43 4q-4 1 -4 16t5 17q7 2 37 2q18 1 54.5 0t45.5 -1t24 -0.5t24 -0.5q4 0 6 -14
t-2 -16z" />
    <glyph glyph-name="greater" unicode="&#x3e;" horiz-adv-x="248" 
d="M230 296q0 -11 -74 -95.5t-82 -79.5q-9 5 -21 15q-1 1 -5.5 4t-5.5 5t-2 5t1 7t7 9q113 121 113 130q0 12 -116 131q-7 8 -6.5 15t2 8t9.5 8t22 14q8 5 83 -79.5t75 -96.5z" />
    <glyph glyph-name="question" unicode="?" horiz-adv-x="270" 
d="M240 495q0 -69 -47 -129q-7 -8 -12 -18.5l-8.5 -18t-5.5 -22t-3.5 -20.5t-2 -24.5t-0.5 -23.5v-27.5v-26.5q0 -10 -6 -12.5t-26 -2.5q-19 0 -24 2t-5 12q0 57 2 90t14 74t36 73q26 34 26 82v93q0 45 -52 45q-20 0 -32 -13t-12 -31v-54q0 -14 -31 -14q-20 0 -25.5 2.5
t-5.5 11.5v56q0 39 28.5 70t78.5 31q53 0 83 -30t30 -69v-106zM169 38q-1 -17 -12 -29.5t-28 -13.5q-23 -1 -31.5 10t-10.5 31t11 36.5t31 13.5q21 -2 30.5 -8.5t10 -16.5t-0.5 -23z" />
    <glyph glyph-name="at" unicode="@" horiz-adv-x="554" 
d="M519 359q0 -45 -10 -74t-27.5 -40.5t-29.5 -14.5t-29 -3q-26 0 -42 10t-21.5 20.5t-6.5 10.5l-3 -4q-2 -4 -6.5 -10t-12.5 -12.5t-23 -10.5t-35 -4q-51 0 -78.5 35t-27.5 71v58q0 40 29.5 73t76.5 33q9 0 17 -1.5t13 -3t10.5 -5t7.5 -5.5t6 -5.5t5 -4.5q7 -6 7 6
q0 19 18 19q24 0 24 -5v-154q0 -28 12.5 -43t25.5 -15q23 0 36 17.5t13 69.5q0 84 -54 136t-135 52q-79 0 -135 -55.5t-56 -135.5q0 -77 56 -132t135 -55h71q10 0 10 -23q0 -32 -7 -32h-76q-100 0 -171 71t-71 171t71 171t171 71q106 0 174 -63t68 -184zM332 333v59
q0 24 -14.5 41.5t-43.5 17.5t-43.5 -19.5t-14.5 -39.5v-59q0 -29 19 -43t39 -14t39 14t19 43z" />
    <glyph glyph-name="A" unicode="A" horiz-adv-x="255" 
d="M245 10q1 -8 -4 -9t-27 -1q-30 0 -33 4q-2 2 -3 8q-4 26 -11 79l-11 82q-1 9 -31 9q-27 0 -29 -6q-1 -1 -1 -3q-10 -93 -16 -163q-1 -8 -7.5 -9t-34.5 -1h-11t-8.5 1t-6 3t-1.5 5l47 373.5l39 303.5q1 10 6.5 12.5t22.5 2.5q20 0 27 -3t8 -15zM148 245q-4 48 -9 119
l-7 101q0 11 -7 11q-6 0 -6 -10q-3 -38 -7.5 -111.5t-7.5 -108.5q-1 -5 5 -7t17 -2h9t6.5 1t5 2.5t1.5 4.5z" />
    <glyph glyph-name="B" unicode="B" horiz-adv-x="297" 
d="M272 141q0 -56 -36 -98q-38 -43 -105 -43h-49h-12.5t-14.5 1t-7 4q-8 12 -8 34v630q0 19 6 25q7 6 24 6h57q66 0 105 -35q37 -35 37 -104v-90q0 -43 -11 -63q-7 -12 -18.5 -21t-19.5 -13.5t-8 -5.5t9 -5t21 -13t19 -22q11 -22 11 -63v-124zM208 140v128q0 33 -16.5 49.5
t-40.5 16.5q-32 0 -39 -4.5t-7 -22.5v-210q0 -30 10 -31q8 -1 18 -1q33 0 54 22q21 23 21 53zM204 466v95q0 36 -21 58q-17 15 -46 15q-25 0 -29 -7q-3 -6 -3 -17v-187q0 -21 6 -27q5 -5 18 -5q34 0 55 22q20 22 20 53z" />
    <glyph glyph-name="C" unicode="C" horiz-adv-x="287" 
d="M267 117q0 -51 -29 -84t-87 -33q-54 0 -85 36t-31 80v466q0 45 31 81.5t85 36.5q56 0 86 -39t30 -79v-45q0 -11 -33 -11h-4q-30 0 -30 11v47q0 18 -14 36t-35 18q-22 0 -36.5 -17t-14.5 -36v-463q0 -23 12.5 -39t38.5 -16q24 0 36.5 15t12.5 37v59q0 8 31 8h10
q26 0 26 -8v-61z" />
    <glyph glyph-name="D" unicode="D" horiz-adv-x="307" 
d="M272 141q0 -56 -36 -98q-38 -43 -105 -43h-62q-20 0 -24 7q-5 7 -5 25v637q0 20 6 26q6 5 24 5h60q66 0 105 -35q37 -35 37 -104v-420zM207 140v421q0 36 -21 58q-16 15 -46 15q-28 0 -32 -7q-3 -6 -3 -17v-513q0 -23 6 -29q3 -3 23 -3q32 0 53 22q20 22 20 53z" />
    <glyph glyph-name="E" unicode="E" horiz-adv-x="263" 
d="M248 28q0 -17 -2 -22.5t-10 -5.5h-150q-35 0 -40 4q-6 5 -6 34v632q0 13 7 22q6 8 23 8h166q12 0 12 -30q0 -11 -0.5 -15.5t-3.5 -8t-9 -3.5h-100q-19 0 -23 -5q-5 -7 -5 -19v-190q0 -21 6 -26q6 -4 22 -4h47q9 0 11.5 -6t2.5 -23q0 -16 -2.5 -22t-11.5 -6h-45
q-19 0 -25 -3q-7 -5 -7 -29v-215q0 -32 5 -35q7 -4 30 -4h95q9 0 11 -5.5t2 -22.5z" />
    <glyph glyph-name="F" unicode="F" horiz-adv-x="258" 
d="M248 670q0 -16 -3.5 -21.5t-15.5 -5.5h-94q-16 0 -21 -2q-7 -5 -7 -37v-189q0 -20 5 -25q2 -2 23 -5q8 -1 53 -1q11 0 14.5 -6.5t3.5 -23.5q0 -18 -3.5 -24t-14.5 -6h-51q-21 0 -25 -3q-7 -5 -7 -36v-270q0 -10 -6 -12t-24 -2h-4q-13 0 -18 0.5t-9 3.5t-4 9v654
q0 18 5 24q7 8 19 8h171q9 0 11 -6t2 -24z" />
    <glyph glyph-name="G" unicode="G" horiz-adv-x="302" 
d="M267 22q0 -16 -5 -21q-2 -2 -5.5 -2t-8.5 1t-8 1t-4.5 5.5t-4.5 13.5t-9 12q-4 3 -11.5 -5t-23 -17.5t-36.5 -9.5q-58 0 -87 37t-29 79v466q0 17 6 35.5t18 38t36 32t56 12.5q58 0 87 -40t29 -78v-45q0 -12 -35 -12q-19 0 -25 1.5t-6 8.5t-0.5 24.5t-0.5 24.5
q0 18 -14 36t-35 18q-22 0 -36.5 -17.5t-14.5 -35.5v-465q0 -22 12 -38.5t39 -16.5q26 0 37.5 16t11.5 36v172q0 12 -4 15q-3 2 -38 2q-9 0 -9 29q0 31 8 31q9 0 37.5 0.5t44.5 1t27 -0.5q1 0 1 -12v-333z" />
    <glyph glyph-name="H" unicode="H" horiz-adv-x="312" 
d="M272 21q0 -14 -4 -17t-28 -3q-23 0 -28 3t-5 17v273q0 32 -6 34q-9 4 -47.5 3t-42.5 -4q-7 -5 -7 -36v-274q0 -11 -6 -13.5t-28 -2.5q-20 0 -25 2t-5 12v666q0 10 5.5 14t24.5 4q21 0 28 -4t7 -15v-236v-8.5v-9.5t0.5 -8t1.5 -8t3.5 -6t6.5 -5q7 -3 40.5 -3.5t42.5 3.5
q7 5 7 42v243q0 3 0.5 5.5t1 4.5t2.5 3l3 1.5t4.5 0.5h5.5h7h8q16 0 21.5 -0.5t8.5 -4t3 -11.5v-662z" />
    <glyph glyph-name="I" unicode="I" horiz-adv-x="144" 
d="M104 17q0 -11 -5 -13.5t-29 -2.5q-21 0 -25.5 2t-4.5 12v669q0 10 6 12.5t24 2.5q21 0 27.5 -2.5t6.5 -13.5v-666z" />
    <glyph glyph-name="J" unicode="J" horiz-adv-x="257" 
d="M227 116q0 -116 -106 -116q-55 0 -80.5 35.5t-25.5 79.5v65q0 2 0.5 3.5t2.5 2.5t3.5 1.5t4.5 0.5h5.5h6.5h7q35 0 35 -8v-60q0 -16 2 -25.5t11.5 -18.5t27.5 -9t27.5 8.5t11.5 18t2 25.5v567q0 8 6 10.5t24 2.5q20 0 27.5 -2t7.5 -10v-571z" />
    <glyph glyph-name="K" unicode="K" horiz-adv-x="275" 
d="M271 12q1 -4 -1 -6t-9.5 -4t-22.5 -2q-26 0 -31 6q-3 3 -4 8l-70 282q-4 17 -16 -6q-3 -4 -5 -10q-8 -19 -8 -42v-220q0 -12 -5.5 -15t-27.5 -3q-20 0 -25.5 3t-5.5 13v669q0 9 6 11.5t24 2.5q14 0 19.5 -0.5t10 -4t4.5 -10.5v-242q2 -19 5 -20q2 1 7 19l69 245q2 8 8 9
t28 1q13 0 20.5 -1.5t10.5 -3.5t2 -5l-73 -255q-4 -16 -4 -33q0 -14 5 -36z" />
    <glyph glyph-name="L" unicode="L" horiz-adv-x="243" 
d="M233 30q0 -19 -2.5 -24.5t-11.5 -5.5h-149q-21 0 -26 7q-4 6 -4 36v644q0 2 0.5 4t1 3.5t1.5 2.5t3 1.5t3 1t4 0.5h5h6h6q15 0 21 -0.5t10 -4t4 -10.5v-589q0 -31 7 -36q6 -3 23 -3h84q9 0 11.5 -5.5t2.5 -21.5z" />
    <glyph glyph-name="M" unicode="M" horiz-adv-x="348" 
d="M308 18q0 -12 -5.5 -15t-27.5 -3q-20 0 -26 3t-6 15v349q0 102 -7 102q-6 0 -12 -17q-12 -47 -37 -133q-4 -15 -14 -15q-9 0 -14 14l-35 132q-5 16 -14 16q-5 0 -5 -99v-349q0 -12 -6 -15t-26 -3q-21 0 -27 3t-6 15v667q0 10 4.5 12t17.5 2h6q17 0 23.5 -9t18.5 -46
l52 -162q4 -11 12 -11t12 11l52 162q12 38 17.5 47t21.5 9q13 0 18.5 -0.5t9 -4t3.5 -10.5v-667z" />
    <glyph glyph-name="N" unicode="N" horiz-adv-x="312" 
d="M272 41q0 -28 -3.5 -34.5t-21.5 -6.5q-13 0 -21.5 8t-14.5 31q-58 245 -78 323q-2 8 -6.5 29t-8 32.5t-6.5 11.5q-7 0 -7 -18v-399q0 -12 -5.5 -15t-26.5 -3q-22 0 -27.5 3t-5.5 15v672q0 7 5 8.5t20 1.5q21 0 29.5 -8t15.5 -36l82 -330q5 -24 11 -24t6 18v362q0 12 6 15
t28 3q18 0 23.5 -2.5t5.5 -12.5v-644z" />
    <glyph glyph-name="O" unicode="O" horiz-adv-x="302" 
d="M267 125q0 -55 -27 -90t-89 -35q-58 0 -87 35.5t-29 89.5v453q0 55 33 88.5t83 33.5t83 -35t33 -87v-453zM201 128v450q0 22 -14.5 41t-35.5 19t-36 -19t-15 -41v-450q0 -61 51 -61q50 0 50 61z" />
    <glyph glyph-name="P" unicode="P" horiz-adv-x="296" 
d="M272 431q0 -56 -36 -98q-38 -43 -113 -43q-19 0 -19 -21v-253q0 -11 -6 -13.5t-28 -2.5q-20 0 -25 2t-5 12v655q0 18 7 25q7 6 23 6h60q66 0 105 -35q37 -35 37 -104v-130zM207 430v131q0 36 -21 58q-16 15 -46 15q-28 0 -32 -7q-3 -6 -3 -17v-223q0 -25 7 -29
q3 -2 23 -2q32 0 52 21q14 15 17 25t3 28z" />
    <glyph glyph-name="Q" unicode="Q" horiz-adv-x="302" 
d="M267 125q0 -98 -77 -120q-5 -1 -7.5 -3t-2.5 -3v-1q0 -27 15.5 -43.5t35.5 -16.5q5 0 5 -31t-5 -31q-50 0 -83 33t-33 89q0 3 -1.5 4.5t-4.5 2.5t-4 2q-1 0 -8.5 4.5t-14 9t-16 14.5t-16 21t-11 29.5t-4.5 39.5v453q0 55 33 88.5t83 33.5t83 -35t33 -87v-453zM201 125
v453q0 22 -14.5 41t-35.5 19t-36 -19t-15 -41v-453q0 -30 14 -45.5t37 -15.5q50 0 50 61z" />
    <glyph glyph-name="R" unicode="R" horiz-adv-x="307" 
d="M270 16q0 -11 -6 -13.5t-28 -2.5h-4q-16 0 -21 2t-5 12v254q0 29 -15.5 47.5t-33.5 18.5q-47 0 -51 -5q-2 -3 -2 -10v-303q0 -12 -5.5 -14t-28.5 -2q-19 0 -24.5 2t-5.5 12v655q0 20 7 27q5 4 23 4h57q66 0 105 -35q37 -35 37 -104v-90q0 -43 -11 -63q-7 -12 -18.5 -21
t-20 -13.5t-8.5 -5.5t8.5 -5t20.5 -13t19 -22q11 -22 11 -63v-249zM204 466v95q0 36 -21 58q-17 15 -53 15q-18 0 -22 -7q-3 -6 -3 -17v-187q0 -23 6 -28q5 -4 18 -4q34 0 55 22q20 22 20 53z" />
    <glyph glyph-name="S" unicode="S" horiz-adv-x="273" 
d="M255 116q0 -50 -33.5 -83t-82.5 -33q-51 0 -83.5 29.5t-32.5 86.5v56q0 8 6.5 10.5t26.5 2.5q34 0 34 -11v-55q0 -21 12 -36.5t37 -15.5q51 0 51 55v61q0 25 -13 55.5t-26.5 52t-39.5 57.5q-30 42 -43.5 63t-29.5 56.5t-16 62.5v51q0 46 28.5 82.5t85.5 36.5
q53 0 83.5 -37.5t30.5 -80.5v-46q0 -8 -35 -8q-32 0 -32 9v47q0 23 -14.5 38.5t-32.5 15.5q-20 0 -34.5 -16.5t-14.5 -36.5v-55q0 -23 17.5 -53.5t50.5 -76.5l9 -12q28 -38 44.5 -65t31.5 -66.5t15 -74.5v-66z" />
    <glyph glyph-name="T" unicode="T" horiz-adv-x="239" 
d="M236 670q0 -18 -2 -22.5t-10 -4.5h-12h-15.5h-15.5q-16 0 -21 -2q-7 -5 -7 -37v-594q0 -10 -36 -10q-31 0 -31 10v594q0 32 -7 37q-5 2 -21 2h-37q-11 0 -14.5 5t-3.5 22t2.5 23.5t11.5 6.5h206q13 0 13 -30z" />
    <glyph glyph-name="U" unicode="U" horiz-adv-x="302" 
d="M267 116q0 -51 -29 -83.5t-87 -32.5q-56 0 -86 36t-30 79v570q0 15 32 15q33 0 33 -15v-565q0 -22 13 -37.5t38 -15.5q24 0 37.5 15t13.5 37v569q0 12 30 12q35 0 35 -11v-573z" />
    <glyph glyph-name="V" unicode="V" horiz-adv-x="257" 
d="M247 686l-83 -671q-2 -15 -33 -15q-23 0 -31 2.5t-9 14.5l-81 671q-1 9 4.5 10.5t27.5 1.5t28.5 -3t7.5 -13l43 -477q0 -10 6 -10q7 0 7 11l48 475q1 12 6.5 14t21.5 2q22 0 30 -2.5t7 -10.5z" />
    <glyph glyph-name="W" unicode="W" horiz-adv-x="340" 
d="M330 689l-56 -678q-1 -8 -5 -9.5t-19 -1.5h-9q-19 0 -21 11l-40 219q-3 11 -7 11q-3 0 -6 -10l-42 -219q-1 -9 -6 -10.5t-18 -1.5q-34 0 -35 11l-56 677q-2 12 28 12q24 0 31 -2t8 -9l31 -479q0 -10 6 -10q7 0 7 11l28 258q1 12 24 12q25 0 26 -12l12.5 -122.5
l14.5 -139.5q0 -10 6 -10q7 0 7 11l30 482q1 7 5 8.5t22 1.5h9q12 0 16 -0.5t6.5 -2.5t2.5 -8z" />
    <glyph glyph-name="X" unicode="X" horiz-adv-x="246" 
d="M236 13q2 -8 -3 -10.5t-26 -2.5h-7.5h-6.5h-5h-4t-3 0.5t-3 1.5l-2 2t-1.5 2.5t-0.5 3.5l-45 232q-3 9 -6 9q-5 0 -7 -10l-42 -228q-1 -9 -7 -11t-30 -2q-19 0 -23.5 2.5t-2.5 14.5l64 317q3 12 3 23q0 7 -4 27l-57 307q-1 3 1 5t7 2.5l10 1t13 0.5h5q28 0 30 -9l34 -220
q0 -9 6 -9q5 0 5 10l35 222q1 6 20 6h11q23 0 29.5 -1t5.5 -7l-57 -307q-4 -20 -4 -27q0 -10 3 -22z" />
    <glyph glyph-name="Y" unicode="Y" horiz-adv-x="229" 
d="M219 685l-56 -331q-5 -29 -9 -59q0 -3 -2 -12t-3 -19t-1 -18v-238q0 -8 -35 -8q-32 0 -32 11q0 39 0.5 112.5t0.5 119.5q0 21 -5 49q-1 6 -5.5 27.5t-6.5 33.5l-55 332q-1 9 4.5 11.5t19.5 2.5q25 0 32.5 -2.5t8.5 -13.5l17 -131l16 -122q0 -9 6 -9q5 0 5 10
q8 52 19 139.5l14 112.5q2 16 37 16q21 0 26 -2.5t4 -11.5z" />
    <glyph glyph-name="Z" unicode="Z" horiz-adv-x="246" 
d="M227 672q0 -34 -3 -49l-128 -518q-1 -4 -1 -36q0 -9 12 -9h106q8 0 9.5 -6t1.5 -26t-1.5 -24t-9.5 -4h-180q-8 0 -8 26q0 67 2 74q33 123 126 500q7 26 -7 37q-5 2 -21 2h-82q-12 0 -12 31q0 20 1.5 25t10.5 5h165q13 0 16 -4t3 -24z" />
    <glyph glyph-name="bracketleft" unicode="[" horiz-adv-x="172" 
d="M164 775q0 -32 -8 -32h-9h-8h-7t-7 -0.5t-5.5 -1.5t-5 -2t-4 -3t-3.5 -4.5t-1.5 -6t-0.5 -7.5v-726q0 -9 2 -15t4 -9t8.5 -4.5t9.5 -2t13 0t14 0.5q3 0 4.5 -2t1.5 -5.5v-7v-8.5v-7q0 -37 -6 -37q-15 0 -37 -1t-33 -1t-23.5 1.5t-17.5 6.5t-5 14v868q0 6 3 10.5t9 7t13 4
t18.5 1.5h21t25 -0.5t26.5 -0.5q4 0 6 -2t2.5 -5.5t0.5 -6.5t-0.5 -8t-0.5 -8z" />
    <glyph glyph-name="backslash" unicode="\" horiz-adv-x="211" 
d="M194 13q1 -8 -6 -10.5t-24 -2.5q-31 0 -33 15l-116 665q-2 11 4.5 15t23.5 4q34 0 36 -10z" />
    <glyph glyph-name="bracketright" unicode="]" horiz-adv-x="172" 
d="M131 -88q0 -4 -1.5 -6.5t-5.5 -4.5t-8.5 -3t-11.5 -2t-13.5 -1h-16.5h-18h-20h-21q-5 0 -5 39q0 2 -0.5 7t-0.5 8t0.5 6.5t1.5 5t4 1.5h7q29 0 36.5 4t7.5 24v727q0 4 -0.5 7.5t-1.5 6t-3.5 4.5t-4 3.5t-5 2.5t-5.5 1.5t-7 0.5h-7h-8h-9q-6 0 -6 32q0 3 -0.5 7.5t-1 8
t-0.5 7t2 5.5t6 2q11 0 26.5 0.5t25 0.5t21 -0.5t18.5 -1.5t13 -3.5t9 -7.5t3 -11v-870z" />
    <glyph glyph-name="asciicircum" unicode="^" horiz-adv-x="297" 
d="M276 493q-5 -2 -15 -5.5t-14 -5.5q-11 -4 -17 7q-43 74 -61 100q-15 21 -21 21q-7 0 -22 -23l-32.5 -54.5t-29.5 -48.5q-2 -3 -8 -4t-13 2q-24 16 -25 17q-10 6 22 51q60 96 77 119q22 32 31 32q10 0 36 -36q19 -26 50 -76.5l34 -55.5q23 -31 8 -40z" />
    <glyph glyph-name="underscore" unicode="_" horiz-adv-x="293" 
d="M290 -87q-6 -3 -34.5 -3t-59 0.5t-34.5 0.5q-22 -2 -90 0q-46 0 -64 2q-4 1 -4 26t5 27q8 2 58 2q18 1 43.5 0t36.5 -1q9 0 69.5 -0.5t69.5 -0.5q4 0 6 -26t-2 -27z" />
    <glyph glyph-name="grave" unicode="`" horiz-adv-x="286" 
d="M222 570q-12 -23 -13 -28q-4 -16 -24 -5l-107 62q-21 16 -10 28q5 6 14 25q6 13 35 -3l73 -43q42 -21 32 -36z" />
    <glyph glyph-name="a" unicode="a" horiz-adv-x="292" 
d="M262 11q0 -8 -5 -9.5t-28 -1.5h-15t-8.5 1t-5.5 3t-1 5v5v5v4t-1.5 3t-4.5 1q-2 0 -5.5 -6.5t-14 -13.5t-27.5 -7q-51 0 -83.5 33t-32.5 92v235q0 55 33 88.5t83 33.5q25 0 40 -15q6 -7 8.5 -5t2.5 15q0 6 23 6h8q22 0 28 -2t6 -10v-460zM196 128v232q0 22 -14.5 41
t-35.5 19t-36 -19t-15 -41v-232q0 -61 51 -61q50 0 50 61z" />
    <glyph glyph-name="b" unicode="b" horiz-adv-x="297" 
d="M267 121q0 -55 -29 -88t-87 -33q-17 0 -27.5 7t-14 13.5t-5.5 6.5q-7 0 -7 -18q0 -9 -32 -9q-30 0 -30 8v684q0 9 30 9q35 0 35 -8v-206q0 -11 4 -15.5t10 -2.5q27 13 37 13q52 0 84 -35.5t32 -89.5v-236zM201 128v232q0 22 -14.5 41t-35.5 19t-36 -19t-15 -41v-232
q0 -29 14 -45t37 -16q50 0 50 61z" />
    <glyph glyph-name="c" unicode="c" horiz-adv-x="287" 
d="M262 125q0 -57 -28.5 -91.5t-87.5 -34.5q-56 0 -86 36t-30 90v232q0 57 32 91t84 34q50 0 83 -35t33 -91q0 -9 -31 -9q-35 0 -35 6q0 30 -14.5 48.5t-35.5 18.5t-36 -19t-15 -41v-232q0 -61 51 -61q50 0 50 61q0 4 33 4t33 -7z" />
    <glyph glyph-name="d" unicode="d" horiz-adv-x="297" 
d="M262 8q0 -8 -34 -8h-9.5t-8 -0.5t-5.5 0t-4 2t-1 3.5q0 22 -7 22q-2 0 -5.5 -6.5t-14 -13.5t-27.5 -7q-58 0 -87 33t-29 88v236q0 55 32.5 90t83.5 35q10 0 37 -13q6 -2 10 2.5t4 15.5v206q0 5 5 6t27 1q33 0 33 -8v-684zM196 128v232q0 22 -14.5 41t-35.5 19t-36 -19
t-15 -41v-232q0 -61 51 -61q50 0 50 61z" />
    <glyph glyph-name="e" unicode="e" horiz-adv-x="292" 
d="M262 125q0 -64 -31.5 -94.5t-84.5 -30.5q-51 0 -83.5 33.5t-32.5 91.5v235q0 55 33 88.5t83 33.5t83 -35t33 -87v-123q0 -5 -0.5 -7.5t-5 -5.5t-13.5 -3h-137q-11 0 -11 -18v-75q0 -29 14 -45t37 -16q50 0 50 61q0 6 35 6q20 0 25.5 -1.5t5.5 -7.5zM196 296v64
q0 24 -14.5 42t-35.5 18q-22 0 -36.5 -18.5t-14.5 -41.5v-64q0 -10 8 -12t40 -2q35 0 44 2t9 12z" />
    <glyph glyph-name="f" unicode="f" horiz-adv-x="170" 
d="M166 438q0 -19 -2 -24t-9 -5q-37 0 -45.5 -2.5t-8.5 -12.5v-376q0 -13 -3.5 -15.5t-24.5 -2.5t-25.5 2t-4.5 14v378q0 10 -5 13t-23 3q-2 0 -3.5 0.5t-2.5 1.5l-2 2t-1.5 3t-0.5 3.5v4.5v5v5.5v5.5q0 28 9 28q18 0 23.5 2.5t5.5 12.5v94q0 50 32 86t80 36q5 0 5 -21v-10
q0 -31 -5 -31q-19 0 -36.5 -17.5t-17.5 -42.5v-94q0 -11 8.5 -13t43.5 -2q13 0 13 -31z" />
    <glyph glyph-name="g" unicode="g" horiz-adv-x="297" 
d="M262 -75q0 -58 -28.5 -91.5t-87.5 -33.5q-54 0 -85 35t-31 90q0 5 31 5t32.5 -1.5t1.5 -3.5q0 -26 13.5 -42t37.5 -16q26 0 38 18t12 43v69q0 21 -6 22q-1 0 -3 -1q-2 -2 -8 -7.5t-13 -8t-20 -2.5q-49 0 -82.5 32t-33.5 90v237q0 54 31.5 88.5t89.5 34.5q19 0 32.5 -14
t14.5 -14q6 -1 7.5 3t1.5 16q0 4 3.5 5t22.5 1q29 0 29 -8v-546zM196 128v232q0 22 -14.5 41t-35.5 19q-23 0 -37 -18.5t-14 -41.5v-232q0 -30 14 -45.5t37 -15.5q50 0 50 61z" />
    <glyph glyph-name="h" unicode="h" horiz-adv-x="297" 
d="M267 9q0 -9 -31 -9q-35 0 -35 8v352q0 23 -14.5 41.5t-35.5 18.5q-22 0 -36.5 -18.5t-14.5 -41.5v-350q0 -10 -31 -10h-5q-29 0 -29 10v682q0 9 30 9q35 0 35 -8v-206q0 -11 4 -15.5t10 -2.5q27 13 37 13q52 0 84 -35t32 -90v-348z" />
    <glyph glyph-name="i" unicode="i" horiz-adv-x="140" 
d="M110 615q2 -23 -5 -34t-35 -14q-18 -1 -31 14.5t-11 35.5t10.5 31t31.5 10q17 -1 28 -13t12 -30zM102 18q0 -13 -5 -15.5t-29 -2.5q-22 0 -26 2t-4 14v449q0 11 6 13.5t24 2.5q16 0 21 -0.5t9 -4t4 -12.5v-446z" />
    <glyph glyph-name="j" unicode="j" horiz-adv-x="134" 
d="M107 615q0 -13 0.5 -23t-9 -16.5t-30.5 -8.5q-18 -2 -31.5 14t-11.5 36q2 14 4.5 21.5t12.5 14t26 5.5q35 -2 39 -43zM99 -78q0 -49 -33.5 -85.5t-81.5 -36.5q-6 0 -6 32q0 30 6 30q18 0 34.5 19t16.5 41v542q0 9 6 13t27 4q31 0 31 -15v-544z" />
    <glyph glyph-name="k" unicode="k" horiz-adv-x="266" 
d="M266 12q1 -3 -2 -5.5t-10.5 -4.5t-18.5 -2q-24 0 -30.5 2t-10.5 12l-69 182q-9 25 -18 17q-8 -7 -8 -23v-172q0 -12 -5.5 -14.5t-28.5 -2.5q-20 0 -25 2.5t-5 12.5v669q0 14 30 14q12 0 18 -0.5t11 -4t5 -10.5v-349q0 -17 5 -17l2 2l11 21l57 129l2 4t2.5 3t3.5 1.5
t3.5 1t5 0.5h5.5h7h8h17.5t12 -1t8.5 -3t0 -6l-76 -162q-9 -20 -9 -26q0 -14 6 -27z" />
    <glyph glyph-name="l" unicode="l" horiz-adv-x="134" 
d="M99 16q0 -11 -5.5 -13.5t-28.5 -2.5q-19 0 -24.5 2t-5.5 12v670q0 9 6.5 12t23.5 3q13 0 19 -1t10.5 -4.5t4.5 -10.5v-667z" />
    <glyph glyph-name="m" unicode="m" horiz-adv-x="399" 
d="M369 10q0 -7 -5 -8.5t-24 -1.5q-37 0 -37 10v343q0 23 -1.5 34t-10 21t-26.5 10q-19 0 -24.5 -14t-5.5 -46v-348q0 -10 -32 -10q-34 0 -34 10v351q0 57 -35 57q-20 0 -27 -15t-7 -45v-348q0 -6 -6 -8t-28 -2q-20 0 -25.5 2t-5.5 8v462q0 5 5 6.5t24 1.5q30 -5 32 -10
l2 -30q3 11 17 25.5t29 14.5q25 0 39 -9t18 -18.5t5 -9.5t7 9.5t20.5 18.5t37.5 9q61 0 79.5 -31t18.5 -96v-343z" />
    <glyph glyph-name="n" unicode="n" horiz-adv-x="297" 
d="M267 9q0 -6 -5.5 -7.5t-24.5 -1.5q-35 0 -35 8v345q0 65 -35 65q-29 0 -48 -16t-19 -44v-348q0 -7 -6 -8.5t-28 -1.5q-20 0 -25.5 1.5t-5.5 8.5v462q0 5 5 6.5t27 1.5q20 0 24.5 -1.5t4.5 -6.5q0 -40 3 -40q1 0 3 4q26 44 65 44q100 0 100 -127v-344z" />
    <glyph glyph-name="o" unicode="o" horiz-adv-x="292" 
d="M262 125q0 -64 -31.5 -94.5t-84.5 -30.5q-51 0 -83.5 33t-32.5 92v235q0 55 33 88.5t83 33.5t83 -35t33 -87v-235zM196 128v232q0 22 -14.5 41t-35.5 19t-36 -19t-15 -41v-232q0 -61 51 -61q50 0 50 61z" />
    <glyph glyph-name="p" unicode="p" horiz-adv-x="297" 
d="M267 122q0 -58 -30 -90t-86 -32q-16 0 -37 10q-6 2 -10 -2.5t-4 -15.5v-184q0 -6 -5 -7t-23 -1h-7h-14t-8.5 1t-6 3t-1.5 5v662q0 6 5.5 7.5t26.5 1.5h9.5t6.5 0.5t4 0t3 -0.5t2.5 -1t2 -2t2.5 -4q1 -2 1 -12t5 -12q1 -1 1.5 0.5l1.5 4.5t3 6.5t5 7.5t8 7t12.5 5t16.5 2
q53 0 84.5 -36.5t31.5 -87.5v-236zM201 128v232q0 22 -14.5 41t-35.5 19t-36 -19t-15 -41v-232q0 -30 14 -45.5t37 -15.5q50 0 50 61z" />
    <glyph glyph-name="q" unicode="q" horiz-adv-x="297" 
d="M262 -191q0 -9 -29 -9q-36 0 -36 8v184q0 11 -4 15.5t-10 2.5q-21 -10 -37 -10q-52 0 -84 31.5t-32 90.5v238q0 55 33 88.5t83 33.5q9 0 16.5 -2t12.5 -5t8 -7t5 -7.5t3 -6.5l1.5 -4.5t1.5 -0.5q6 3 6 21q0 7 5.5 8.5t26.5 1.5h14t8.5 -1t6 -3t1.5 -5v-662zM196 128v232
q0 22 -14.5 41t-35.5 19t-36 -19t-15 -41v-232q0 -61 51 -61q50 0 50 61z" />
    <glyph glyph-name="r" unicode="r" horiz-adv-x="187" 
d="M181 447q0 -32 -6 -32q-24 0 -49.5 -18t-25.5 -44v-343q0 -7 -6.5 -8.5t-28.5 -1.5q-30 0 -30 10v462q0 5 5.5 6t26.5 1q28 -3 29 -7q0 -4 0.5 -14t0.5 -13q0 -14 1 -14l3 6q9 19 32.5 32t41.5 13q6 0 6 -35z" />
    <glyph glyph-name="s" unicode="s" horiz-adv-x="262" 
d="M242 116q0 -51 -31 -83.5t-80 -32.5q-51 0 -81 29.5t-30 86.5q0 8 31 8q36 0 36 -5q0 -52 44 -52q46 0 46 55q0 33 -18.5 57.5t-55.5 52.5q-39 31 -59.5 59.5t-20.5 69.5q0 47 25.5 83t81.5 36q52 0 79.5 -36.5t27.5 -81.5q0 -6 -35 -6q-32 0 -32 8q0 24 -11.5 39
t-28.5 15q-20 0 -31 -16t-11 -37q0 -24 15.5 -43.5t48.5 -46.5q42 -34 66 -70t24 -89z" />
    <glyph glyph-name="t" unicode="t" horiz-adv-x="181" 
d="M166 31q0 -31 -5 -31q-55 0 -85.5 28.5t-30.5 73.5v291q0 14 -5.5 19.5t-22.5 5.5q-12 0 -12 23q0 26 11 26q20 0 24.5 4.5t4.5 17.5v51q0 8 5.5 10t24.5 2q22 0 28.5 -2t6.5 -12v-49q0 -12 6.5 -15.5t30.5 -3.5q9 0 12 -5.5t3 -20.5q0 -18 -2 -23t-9 -5
q-26 0 -33.5 -4.5t-7.5 -18.5v-291q0 -18 14 -29t37 -11q5 0 5 -31z" />
    <glyph glyph-name="u" unicode="u" horiz-adv-x="297" 
d="M262 7q0 -5 -4.5 -6t-24.5 -1q-32 0 -32 7q0 4 -0.5 14t-0.5 13v5q0 9 -1 9t-4 -5q-26 -44 -65 -44q-100 0 -100 127v344q0 10 29 10q36 0 36 -9v-345q0 -65 35 -65q31 0 49 17t18 43v348q0 7 5.5 8.5t26.5 1.5q33 0 33 -10v-462z" />
    <glyph glyph-name="v" unicode="v" horiz-adv-x="253" 
d="M243 463l-68 -447q-1 -10 -11 -13t-36 -3q-20 0 -27 0.5t-15 4.5t-9 14l-67 448q-1 8 5 10t25 2q22 0 29.5 -2.5t8.5 -11.5l42 -344q0 -10 6 -10q4 0 7 11l44 344q1 14 32 14q22 0 28.5 -3.5t5.5 -13.5z" />
    <glyph glyph-name="w" unicode="w" horiz-adv-x="377" 
d="M367 466l-70 -456q-1 -10 -12 -11t-27 1q-32 2 -34 13q-6 40 -16 113.5t-15 106.5q-3 11 -7 11q-6 0 -6 -10l-31 -225q-1 -9 -10 -10t-25 1q-2 0 -7 0.5t-8 0.5t-7 1t-6.5 2t-5 3.5t-2.5 5.5l-68 448q-4 7 -0.5 12t24.5 5q18 0 25 -2t8 -3.5t2 -10.5l37 -301q0 -10 6 -10
q4 0 7 11l40 305v3.5t1 3t1.5 2.5t2.5 1t4.5 1t6.5 0.5t10 0.5q19 0 23.5 -2t5.5 -10l39 -306q0 -10 6 -10q4 0 7 11l20.5 150l21.5 157q1 7 5 9t22 2q23 0 28.5 -2.5t3.5 -11.5z" />
    <glyph glyph-name="x" unicode="x" horiz-adv-x="253" 
d="M243 12q1 -2 1 -4t-1 -3.5t-3.5 -2t-6.5 -1.5t-10 -1h-14q-22 0 -26.5 1.5t-6.5 9.5q-20 72 -45 145q-3 9 -6 9q-5 0 -7 -10l-45 -142q-3 -10 -8 -11.5t-26 -1.5t-26.5 2t-2.5 11l67 207q3 12 3 23q0 14 -4 27l-60 197q-2 6 4 9t25 3q24 0 29.5 -2t7.5 -11l37 -137
q3 -9 6 -9q2 0 5 10q32 118 37 141q1 6 5 7t20 1h8q15 0 23 -1.5t9.5 -4t0.5 -6.5l-59 -196q-4 -13 -4 -27t3 -22z" />
    <glyph glyph-name="y" unicode="y" horiz-adv-x="250" 
d="M240 466l-137 -653q-1 -9 -7 -11t-26 -2q-17 0 -22 2.5t-3 13.5l39 187q2 9 2 36q0 15 -3 33l-78 397q-1 7 5.5 9t27.5 2t27.5 -2.5t7.5 -11.5l43 -283q0 -10 6 -10q4 0 7 11l46 284q1 8 7 10t29 2q18 0 24 -3t5 -11z" />
    <glyph glyph-name="z" unicode="z" horiz-adv-x="245" 
d="M230 28q0 -24 -4 -26q-3 -2 -11 -2h-182q-12 0 -15 6.5t-3 32.5q0 37 2 43l134 302q11 27 -2 37q-5 2 -26 2h-86q-11 0 -13.5 5t-2.5 22q0 19 2 24.5t11 5.5h175q15 0 18 -6t3 -34q0 -22 -5 -37l-137 -316q-3 -6 -3.5 -15.5t3.5 -12.5q5 -3 35 -3h92q9 0 12 -5.5t3 -22.5
z" />
    <glyph glyph-name="braceleft" unicode="{" horiz-adv-x="192" 
d="M194 775q0 -32 -7 -32q-22 0 -36.5 -18.5t-14.5 -41.5v-243q0 -32 -9 -52.5t-17.5 -29t-8.5 -9.5t8.5 -9.5t17.5 -29.5t9 -52v-235q0 -30 14 -45.5t37 -15.5q5 0 5 -28q0 -39 -5 -39q-51 0 -83.5 33.5t-32.5 91.5v238q0 22 -16.5 41t-34.5 19q-5 0 -5 30q0 32 5 32
q19 0 35 19t16 41v243q0 55 33 88.5t83 33.5q7 0 7 -30z" />
    <glyph glyph-name="bar" unicode="|" horiz-adv-x="144" 
d="M104 -55q0 -11 -5 -13t-29 -2h-4q-12 0 -16.5 0.5t-7 3t-2.5 9.5v812q0 10 5 12.5t25 2.5q23 0 28.5 -2.5t5.5 -13.5v-809z" />
    <glyph glyph-name="braceright" unicode="}" horiz-adv-x="192" 
d="M179 349q0 -31 -6 -31q-18 0 -34.5 -19t-16.5 -41v-238q0 -58 -32.5 -91.5t-83.5 -33.5q-6 0 -6 37q0 30 6 30q23 0 37 16t14 45v235q0 31 8.5 52t17.5 29.5t9 9.5t-9 9t-17.5 29t-8.5 53v243q0 23 -14.5 41.5t-36.5 18.5q-7 0 -7 33q0 29 7 29q50 0 83 -33.5t33 -88.5
v-243q0 -22 16 -41t35 -19q6 0 6 -31z" />
    <glyph glyph-name="asciitilde" unicode="~" horiz-adv-x="298" 
d="M284 325q2 -5 -36 -43q-27 -27 -58 -27q-23 0 -47 24q-30 30 -45 30q-13 0 -32 -22q-10 -11 -17 -17t-10.5 -8t-5.5 0q-4 5 -10 17t-9 16q-8 13 34 50q29 26 59 26q9 0 16.5 -3t11 -6t12 -11t13.5 -12q26 -22 37 -22q14 0 38 28q20 23 24 22q2 0 3 -2q3 -5 22 -40z" />
    <glyph glyph-name="exclamdown" unicode="&#xa1;" horiz-adv-x="144" 
d="M39 413q0 11 6 14.5t28 3.5q20 0 25 -3t5 -14v-497q0 -11 -5.5 -14t-24.5 -3q-23 0 -28.5 3t-5.5 16v494zM31 559q1 17 12 28t28 13q23 1 31.5 -9t10.5 -30t-11 -36.5t-31 -13.5q-21 2 -30.5 8.5t-10 16.5t0.5 23z" />
    <glyph glyph-name="cent" unicode="&#xa2;" horiz-adv-x="278" 
d="M258 125q0 -100 -80 -122q-5 -2 -5 -10v-49q0 -11 -5 -13t-29 -2h-4q-12 0 -16.5 0.5t-7 3t-2.5 9.5v53q0 8 -5 10q-78 26 -78 120v232q0 92 80 120q3 1 3 11v50q0 10 5 12.5t25 2.5q23 0 28.5 -2.5t5.5 -13.5v-48q0 -10 3 -11q82 -20 82 -122q0 -9 -31 -9q-35 0 -35 6
q0 61 -50 61q-22 0 -36.5 -15t-14.5 -46v-225q0 -61 51 -61q50 0 50 61q0 4 33 4t33 -7z" />
    <glyph glyph-name="sterling" unicode="&#xa3;" horiz-adv-x="288" 
d="M268 28q0 -17 -2 -22.5t-10 -5.5h-175q-35 0 -40 4q-6 5 -6 34v544q0 45 31 81.5t85 36.5q56 0 86 -39t30 -79v-45q0 -11 -33 -11h-4q-30 0 -30 11v47q0 18 -14 36t-35 18q-22 0 -36.5 -17t-14.5 -36v-176q0 -21 6 -26q6 -4 22 -4h49q9 0 11.5 -6t2.5 -23q0 -16 -2.5 -22
t-11.5 -6h-45q-19 0 -25 -3q-7 -5 -7 -29v-195q0 -32 5 -35q7 -4 30 -4h120q9 0 11 -5.5t2 -22.5z" />
    <glyph glyph-name="currency" unicode="&#xa4;" horiz-adv-x="287" 
d="M151 0q-54 0 -85 36t-31 80v466q0 45 31 81.5t85 36.5q56 0 86 -39t30 -79v-45q0 -11 -33 -11h-4q-30 0 -30 11v47q0 18 -14 36t-35 18q-22 0 -36.5 -17t-14.5 -36v-111q0 -21 6 -26q6 -4 22 -4q9 0 27.5 0.5t22.5 0.5q14 0 14 -30q0 -16 -2.5 -22t-11.5 -6h-49
q-19 0 -25 -3q-7 -5 -7 -29q0 -27 9 -29q7 -2 19 -2h52q14 0 14 -31q0 -15 -2.5 -19.5t-11.5 -4.5h-45q-19 0 -25 -3q-7 -5 -7 -29v-115q0 -23 12.5 -39t38.5 -16q24 0 36.5 15t12.5 37v59q0 8 31 8h10q26 0 26 -8v-61q0 -51 -29 -84t-87 -33z" />
    <glyph glyph-name="yen" unicode="&#xa5;" horiz-adv-x="271" 
d="M260 685q-26 -120 -63 -274q-3 -11 6 -11q46 0 46 -16q0 -27 -1 -31q-1 -6 -2 -8t-6.5 -5t-14.5 -3h-36q-9 0 -10 -9q-4 -24 -5 -33q0 -3 -1.5 -10t-2.5 -15t-1 -16q0 -6 2 -8t12 -2q31 0 46 -2t17.5 -4.5t2.5 -9.5q0 -20 3 -31q2 -7 -1.5 -11.5t-17.5 -4.5h-56
q-8 0 -8 -9v-164q0 -8 -35 -8q-32 0 -32 11q0 27 0.5 79.5t0.5 79.5q0 8 -1.5 10t-7.5 2h-51q-7 0 -16 4.5t-7 14.5q2 8 0 28q-1 9 6.5 12t24.5 3h45q7 0 7 10t-5 38q0 5 -7 37q-1 9 -10 9h-38q-7 0 -16 4.5t-7 14.5q2 8 0 28q-1 9 9 12t41 3q8 0 4 14l-63 271
q-2 9 5.5 11.5t23.5 2.5q23 0 28.5 -2.5t7.5 -13.5q26 -133 53 -253q3 -9 6 -9q2 0 5 10q37 162 53 252q2 10 7.5 13t24.5 3q22 0 29.5 -2.5t5.5 -11.5z" />
    <glyph glyph-name="brokenbar" unicode="&#xa6;" 
d="M363 359v-4q0 -12 -0.5 -16.5t-3 -7t-9.5 -2.5h-44q-9 0 -11 -2.5t-2 -10.5v-178q0 -28 -23 -28h-42q-7 0 -7 -9v-86q0 -11 -5 -13t-29 -2h-4q-12 0 -16.5 0.5t-7 3t-2.5 9.5v90q0 7 -6 7h-41q-11 0 -18 9.5t-7 19.5v177v6.5t-1.5 3.5t-4 2.5t-7.5 0.5h-42q-10 0 -12.5 5
t-2.5 25q0 23 2.5 28.5t13.5 5.5h42q9 0 10.5 3.5t1.5 12.5v151q0 9 11 19.5t19 10.5h36q6 0 6 7v88q0 10 5 12.5t25 2.5q23 0 28.5 -2.5t5.5 -13.5v-86q0 -8 7 -8h40q10 0 17.5 -8.5t7.5 -21.5v-154q0 -5 0.5 -7.5t3 -4t8.5 -1.5h43q11 0 13 -5t2 -29zM228 183v335
q0 15 -19 15h-40q-19 0 -19 -15v-335q0 -17 17 -17h44q17 0 17 17z" />
    <glyph glyph-name="section" unicode="&#xa7;" horiz-adv-x="279" 
d="M256 52q0 -56 -33 -89t-83 -33q-51 0 -83.5 29.5t-32.5 86.5v56q0 8 6.5 10.5t26.5 2.5q34 0 34 -11v-55q0 -21 12 -36.5t37 -15.5q51 0 51 56q0 34 -17 64t-41 53.5l-48 47t-41 55.5t-17 68q0 64 54 90q4 2 -1 9q-53 82 -53 145q0 43 28 79t84 36q53 0 82.5 -37
t29.5 -81v-46q0 -8 -35 -8q-32 0 -32 9v47q0 24 -14 39t-31 15q-20 0 -33.5 -16.5t-13.5 -36.5q0 -33 17 -62.5t41 -53l48 -49t41 -62t17 -80.5q0 -34 -8.5 -51.5t-32.5 -36.5q-8 -6 -5 -10l28.5 -49.5t12.5 -33t5 -45.5zM190 285q1 31 -13 53t-42 49q-10 8 -16 5
q-23 -6 -26 -53q-1 -40 68 -106q8 -4 11 -3q14 5 18 55z" />
    <glyph glyph-name="dieresis" unicode="&#xa8;" horiz-adv-x="286" 
d="M251 580q1 -13 0.5 -23t-10 -16.5t-30.5 -8.5q-18 -3 -31 13.5t-11 36.5t10.5 31t31.5 10q17 -1 28 -13t12 -30zM116 580q1 -13 0.5 -23t-10 -16.5t-30.5 -8.5q-18 -3 -31 13.5t-11 36.5t10.5 31t31.5 10q17 -1 28 -13t12 -30z" />
    <glyph glyph-name="copyright" unicode="&#xa9;" horiz-adv-x="554" 
d="M521 458q0 -101 -71.5 -171.5t-172.5 -70.5t-172 70.5t-71 171.5q0 100 71 171.5t172 71.5t172.5 -71t71.5 -172zM469 459q0 79 -55.5 135t-134.5 56t-135 -56t-56 -135t56 -134t135 -55t134.5 55t55.5 134zM363 409q0 -35 -25.5 -59.5t-58.5 -24.5t-58.5 22.5
t-25.5 61.5v106q0 39 27 61.5t57 22.5q31 0 57.5 -23t26.5 -57q0 -7 -23 -7q-22 0 -22 3q0 17 -12.5 27t-26.5 10q-13 0 -26.5 -9.5t-13.5 -27.5v-105q0 -17 12 -26t28 -9q15 0 27 8.5t12 25.5q0 4 22 4q21 0 22 -1t1 -3z" />
    <glyph glyph-name="ordfeminine" unicode="&#xaa;" horiz-adv-x="143" 
d="M118 513q0 -5 -13 -5q-12 0 -12 4q0 7 -3 7l-2 -3q-1 -2 -5.5 -5t-11.5 -3q-46 0 -46 49v94q0 25 14 37.5t32 12.5q10 0 16 -6q5 -4 5 4q0 2 12 2q14 0 14 -4v-184zM88 561v89q0 7 -5 13t-12 6q-6 0 -11 -6.5t-5 -12.5v-89q0 -19 16 -19q17 0 17 19zM123 465
q0 -19 -3 -19h-91q-6 0 -7.5 3.5t-1.5 16.5q0 18 10 18h89q4 0 4 -19z" />
    <glyph glyph-name="guillemotleft" unicode="&#xab;" horiz-adv-x="267" 
d="M242 135q10 -21 -5 -24q-5 -1 -28 -13q-6 -4 -13.5 4t-17.5 28q-50 103 -50 117q0 9 50 118q9 19 17 27.5t14 4.5q23 -11 28 -13q15 -3 5 -24q-50 -104 -50 -113q0 -14 50 -112zM129 135q10 -21 -5 -24q-6 -2 -12.5 -6.5t-10.5 -6.5q-15 -10 -36 32q-50 103 -50 117
q0 9 50 118q8 18 18.5 27.5t17.5 4.5q4 -2 10.5 -6.5t12.5 -6.5q15 -3 5 -24q-50 -104 -50 -113q0 -14 50 -112z" />
    <glyph glyph-name="logicalnot" unicode="&#xac;" 
d="M363 359v-4q0 -12 -0.5 -16.5t-3 -7t-9.5 -2.5h-44q-9 0 -11 -2.5t-2 -10.5v-178q0 -28 -23 -28h-42q-7 0 -7 -9v-86q0 -11 -5 -13t-29 -2h-4q-12 0 -16.5 0.5t-7 3t-2.5 9.5v90q0 7 -6 7h-41q-11 0 -18 9.5t-7 19.5v177v6.5t-1.5 3.5t-4 2.5t-7.5 0.5h-42q-10 0 -12.5 5
t-2.5 25q0 23 2.5 28.5t13.5 5.5h42q9 0 10.5 3.5t1.5 12.5v151q0 9 11 19.5t19 10.5h36q6 0 6 7v88q0 10 5 12.5t25 2.5q23 0 28.5 -2.5t5.5 -13.5v-86q0 -8 7 -8h40q10 0 17.5 -8.5t7.5 -21.5v-154q0 -5 0.5 -7.5t3 -4t8.5 -1.5h43q11 0 13 -5t2 -29zM228 183v335
q0 15 -19 15h-40q-19 0 -19 -15v-335q0 -17 17 -17h44q17 0 17 17z" />
    <glyph glyph-name="registered" unicode="&#xae;" horiz-adv-x="554" 
d="M521 457q0 -100 -71.5 -171t-172.5 -71t-172 71t-71 171q0 101 71 172.5t172 71.5t172.5 -71.5t71.5 -172.5zM469 459q0 79 -55.5 134.5t-134.5 55.5t-135 -55.5t-56 -134.5t56 -134t135 -55t134.5 55t55.5 134zM367 333q0 -6 -24 -6t-24 6v84q0 9 -9.5 17t-26.5 8
q-37 0 -37 -10v-99q0 -6 -25 -6q-22 0 -22 6v256q0 7 4 10q6 2 17 2h63q34 0 54.5 -14.5t25 -28t4.5 -27.5v-14q0 -20 -10.5 -32.5t-20.5 -14.5l-11 -3l11 -2q10 -2 20.5 -11.5t10.5 -28.5v-92zM315 512v17q0 17 -10 22.5t-38 5.5h-21v-13v-49q0 -6 3 -7q4 -1 20 -1
q27 0 36.5 5t9.5 20z" />
    <glyph glyph-name="macron" unicode="&#xaf;" horiz-adv-x="286" 
d="M234 535q-3 0 -28.5 -1.5t-62.5 -1.5q-33 0 -58 1t-28 1t-3.5 14t2.5 27.5t6 13.5q4 0 29 1t55 1q29 0 57 1.5t29 1.5q3 0 5 -15t1 -29.5t-4 -14.5z" />
    <glyph glyph-name="macron" unicode="&#x2c9;" horiz-adv-x="286" 
d="M234 535q-3 0 -28.5 -1.5t-62.5 -1.5q-33 0 -58 1t-28 1t-3.5 14t2.5 27.5t6 13.5q4 0 29 1t55 1q29 0 57 1.5t29 1.5q3 0 5 -15t1 -29.5t-4 -14.5z" />
    <glyph glyph-name="degree" unicode="&#xb0;" horiz-adv-x="256" 
d="M217 603q-6 -53 -18 -70q-19 -27 -68 -26q-41 2 -68 33.5t-22 74.5q3 43 21.5 66.5t68.5 20.5q38 -1 63.5 -30.5t22.5 -68.5zM175 600q4 26 -8 41.5t-36 15.5q-23 0 -34 -8t-12.5 -16t-1.5 -24v-4q0 -47 48 -53q15 0 23.5 3t13 13t5 13.5t2.5 18.5z" />
    <glyph glyph-name="plusminus" unicode="&#xb1;" horiz-adv-x="473" 
d="M436 18q0 -13 -5 -15.5t-30 -2.5q-22 0 -26.5 2t-4.5 14v556q0 61 -50 61q-48 0 -50 -61v-88q0 -11 8.5 -13t42.5 -2q13 0 13 -31q0 -19 -2 -24t-9 -5q-37 0 -45.5 -2.5t-8.5 -12.5v-376q0 -13 -5.5 -15.5t-27.5 -2.5q-20 0 -25 2t-5 14v378q0 10 -5 12.5t-23 2.5h-23
q-35 0 -42 -2t-7 -13v-376q0 -13 -5.5 -15.5t-27.5 -2.5q-21 0 -25.5 2t-4.5 14v378q0 10 -5 13t-23 3q-2 0 -3.5 0.5t-2.5 1.5l-2 2t-1.5 3t-0.5 3.5v4.5v5v5.5v5.5q0 28 9 28q18 0 23.5 2.5t5.5 12.5v94q0 51 32 86.5t86 35.5q5 0 5 -21v-10q0 -31 -5 -31q-19 0 -37 -17.5
t-18 -42.5v-94q0 -11 7 -13t40 -2h24q18 0 23 2.5t5 12.5v92q0 57 31.5 91t83.5 34t84 -30.5t32 -95.5v-557z" />
    <glyph glyph-name="twosuperior" unicode="&#xb2;" 
d="M363 359v-4q0 -12 -0.5 -16.5t-3 -7t-9.5 -2.5h-44q-9 0 -11 -2.5t-2 -10.5v-178q0 -28 -23 -28h-42q-7 0 -7 -9v-86q0 -11 -5 -13t-29 -2h-4q-12 0 -16.5 0.5t-7 3t-2.5 9.5v90q0 7 -6 7h-41q-11 0 -18 9.5t-7 19.5v177v6.5t-1.5 3.5t-4 2.5t-7.5 0.5h-42q-10 0 -12.5 5
t-2.5 25q0 23 2.5 28.5t13.5 5.5h42q9 0 10.5 3.5t1.5 12.5v151q0 9 11 19.5t19 10.5h36q6 0 6 7v88q0 10 5 12.5t25 2.5q23 0 28.5 -2.5t5.5 -13.5v-86q0 -8 7 -8h40q10 0 17.5 -8.5t7.5 -21.5v-154q0 -5 0.5 -7.5t3 -4t8.5 -1.5h43q11 0 13 -5t2 -29zM228 183v335
q0 15 -19 15h-40q-19 0 -19 -15v-335q0 -17 17 -17h44q17 0 17 17z" />
    <glyph glyph-name="threesuperior" unicode="&#xb3;" 
d="M363 359v-4q0 -12 -0.5 -16.5t-3 -7t-9.5 -2.5h-44q-9 0 -11 -2.5t-2 -10.5v-178q0 -28 -23 -28h-42q-7 0 -7 -9v-86q0 -11 -5 -13t-29 -2h-4q-12 0 -16.5 0.5t-7 3t-2.5 9.5v90q0 7 -6 7h-41q-11 0 -18 9.5t-7 19.5v177v6.5t-1.5 3.5t-4 2.5t-7.5 0.5h-42q-10 0 -12.5 5
t-2.5 25q0 23 2.5 28.5t13.5 5.5h42q9 0 10.5 3.5t1.5 12.5v151q0 9 11 19.5t19 10.5h36q6 0 6 7v88q0 10 5 12.5t25 2.5q23 0 28.5 -2.5t5.5 -13.5v-86q0 -8 7 -8h40q10 0 17.5 -8.5t7.5 -21.5v-154q0 -5 0.5 -7.5t3 -4t8.5 -1.5h43q11 0 13 -5t2 -29zM228 183v335
q0 15 -19 15h-40q-19 0 -19 -15v-335q0 -17 17 -17h44q17 0 17 17z" />
    <glyph glyph-name="acute" unicode="&#xb4;" horiz-adv-x="286" 
d="M219 627q11 -12 -10 -28l-107 -62q-20 -11 -24 5q-1 5 -13 28q-10 15 32 36l73 43q29 16 35 3q9 -19 14 -25z" />
    <glyph glyph-name="mu" unicode="&#xb5;" 
d="M363 359v-4q0 -12 -0.5 -16.5t-3 -7t-9.5 -2.5h-44q-9 0 -11 -2.5t-2 -10.5v-178q0 -28 -23 -28h-42q-7 0 -7 -9v-86q0 -11 -5 -13t-29 -2h-4q-12 0 -16.5 0.5t-7 3t-2.5 9.5v90q0 7 -6 7h-41q-11 0 -18 9.5t-7 19.5v177v6.5t-1.5 3.5t-4 2.5t-7.5 0.5h-42q-10 0 -12.5 5
t-2.5 25q0 23 2.5 28.5t13.5 5.5h42q9 0 10.5 3.5t1.5 12.5v151q0 9 11 19.5t19 10.5h36q6 0 6 7v88q0 10 5 12.5t25 2.5q23 0 28.5 -2.5t5.5 -13.5v-86q0 -8 7 -8h40q10 0 17.5 -8.5t7.5 -21.5v-154q0 -5 0.5 -7.5t3 -4t8.5 -1.5h43q11 0 13 -5t2 -29zM228 183v335
q0 15 -19 15h-40q-19 0 -19 -15v-335q0 -17 17 -17h44q17 0 17 17z" />
    <glyph glyph-name="mu" unicode="&#x3bc;" 
d="M363 359v-4q0 -12 -0.5 -16.5t-3 -7t-9.5 -2.5h-44q-9 0 -11 -2.5t-2 -10.5v-178q0 -28 -23 -28h-42q-7 0 -7 -9v-86q0 -11 -5 -13t-29 -2h-4q-12 0 -16.5 0.5t-7 3t-2.5 9.5v90q0 7 -6 7h-41q-11 0 -18 9.5t-7 19.5v177v6.5t-1.5 3.5t-4 2.5t-7.5 0.5h-42q-10 0 -12.5 5
t-2.5 25q0 23 2.5 28.5t13.5 5.5h42q9 0 10.5 3.5t1.5 12.5v151q0 9 11 19.5t19 10.5h36q6 0 6 7v88q0 10 5 12.5t25 2.5q23 0 28.5 -2.5t5.5 -13.5v-86q0 -8 7 -8h40q10 0 17.5 -8.5t7.5 -21.5v-154q0 -5 0.5 -7.5t3 -4t8.5 -1.5h43q11 0 13 -5t2 -29zM228 183v335
q0 15 -19 15h-40q-19 0 -19 -15v-335q0 -17 17 -17h44q17 0 17 17z" />
    <glyph glyph-name="paragraph" unicode="&#xb6;" horiz-adv-x="316" 
d="M279 14q0 -10 -2.5 -12t-14.5 -2q-20 0 -23.5 2t-3.5 14v604q0 10 -2.5 13t-11.5 3q-8 0 -8 -18v-604q0 -10 -3.5 -12t-22.5 -2q-13 0 -15.5 2t-2.5 14v253q0 21 -19 21q-14 0 -33 7.5t-40.5 22.5t-36.5 44.5t-15 66.5v130q0 64 44.5 101.5t73.5 37.5h106q16 0 23 -6
q7 -7 7 -25v-655zM168 387v223q0 24 -11 24q-21 0 -44 -20.5t-23 -52.5v-131q0 -30 23 -52t36 -22q9 0 12 2q7 4 7 29z" />
    <glyph glyph-name="periodcentered" unicode="&#xb7;" horiz-adv-x="124" 
d="M102 393q1 -13 0.5 -23t-10 -16.5t-30.5 -8.5q-18 -3 -31 13.5t-11 36.5t10.5 31t31.5 10q17 -1 28 -13t12 -30z" />
    <glyph glyph-name="periodcentered" unicode="&#x2219;" horiz-adv-x="124" 
d="M102 393q1 -13 0.5 -23t-10 -16.5t-30.5 -8.5q-18 -3 -31 13.5t-11 36.5t10.5 31t31.5 10q17 -1 28 -13t12 -30z" />
    <glyph glyph-name="cedilla" unicode="&#xb8;" horiz-adv-x="286" 
d="M162 -23q0 -31 -22 -54t-53 -23q-3 0 -3 20q0 19 3 19q12 0 22.5 12t10.5 26v34q0 6 22 6q20 0 20 -5v-35z" />
    <glyph glyph-name="onesuperior" unicode="&#xb9;" 
d="M363 359v-4q0 -12 -0.5 -16.5t-3 -7t-9.5 -2.5h-44q-9 0 -11 -2.5t-2 -10.5v-178q0 -28 -23 -28h-42q-7 0 -7 -9v-86q0 -11 -5 -13t-29 -2h-4q-12 0 -16.5 0.5t-7 3t-2.5 9.5v90q0 7 -6 7h-41q-11 0 -18 9.5t-7 19.5v177v6.5t-1.5 3.5t-4 2.5t-7.5 0.5h-42q-10 0 -12.5 5
t-2.5 25q0 23 2.5 28.5t13.5 5.5h42q9 0 10.5 3.5t1.5 12.5v151q0 9 11 19.5t19 10.5h36q6 0 6 7v88q0 10 5 12.5t25 2.5q23 0 28.5 -2.5t5.5 -13.5v-86q0 -8 7 -8h40q10 0 17.5 -8.5t7.5 -21.5v-154q0 -5 0.5 -7.5t3 -4t8.5 -1.5h43q11 0 13 -5t2 -29zM228 183v335
q0 15 -19 15h-40q-19 0 -19 -15v-335q0 -17 17 -17h44q17 0 17 17z" />
    <glyph glyph-name="ordmasculine" unicode="&#xba;" horiz-adv-x="143" 
d="M118 558q0 -50 -47 -50q-20 0 -33 13.5t-13 36.5v94q0 22 13 35.5t33 13.5t33.5 -14t13.5 -35v-94zM123 465q0 -19 -3 -19h-91q-6 0 -7.5 3.5t-1.5 16.5q0 18 10 18h89q4 0 4 -19zM87 561v89q0 7 -4.5 13t-11.5 6t-11.5 -6t-4.5 -13v-89q0 -19 16 -19t16 19z" />
    <glyph glyph-name="guillemotright" unicode="&#xbb;" horiz-adv-x="267" 
d="M251 247q0 -14 -50 -117q-21 -42 -36 -32q-4 2 -10.5 6.5t-12.5 6.5q-15 3 -5 24q50 98 50 112q0 9 -50 113q-10 21 5 24q6 2 12.5 6.5t10.5 6.5q7 5 17.5 -4.5t18.5 -27.5q50 -109 50 -118zM138 247q0 -14 -50 -117q-10 -20 -17.5 -28t-13.5 -4q-23 12 -28 13
q-15 3 -5 24q50 98 50 112q0 9 -50 113q-10 21 5 24q5 2 28 13q6 4 14 -4.5t17 -27.5q50 -109 50 -118z" />
    <glyph glyph-name="onequarter" unicode="&#xbc;" 
d="M363 359v-4q0 -12 -0.5 -16.5t-3 -7t-9.5 -2.5h-44q-9 0 -11 -2.5t-2 -10.5v-178q0 -28 -23 -28h-42q-7 0 -7 -9v-86q0 -11 -5 -13t-29 -2h-4q-12 0 -16.5 0.5t-7 3t-2.5 9.5v90q0 7 -6 7h-41q-11 0 -18 9.5t-7 19.5v177v6.5t-1.5 3.5t-4 2.5t-7.5 0.5h-42q-10 0 -12.5 5
t-2.5 25q0 23 2.5 28.5t13.5 5.5h42q9 0 10.5 3.5t1.5 12.5v151q0 9 11 19.5t19 10.5h36q6 0 6 7v88q0 10 5 12.5t25 2.5q23 0 28.5 -2.5t5.5 -13.5v-86q0 -8 7 -8h40q10 0 17.5 -8.5t7.5 -21.5v-154q0 -5 0.5 -7.5t3 -4t8.5 -1.5h43q11 0 13 -5t2 -29zM228 183v335
q0 15 -19 15h-40q-19 0 -19 -15v-335q0 -17 17 -17h44q17 0 17 17z" />
    <glyph glyph-name="onehalf" unicode="&#xbd;" 
d="M363 359v-4q0 -12 -0.5 -16.5t-3 -7t-9.5 -2.5h-44q-9 0 -11 -2.5t-2 -10.5v-178q0 -28 -23 -28h-42q-7 0 -7 -9v-86q0 -11 -5 -13t-29 -2h-4q-12 0 -16.5 0.5t-7 3t-2.5 9.5v90q0 7 -6 7h-41q-11 0 -18 9.5t-7 19.5v177v6.5t-1.5 3.5t-4 2.5t-7.5 0.5h-42q-10 0 -12.5 5
t-2.5 25q0 23 2.5 28.5t13.5 5.5h42q9 0 10.5 3.5t1.5 12.5v151q0 9 11 19.5t19 10.5h36q6 0 6 7v88q0 10 5 12.5t25 2.5q23 0 28.5 -2.5t5.5 -13.5v-86q0 -8 7 -8h40q10 0 17.5 -8.5t7.5 -21.5v-154q0 -5 0.5 -7.5t3 -4t8.5 -1.5h43q11 0 13 -5t2 -29zM228 183v335
q0 15 -19 15h-40q-19 0 -19 -15v-335q0 -17 17 -17h44q17 0 17 17z" />
    <glyph glyph-name="threequarters" unicode="&#xbe;" 
d="M363 359v-4q0 -12 -0.5 -16.5t-3 -7t-9.5 -2.5h-44q-9 0 -11 -2.5t-2 -10.5v-178q0 -28 -23 -28h-42q-7 0 -7 -9v-86q0 -11 -5 -13t-29 -2h-4q-12 0 -16.5 0.5t-7 3t-2.5 9.5v90q0 7 -6 7h-41q-11 0 -18 9.5t-7 19.5v177v6.5t-1.5 3.5t-4 2.5t-7.5 0.5h-42q-10 0 -12.5 5
t-2.5 25q0 23 2.5 28.5t13.5 5.5h42q9 0 10.5 3.5t1.5 12.5v151q0 9 11 19.5t19 10.5h36q6 0 6 7v88q0 10 5 12.5t25 2.5q23 0 28.5 -2.5t5.5 -13.5v-86q0 -8 7 -8h40q10 0 17.5 -8.5t7.5 -21.5v-154q0 -5 0.5 -7.5t3 -4t8.5 -1.5h43q11 0 13 -5t2 -29zM228 183v335
q0 15 -19 15h-40q-19 0 -19 -15v-335q0 -17 17 -17h44q17 0 17 17z" />
    <glyph glyph-name="questiondown" unicode="&#xbf;" horiz-adv-x="270" 
d="M30 105q0 69 47 129q7 8 12 18.5l8.5 18t5.5 22t3.5 20.5t2 24.5t0.5 23.5v27.5v26.5q0 10 6 12.5t26 2.5q19 0 24 -2t5 -12q0 -57 -2 -90t-14 -74t-36 -73q-26 -34 -26 -82v-93q0 -45 52 -45q20 0 32 13t12 31v54q0 14 31 14q20 0 25.5 -2.5t5.5 -11.5v-56
q0 -39 -28.5 -70t-78.5 -31q-53 0 -83 30t-30 69v106zM101 562q1 17 12 29.5t28 13.5q23 1 31.5 -10t10.5 -31t-11 -36.5t-31 -13.5q-21 2 -30.5 8.5t-10 16.5t0.5 23z" />
    <glyph glyph-name="Agrave" unicode="&#xc0;" horiz-adv-x="255" 
d="M245 10q1 -8 -4 -9t-27 -1q-30 0 -33 4q-2 2 -3 8q-4 26 -11 79l-11 82q-1 9 -31 9q-27 0 -29 -6q-1 -1 -1 -3q-10 -93 -16 -163q-1 -8 -7.5 -9t-34.5 -1h-11t-8.5 1t-6 3t-1.5 5l47 373.5l39 303.5q1 10 6.5 12.5t22.5 2.5q20 0 27 -3t8 -15zM148 245q-4 48 -9 119
l-7 101q0 11 -7 11q-6 0 -6 -10q-3 -38 -7.5 -111.5t-7.5 -108.5q-1 -5 5 -7t17 -2h9t6.5 1t5 2.5t1.5 4.5zM209 768q-12 -23 -13 -28q-4 -16 -24 -5l-107 62q-21 16 -10 28q5 6 14 25q6 13 35 -3l73 -43q42 -21 32 -36z" />
    <glyph glyph-name="Aacute" unicode="&#xc1;" horiz-adv-x="255" 
d="M245 10q1 -8 -4 -9t-27 -1q-30 0 -33 4q-2 2 -3 8q-4 26 -11 79l-11 82q-1 9 -31 9q-27 0 -29 -6q-1 -1 -1 -3q-10 -93 -16 -163q-1 -8 -7.5 -9t-34.5 -1h-11t-8.5 1t-6 3t-1.5 5l47 373.5l39 303.5q1 10 6.5 12.5t22.5 2.5q20 0 27 -3t8 -15zM148 245q-4 48 -9 119
l-7 101q0 11 -7 11q-6 0 -6 -10q-3 -38 -7.5 -111.5t-7.5 -108.5q-1 -5 5 -7t17 -2h9t6.5 1t5 2.5t1.5 4.5zM243 825q11 -12 -10 -28l-107 -62q-20 -11 -24 5q-1 5 -13 28q-10 15 32 36l73 43q29 16 35 3q9 -19 14 -25z" />
    <glyph glyph-name="Acircumflex" unicode="&#xc2;" horiz-adv-x="255" 
d="M245 10q1 -8 -4 -9t-27 -1q-30 0 -33 4q-2 2 -3 8q-4 26 -11 79l-11 82q-1 9 -31 9q-27 0 -29 -6q-1 -1 -1 -3q-10 -93 -16 -163q-1 -8 -7.5 -9t-34.5 -1h-11t-8.5 1t-6 3t-1.5 5l47 373.5l39 303.5q1 10 6.5 12.5t22.5 2.5q20 0 27 -3t8 -15zM148 245q-4 48 -9 119
l-7 101q0 11 -7 11q-6 0 -6 -10q-3 -38 -7.5 -111.5t-7.5 -108.5q-1 -5 5 -7t17 -2h9t6.5 1t5 2.5t1.5 4.5zM226 762q-12 -23 -13 -28q-2 -8 -7.5 -11t-16.5 6q-51 50 -63 50q-9 0 -62 -50q-19 -18 -24 5q-1 5 -13 28q-3 4 0.5 8.5t14.5 13t17 14.5q52 50 67 50q16 0 68 -50
q6 -6 17 -14.5t14.5 -13t0.5 -8.5z" />
    <glyph glyph-name="Atilde" unicode="&#xc3;" horiz-adv-x="255" 
d="M245 10q1 -8 -4 -9t-27 -1q-30 0 -33 4q-2 2 -3 8q-4 26 -11 79l-11 82q-1 9 -31 9q-27 0 -29 -6q-1 -1 -1 -3q-10 -93 -16 -163q-1 -8 -7.5 -9t-34.5 -1h-11t-8.5 1t-6 3t-1.5 5l47 373.5l39 303.5q1 10 6.5 12.5t22.5 2.5q20 0 27 -3t8 -15zM148 245q-4 48 -9 119
l-7 101q0 11 -7 11q-6 0 -6 -10q-3 -38 -7.5 -111.5t-7.5 -108.5q-1 -5 5 -7t17 -2h9t6.5 1t5 2.5t1.5 4.5zM239 784q0 -4 1 -5.5t-3.5 -6t-7.5 -7t-10.5 -8t-11.5 -9.5q-22 -18 -41 -18q-24 0 -36 12q-18 18 -30 18q-3 0 -4.5 -0.5t-3.5 -1.5t-5 -3t-5.5 -4.5t-8.5 -7.5
l-12 -10q-8 -6 -15 -4t-9 9q-1 5 -13 28q-7 10 32 36q30 20 43 20q24 0 36 -11q21 -20 30 -20q6 0 37 26q19 17 24 -5q2 -5 13 -28z" />
    <glyph glyph-name="Adieresis" unicode="&#xc4;" horiz-adv-x="255" 
d="M245 10q1 -8 -4 -9t-27 -1q-30 0 -33 4q-2 2 -3 8q-4 26 -11 79l-11 82q-1 9 -31 9q-27 0 -29 -6q-1 -1 -1 -3q-10 -93 -16 -163q-1 -8 -7.5 -9t-34.5 -1h-11t-8.5 1t-6 3t-1.5 5l47 373.5l39 303.5q1 10 6.5 12.5t22.5 2.5q20 0 27 -3t8 -15zM148 245q-4 48 -9 119
l-7 101q0 11 -7 11q-6 0 -6 -10q-3 -38 -7.5 -111.5t-7.5 -108.5q-1 -5 5 -7t17 -2h9t6.5 1t5 2.5t1.5 4.5zM236 778q1 -13 0.5 -23t-10 -16.5t-30.5 -8.5q-18 -3 -31 13.5t-11 36.5t10.5 31t31.5 10q17 -1 28 -13t12 -30zM101 778q1 -13 0.5 -23t-10 -16.5t-30.5 -8.5
q-18 -3 -31 13.5t-11 36.5t10.5 31t31.5 10q17 -1 28 -13t12 -30z" />
    <glyph glyph-name="Aring" unicode="&#xc5;" horiz-adv-x="255" 
d="M189 793q-1 -15 -3 -23t-7.5 -18t-17 -15.5t-29.5 -7.5q-27 -3 -45.5 19.5t-14.5 52.5q2 26 14.5 40.5t45.5 17.5q25 3 42 -18.5t15 -47.5zM245 10q1 -8 -4 -9t-27 -1q-30 0 -33 4q-2 2 -3 8q-4 26 -11 79l-11 82q-1 9 -31 9q-27 0 -29 -6q-1 -1 -1 -3q-10 -93 -16 -163
q-1 -8 -7.5 -9t-34.5 -1h-11t-8.5 1t-6 3t-1.5 5l47 373.5l39 303.5q1 10 6.5 12.5t22.5 2.5q20 0 27 -3t8 -15zM158 791q3 16 -4.5 26t-21.5 8q-9 -1 -14.5 -2.5t-8 -5.5l-3.5 -5.5t-2 -8.5t-1 -9q-2 -15 7.5 -24.5t21.5 -7.5q22 4 26 29zM148 245q-4 48 -9 119l-7 101
q0 11 -7 11q-6 0 -6 -10q-3 -38 -7.5 -111.5t-7.5 -108.5q-1 -5 5 -7t17 -2h9t6.5 1t5 2.5t1.5 4.5z" />
    <glyph glyph-name="AE" unicode="&#xc6;" horiz-adv-x="409" 
d="M394 28q0 -17 -2 -22.5t-10 -5.5h-150q-35 0 -40 4q-6 5 -6 34v133q0 8 -5.5 9.5t-30.5 1.5q-20 0 -28.5 -1.5t-10 -3t-2.5 -7.5q-3 -13 -13 -78l-13 -85q-1 -5 -18.5 -7.5t-34 -0.5t-15.5 7l32 178l59 328.5t31 165.5q9 22 27 22h218q12 0 12 -30q0 -11 -0.5 -15.5
t-3.5 -8t-9 -3.5h-100q-19 0 -23 -5q-5 -7 -5 -19v-190q0 -21 6 -26q6 -4 22 -4h47q9 0 11.5 -6t2.5 -23q0 -16 -2.5 -22t-11.5 -6h-45q-19 0 -25 -3q-7 -5 -7 -29v-215q0 -32 5 -35q7 -4 30 -4h95q9 0 11 -5.5t2 -22.5zM186 245v327q0 56 -6 56q-3 0 -11 -56l-49 -326
q-1 -6 3 -7.5t23 -1.5q28 0 34 1t6 7z" />
    <glyph glyph-name="Ccedilla" unicode="&#xc7;" horiz-adv-x="287" 
d="M262 117q0 -59 -29.5 -88t-63.5 -29q-3 0 -3 -23q0 -31 -22 -54t-53 -23q-3 0 -3 20q0 19 3 19q12 0 22.5 12t10.5 26q0 2 0.5 6t0.5 6.5v5t-1 3.5t-3 1q-23 0 -57 31.5t-34 85.5v466q0 45 31 81.5t85 36.5q56 0 86 -39t30 -79v-45q0 -11 -33 -11h-4q-30 0 -30 11v47
q0 18 -14 36t-35 18q-22 0 -36.5 -17t-14.5 -36v-463q0 -23 12.5 -39t38.5 -16q24 0 36.5 15t12.5 37v59q0 8 31 8h10q26 0 26 -8v-61z" />
    <glyph glyph-name="Egrave" unicode="&#xc8;" horiz-adv-x="263" 
d="M248 28q0 -17 -2 -22.5t-10 -5.5h-150q-35 0 -40 4q-6 5 -6 34v632q0 13 7 22q6 8 23 8h166q12 0 12 -30q0 -11 -0.5 -15.5t-3.5 -8t-9 -3.5h-100q-19 0 -23 -5q-5 -7 -5 -19v-190q0 -21 6 -26q6 -4 22 -4h47q9 0 11.5 -6t2.5 -23q0 -16 -2.5 -22t-11.5 -6h-45
q-19 0 -25 -3q-7 -5 -7 -29v-215q0 -32 5 -35q7 -4 30 -4h95q9 0 11 -5.5t2 -22.5zM225 768q-12 -23 -13 -28q-4 -16 -24 -5l-107 62q-21 16 -10 28q5 6 14 25q6 13 35 -3l73 -43q42 -21 32 -36z" />
    <glyph glyph-name="Eacute" unicode="&#xc9;" horiz-adv-x="263" 
d="M248 28q0 -17 -2 -22.5t-10 -5.5h-150q-35 0 -40 4q-6 5 -6 34v632q0 13 7 22q6 8 23 8h166q12 0 12 -30q0 -11 -0.5 -15.5t-3.5 -8t-9 -3.5h-100q-19 0 -23 -5q-5 -7 -5 -19v-190q0 -21 6 -26q6 -4 22 -4h47q9 0 11.5 -6t2.5 -23q0 -16 -2.5 -22t-11.5 -6h-45
q-19 0 -25 -3q-7 -5 -7 -29v-215q0 -32 5 -35q7 -4 30 -4h95q9 0 11 -5.5t2 -22.5zM236 825q11 -12 -10 -28l-107 -62q-20 -11 -24 5q-1 5 -13 28q-10 15 32 36l73 43q29 16 35 3q9 -19 14 -25z" />
    <glyph glyph-name="Ecircumflex" unicode="&#xca;" horiz-adv-x="263" 
d="M248 28q0 -17 -2 -22.5t-10 -5.5h-150q-35 0 -40 4q-6 5 -6 34v632q0 13 7 22q6 8 23 8h166q12 0 12 -30q0 -11 -0.5 -15.5t-3.5 -8t-9 -3.5h-100q-19 0 -23 -5q-5 -7 -5 -19v-190q0 -21 6 -26q6 -4 22 -4h47q9 0 11.5 -6t2.5 -23q0 -16 -2.5 -22t-11.5 -6h-45
q-19 0 -25 -3q-7 -5 -7 -29v-215q0 -32 5 -35q7 -4 30 -4h95q9 0 11 -5.5t2 -22.5zM242 770q-12 -23 -13 -28q-2 -8 -7.5 -11t-16.5 6q-51 50 -63 50q-9 0 -62 -50q-19 -18 -24 5q-1 5 -13 28q-3 4 0.5 8.5t14.5 13t17 14.5q52 50 67 50q16 0 68 -50q6 -6 17 -14.5t14.5 -13
t0.5 -8.5z" />
    <glyph glyph-name="Edieresis" unicode="&#xcb;" horiz-adv-x="263" 
d="M248 28q0 -17 -2 -22.5t-10 -5.5h-150q-35 0 -40 4q-6 5 -6 34v632q0 13 7 22q6 8 23 8h166q12 0 12 -30q0 -11 -0.5 -15.5t-3.5 -8t-9 -3.5h-100q-19 0 -23 -5q-5 -7 -5 -19v-190q0 -21 6 -26q6 -4 22 -4h47q9 0 11.5 -6t2.5 -23q0 -16 -2.5 -22t-11.5 -6h-45
q-19 0 -25 -3q-7 -5 -7 -29v-215q0 -32 5 -35q7 -4 30 -4h95q9 0 11 -5.5t2 -22.5zM254 778q1 -13 0.5 -23t-10 -16.5t-30.5 -8.5q-18 -3 -31 13.5t-11 36.5t10.5 31t31.5 10q17 -1 28 -13t12 -30zM119 778q1 -13 0.5 -23t-10 -16.5t-30.5 -8.5q-18 -3 -31 13.5t-11 36.5
t10.5 31t31.5 10q17 -1 28 -13t12 -30z" />
    <glyph glyph-name="Igrave" unicode="&#xcc;" horiz-adv-x="144" 
d="M104 17q0 -11 -5 -13.5t-29 -2.5q-21 0 -25.5 2t-4.5 12v669q0 10 6 12.5t24 2.5q21 0 27.5 -2.5t6.5 -13.5v-666zM149 768q-12 -23 -13 -28q-4 -16 -24 -5l-107 62q-21 16 -10 28q5 6 14 25q6 13 35 -3l73 -43q42 -21 32 -36z" />
    <glyph glyph-name="Iacute" unicode="&#xcd;" horiz-adv-x="144" 
d="M104 17q0 -11 -5 -13.5t-29 -2.5q-21 0 -25.5 2t-4.5 12v669q0 10 6 12.5t24 2.5q21 0 27.5 -2.5t6.5 -13.5v-666zM180 825q11 -12 -10 -28l-107 -62q-20 -11 -24 5q-1 5 -13 28q-10 15 32 36l73 43q29 16 35 3q9 -19 14 -25z" />
    <glyph glyph-name="Icircumflex" unicode="&#xce;" horiz-adv-x="144" 
d="M104 17q0 -11 -5 -13.5t-29 -2.5q-21 0 -25.5 2t-4.5 12v669q0 10 6 12.5t24 2.5q21 0 27.5 -2.5t6.5 -13.5v-666zM175 762q-12 -23 -13 -28q-2 -8 -7.5 -11t-16.5 6q-51 50 -63 50q-9 0 -62 -50q-19 -18 -24 5q-1 5 -13 28q-3 4 0.5 8.5t14.5 13t17 14.5q52 50 67 50
q16 0 68 -50q6 -6 17 -14.5t14.5 -13t0.5 -8.5z" />
    <glyph glyph-name="Idieresis" unicode="&#xcf;" horiz-adv-x="144" 
d="M104 17q0 -11 -5 -13.5t-29 -2.5q-21 0 -25.5 2t-4.5 12v669q0 10 6 12.5t24 2.5q21 0 27.5 -2.5t6.5 -13.5v-666zM186 778q1 -13 0.5 -23t-10 -16.5t-30.5 -8.5q-18 -3 -31 13.5t-11 36.5t10.5 31t31.5 10q17 -1 28 -13t12 -30zM51 778q1 -13 0.5 -23t-10 -16.5
t-30.5 -8.5q-18 -3 -31 13.5t-11 36.5t10.5 31t31.5 10q17 -1 28 -13t12 -30z" />
    <glyph glyph-name="Eth" unicode="&#xd0;" horiz-adv-x="317" 
d="M292 141q0 -56 -36 -98q-38 -43 -105 -43h-62q-20 0 -24 7q-5 7 -5 25v292q0 7 -22 7q-6 0 -14.5 4.5t-8.5 14.5v28q0 15 31 15q14 0 14 5v271q0 20 6 26q6 5 24 5h60q66 0 105 -35q37 -35 37 -104v-420zM227 140v421q0 36 -21 58q-17 15 -46 15q-28 0 -32 -7
q0 -3 -1.5 -8.5t-1.5 -8.5v-212q0 -5 17 -5q48 0 48 -15q0 -6 0.5 -16t0.5 -16t-0.5 -8t-5 -5t-13.5 -3q-47 0 -47 -7v-226q0 -23 6 -29q3 -3 23 -3q32 0 53 22q20 22 20 53z" />
    <glyph glyph-name="Ntilde" unicode="&#xd1;" horiz-adv-x="312" 
d="M272 41q0 -28 -3.5 -34.5t-21.5 -6.5q-13 0 -21.5 8t-14.5 31q-58 245 -78 323q-2 8 -6.5 29t-8 32.5t-6.5 11.5q-7 0 -7 -18v-399q0 -12 -5.5 -15t-26.5 -3q-22 0 -27.5 3t-5.5 15v672q0 7 5 8.5t20 1.5q21 0 29.5 -8t15.5 -36l82 -330q5 -24 11 -24t6 18v362q0 12 6 15
t28 3q18 0 23.5 -2.5t5.5 -12.5v-644zM263 784q0 -4 1 -5.5t-3.5 -6t-7.5 -7t-10.5 -8t-11.5 -9.5q-22 -18 -41 -18q-24 0 -36 12q-18 18 -30 18q-3 0 -4.5 -0.5t-3.5 -1.5t-5 -3t-5.5 -4.5t-8.5 -7.5l-12 -10q-8 -6 -15 -4t-9 9q-1 5 -13 28q-7 10 32 36q30 20 43 20
q24 0 36 -11q21 -20 30 -20q6 0 37 26q19 17 24 -5q2 -5 13 -28z" />
    <glyph glyph-name="Ograve" unicode="&#xd2;" horiz-adv-x="302" 
d="M267 125q0 -55 -27 -90t-89 -35q-58 0 -87 35.5t-29 89.5v453q0 55 33 88.5t83 33.5t83 -35t33 -87v-453zM201 128v450q0 22 -14.5 41t-35.5 19t-36 -19t-15 -41v-450q0 -61 51 -61q50 0 50 61zM246 760q-12 -23 -13 -28q-4 -16 -24 -5l-107 62q-21 16 -10 28q5 6 14 25
q6 13 35 -3l73 -43q42 -21 32 -36z" />
    <glyph glyph-name="Oacute" unicode="&#xd3;" horiz-adv-x="302" 
d="M267 125q0 -55 -27 -90t-89 -35q-58 0 -87 35.5t-29 89.5v453q0 55 33 88.5t83 33.5t83 -35t33 -87v-453zM201 128v450q0 22 -14.5 41t-35.5 19t-36 -19t-15 -41v-450q0 -61 51 -61q50 0 50 61zM225 819q11 -12 -10 -28l-107 -62q-20 -11 -24 5q-1 5 -13 28q-10 15 32 36
l73 43q29 16 35 3q9 -19 14 -25z" />
    <glyph glyph-name="Ocircumflex" unicode="&#xd4;" horiz-adv-x="302" 
d="M267 125q0 -55 -27 -90t-89 -35q-58 0 -87 35.5t-29 89.5v453q0 55 33 88.5t83 33.5t83 -35t33 -87v-453zM201 128v450q0 22 -14.5 41t-35.5 19t-36 -19t-15 -41v-450q0 -61 51 -61q50 0 50 61zM250 760q-12 -23 -13 -28q-2 -8 -7.5 -11t-16.5 6q-51 50 -63 50
q-9 0 -62 -50q-19 -18 -24 5q-1 5 -13 28q-3 4 0.5 8.5t14.5 13t17 14.5q52 50 67 50q16 0 68 -50q6 -6 17 -14.5t14.5 -13t0.5 -8.5z" />
    <glyph glyph-name="Otilde" unicode="&#xd5;" horiz-adv-x="302" 
d="M267 125q0 -55 -27 -90t-89 -35q-58 0 -87 35.5t-29 89.5v453q0 55 33 88.5t83 33.5t83 -35t33 -87v-453zM201 128v450q0 22 -14.5 41t-35.5 19t-36 -19t-15 -41v-450q0 -61 51 -61q50 0 50 61zM259 784q0 -4 1 -5.5t-3.5 -6t-7.5 -7t-10.5 -8t-11.5 -9.5
q-22 -18 -41 -18q-24 0 -36 12q-18 18 -30 18q-3 0 -4.5 -0.5t-3.5 -1.5t-5 -3t-5.5 -4.5t-8.5 -7.5l-12 -10q-8 -6 -15 -4t-9 9q-1 5 -13 28q-7 10 32 36q30 20 43 20q24 0 36 -11q21 -20 30 -20q6 0 37 26q19 17 24 -5q2 -5 13 -28z" />
    <glyph glyph-name="Odieresis" unicode="&#xd6;" horiz-adv-x="302" 
d="M267 125q0 -55 -27 -90t-89 -35q-58 0 -87 35.5t-29 89.5v453q0 55 33 88.5t83 33.5t83 -35t33 -87v-453zM201 128v450q0 22 -14.5 41t-35.5 19t-36 -19t-15 -41v-450q0 -61 51 -61q50 0 50 61zM259 778q1 -13 0.5 -23t-10 -16.5t-30.5 -8.5q-18 -3 -31 13.5t-11 36.5
t10.5 31t31.5 10q17 -1 28 -13t12 -30zM124 778q1 -13 0.5 -23t-10 -16.5t-30.5 -8.5q-18 -3 -31 13.5t-11 36.5t10.5 31t31.5 10q17 -1 28 -13t12 -30z" />
    <glyph glyph-name="multiply" unicode="&#xd7;" 
d="M363 359v-4q0 -12 -0.5 -16.5t-3 -7t-9.5 -2.5h-44q-9 0 -11 -2.5t-2 -10.5v-178q0 -28 -23 -28h-42q-7 0 -7 -9v-86q0 -11 -5 -13t-29 -2h-4q-12 0 -16.5 0.5t-7 3t-2.5 9.5v90q0 7 -6 7h-41q-11 0 -18 9.5t-7 19.5v177v6.5t-1.5 3.5t-4 2.5t-7.5 0.5h-42q-10 0 -12.5 5
t-2.5 25q0 23 2.5 28.5t13.5 5.5h42q9 0 10.5 3.5t1.5 12.5v151q0 9 11 19.5t19 10.5h36q6 0 6 7v88q0 10 5 12.5t25 2.5q23 0 28.5 -2.5t5.5 -13.5v-86q0 -8 7 -8h40q10 0 17.5 -8.5t7.5 -21.5v-154q0 -5 0.5 -7.5t3 -4t8.5 -1.5h43q11 0 13 -5t2 -29zM228 183v335
q0 15 -19 15h-40q-19 0 -19 -15v-335q0 -17 17 -17h44q17 0 17 17z" />
    <glyph glyph-name="Oslash" unicode="&#xd8;" horiz-adv-x="302" 
d="M262 122q0 -55 -33 -88.5t-83 -33.5q-24 0 -47 9q-4 2 -5 -1q-1 -2 -1 -3q-3 -11 -7 -31.5t-5 -23.5q-1 -8 -2.5 -11.5t-5.5 -6t-11 -2.5q-13 0 -17 3t-2 14q10 54 16 82q2 9 -2 13q-27 33 -27 80v453q0 55 27 90t89 35q24 0 40 -6l2 -1q2 -1 2.5 -0.5t1.5 3t2 8.5
q2 8 5 23.5t5 24.5q2 12 5 15t14 3h5h6.5t4 -1.5t1.5 -5t-1 -9.5q-3 -12 -7 -35t-7 -34q-3 -10 4 -17q33 -34 33 -93v-453zM197 122v401q0 14 -2 15t-5 -15l-40 -217.5l-40 -213.5q-2 -9 5 -16q12 -14 31 -14q21 0 36 19t15 41zM175 606q5 19 -3 22q-12 5 -26 5
q-50 0 -50 -61v-342q0 -34 7 2l35 182.5z" />
    <glyph glyph-name="Ugrave" unicode="&#xd9;" horiz-adv-x="302" 
d="M267 116q0 -51 -29 -83.5t-87 -32.5q-56 0 -86 36t-30 79v570q0 15 32 15q33 0 33 -15v-565q0 -22 13 -37.5t38 -15.5q24 0 37.5 15t13.5 37v569q0 12 30 12q35 0 35 -11v-573zM231 768q-12 -23 -13 -28q-4 -16 -24 -5l-107 62q-21 16 -10 28q5 6 14 25q6 13 35 -3
l73 -43q42 -21 32 -36z" />
    <glyph glyph-name="Uacute" unicode="&#xda;" horiz-adv-x="302" 
d="M267 116q0 -51 -29 -83.5t-87 -32.5q-56 0 -86 36t-30 79v570q0 15 32 15q33 0 33 -15v-565q0 -22 13 -37.5t38 -15.5q24 0 37.5 15t13.5 37v569q0 12 30 12q35 0 35 -11v-573zM239 825q11 -12 -10 -28l-107 -62q-20 -11 -24 5q-1 5 -13 28q-10 15 32 36l73 43
q29 16 35 3q9 -19 14 -25z" />
    <glyph glyph-name="Ucircumflex" unicode="&#xdb;" horiz-adv-x="302" 
d="M267 116q0 -51 -29 -83.5t-87 -32.5q-56 0 -86 36t-30 79v570q0 15 32 15q33 0 33 -15v-565q0 -22 13 -37.5t38 -15.5q24 0 37.5 15t13.5 37v569q0 12 30 12q35 0 35 -11v-573zM252 766q-12 -23 -13 -28q-2 -8 -7.5 -11t-16.5 6q-51 50 -63 50q-9 0 -62 -50
q-19 -18 -24 5q-1 5 -13 28q-3 4 0.5 8.5t14.5 13t17 14.5q52 50 67 50q16 0 68 -50q6 -6 17 -14.5t14.5 -13t0.5 -8.5z" />
    <glyph glyph-name="Udieresis" unicode="&#xdc;" horiz-adv-x="302" 
d="M267 116q0 -51 -29 -83.5t-87 -32.5q-56 0 -86 36t-30 79v570q0 15 32 15q33 0 33 -15v-565q0 -22 13 -37.5t38 -15.5q24 0 37.5 15t13.5 37v569q0 12 30 12q35 0 35 -11v-573zM264 778q1 -13 0.5 -23t-10 -16.5t-30.5 -8.5q-18 -3 -31 13.5t-11 36.5t10.5 31t31.5 10
q17 -1 28 -13t12 -30zM129 778q1 -13 0.5 -23t-10 -16.5t-30.5 -8.5q-18 -3 -31 13.5t-11 36.5t10.5 31t31.5 10q17 -1 28 -13t12 -30z" />
    <glyph glyph-name="Yacute" unicode="&#xdd;" horiz-adv-x="229" 
d="M219 685l-56 -331q-5 -29 -9 -59q0 -3 -2 -12t-3 -19t-1 -18v-238q0 -8 -35 -8q-32 0 -32 11q0 39 0.5 112.5t0.5 119.5q0 21 -5 49q-1 6 -5.5 27.5t-6.5 33.5l-55 332q-1 9 4.5 11.5t19.5 2.5q25 0 32.5 -2.5t8.5 -13.5l17 -131l16 -122q0 -9 6 -9q5 0 5 10
q8 52 19 139.5l14 112.5q2 16 37 16q21 0 26 -2.5t4 -11.5zM230 825q11 -12 -10 -28l-107 -62q-20 -11 -24 5q-1 5 -13 28q-10 15 32 36l73 43q29 16 35 3q9 -19 14 -25z" />
    <glyph glyph-name="Thorn" unicode="&#xde;" horiz-adv-x="297" 
d="M272 287q0 -56 -36 -98q-38 -43 -113 -43q-19 0 -19 -21v-109q0 -11 -6 -13.5t-28 -2.5q-20 0 -25 2t-5 12v655q0 18 7 25q7 6 23 6q26 0 33 -3t7 -14v-104q0 -23 20 -23q66 0 105 -35q37 -35 37 -104v-130zM207 286v131q0 36 -21 58q-16 15 -46 15q-28 0 -32 -7
q-3 -6 -3 -17v-223q0 -25 7 -29q3 -2 23 -2q32 0 52 21q14 15 17 25t3 28z" />
    <glyph glyph-name="germandbls" unicode="&#xdf;" horiz-adv-x="297" 
d="M267 132q0 -58 -32.5 -95t-83.5 -37q-6 0 -7.5 6t-1.5 27q0 32 9 32q24 0 37 18.5t13 48.5v163q0 22 -14.5 38.5t-35.5 16.5q-9 0 -10.5 5t-1.5 23v7.5v7v5.5v4.5t0.5 3.5t1.5 3t2.5 1.5l3 1t4.5 0.5q21 0 35.5 15.5t14.5 38.5v129q0 18 -15 31.5t-35 13.5t-35.5 -14
t-15.5 -33v-577q0 -9 -6.5 -12.5t-24.5 -3.5q-21 0 -27.5 3t-6.5 13v581q0 43 35 73t81 30q45 0 80.5 -30.5t35.5 -73.5v-140q0 -10 -15 -44q-8 -18 -25 -32q16 -13 23 -27q17 -34 17 -55v-166z" />
    <glyph glyph-name="agrave" unicode="&#xe0;" horiz-adv-x="292" 
d="M262 11q0 -8 -5 -9.5t-28 -1.5h-15t-8.5 1t-5.5 3t-1 5v5v5v4t-1.5 3t-4.5 1q-2 0 -5.5 -6.5t-14 -13.5t-27.5 -7q-51 0 -83.5 33t-32.5 92v235q0 55 33 88.5t83 33.5q25 0 40 -15q6 -7 8.5 -5t2.5 15q0 6 23 6h8q22 0 28 -2t6 -10v-460zM196 128v232q0 22 -14.5 41
t-35.5 19t-36 -19t-15 -41v-232q0 -61 51 -61q50 0 50 61zM223 570q-12 -23 -13 -28q-4 -16 -24 -5l-107 62q-21 16 -10 28q5 6 14 25q6 13 35 -3l73 -43q42 -21 32 -36z" />
    <glyph glyph-name="aacute" unicode="&#xe1;" horiz-adv-x="292" 
d="M262 11q0 -8 -5 -9.5t-28 -1.5h-15t-8.5 1t-5.5 3t-1 5v5v5v4t-1.5 3t-4.5 1q-2 0 -5.5 -6.5t-14 -13.5t-27.5 -7q-51 0 -83.5 33t-32.5 92v235q0 55 33 88.5t83 33.5q25 0 40 -15q6 -7 8.5 -5t2.5 15q0 6 23 6h8q22 0 28 -2t6 -10v-460zM196 128v232q0 22 -14.5 41
t-35.5 19t-36 -19t-15 -41v-232q0 -61 51 -61q50 0 50 61zM220 627q11 -12 -10 -28l-107 -62q-20 -11 -24 5q-1 5 -13 28q-10 15 32 36l73 43q29 16 35 3q9 -19 14 -25z" />
    <glyph glyph-name="acircumflex" unicode="&#xe2;" horiz-adv-x="292" 
d="M262 11q0 -8 -5 -9.5t-28 -1.5h-15t-8.5 1t-5.5 3t-1 5v5v5v4t-1.5 3t-4.5 1q-2 0 -5.5 -6.5t-14 -13.5t-27.5 -7q-51 0 -83.5 33t-32.5 92v235q0 55 33 88.5t83 33.5q25 0 40 -15q6 -7 8.5 -5t2.5 15q0 6 23 6h8q22 0 28 -2t6 -10v-460zM196 128v232q0 22 -14.5 41
t-35.5 19t-36 -19t-15 -41v-232q0 -61 51 -61q50 0 50 61zM247 568q-12 -23 -13 -28q-2 -8 -7.5 -11t-16.5 6q-51 50 -63 50q-9 0 -62 -50q-19 -18 -24 5q-1 5 -13 28q-3 4 0.5 8.5t14.5 13t17 14.5q52 50 67 50q16 0 68 -50q6 -6 17 -14.5t14.5 -13t0.5 -8.5z" />
    <glyph glyph-name="atilde" unicode="&#xe3;" horiz-adv-x="292" 
d="M262 11q0 -8 -5 -9.5t-28 -1.5h-15t-8.5 1t-5.5 3t-1 5v5v5v4t-1.5 3t-4.5 1q-2 0 -5.5 -6.5t-14 -13.5t-27.5 -7q-51 0 -83.5 33t-32.5 92v235q0 55 33 88.5t83 33.5q25 0 40 -15q6 -7 8.5 -5t2.5 15q0 6 23 6h8q22 0 28 -2t6 -10v-460zM196 128v232q0 22 -14.5 41
t-35.5 19t-36 -19t-15 -41v-232q0 -61 51 -61q50 0 50 61zM264 586q0 -4 1 -5.5t-3.5 -6t-7.5 -7t-10.5 -8t-11.5 -9.5q-22 -18 -41 -18q-24 0 -36 12q-18 18 -30 18q-3 0 -4.5 -0.5t-3.5 -1.5t-5 -3t-5.5 -4.5t-8.5 -7.5l-12 -10q-8 -6 -15 -4t-9 9q-1 5 -13 28
q-7 10 32 36q30 20 43 20q24 0 36 -11q21 -20 30 -20q6 0 37 26q19 17 24 -5q2 -5 13 -28z" />
    <glyph glyph-name="adieresis" unicode="&#xe4;" horiz-adv-x="292" 
d="M262 11q0 -8 -5 -9.5t-28 -1.5h-15t-8.5 1t-5.5 3t-1 5v5v5v4t-1.5 3t-4.5 1q-2 0 -5.5 -6.5t-14 -13.5t-27.5 -7q-51 0 -83.5 33t-32.5 92v235q0 55 33 88.5t83 33.5q25 0 40 -15q6 -7 8.5 -5t2.5 15q0 6 23 6h8q22 0 28 -2t6 -10v-460zM196 128v232q0 22 -14.5 41
t-35.5 19t-36 -19t-15 -41v-232q0 -61 51 -61q50 0 50 61zM255 580q1 -13 0.5 -23t-10 -16.5t-30.5 -8.5q-18 -3 -31 13.5t-11 36.5t10.5 31t31.5 10q17 -1 28 -13t12 -30zM120 580q1 -13 0.5 -23t-10 -16.5t-30.5 -8.5q-18 -3 -31 13.5t-11 36.5t10.5 31t31.5 10
q17 -1 28 -13t12 -30z" />
    <glyph glyph-name="aring" unicode="&#xe5;" horiz-adv-x="292" 
d="M262 11q0 -8 -5 -9.5t-28 -1.5h-15t-8.5 1t-5.5 3t-1 5v5v5v4t-1.5 3t-4.5 1q-2 0 -5.5 -6.5t-14 -13.5t-27.5 -7q-51 0 -83.5 33t-32.5 92v235q0 55 33 88.5t83 33.5q25 0 40 -15q6 -7 8.5 -5t2.5 15q0 6 23 6h8q22 0 28 -2t6 -10v-460zM196 128v232q0 22 -14.5 41
t-35.5 19t-36 -19t-15 -41v-232q0 -61 51 -61q50 0 50 61zM203 596q-1 -15 -3 -23t-7.5 -18t-17 -15.5t-29.5 -7.5q-27 -3 -45.5 19.5t-14.5 52.5q2 26 14.5 40.5t45.5 17.5q25 3 42 -18.5t15 -47.5zM172 594q3 16 -4.5 26t-21.5 8q-9 -1 -14.5 -2.5t-8 -5.5l-3.5 -5.5
t-2 -8.5t-1 -9q-2 -15 7.5 -24.5t21.5 -7.5q22 4 26 29z" />
    <glyph glyph-name="ae" unicode="&#xe6;" horiz-adv-x="449" 
d="M424 125q0 -63 -32 -94t-84 -31q-36 0 -56.5 13.5t-27.5 13.5t-27 -13.5t-56 -13.5q-58 0 -87 33t-29 88v56q0 61 36 93t80 32q14 0 28 -7l14 -7q9 0 9 15v57q0 23 -12.5 41.5t-33.5 18.5q-20 0 -32.5 -18.5t-12.5 -41.5q0 -6 -16.5 -8.5t-33 -0.5t-16.5 6
q0 62 33.5 93.5t77.5 31.5q26 0 41 -8.5t22.5 -17t15.5 -8.5q6 0 13.5 8.5t24.5 17t45 8.5q50 0 83 -35t33 -87v-123q0 -5 -0.5 -7.5t-5 -5.5t-13.5 -3h-137q-11 0 -11 -18v-75q0 -29 14 -45t37 -16q50 0 50 61q0 6 35 6q20 0 25.5 -1.5t5.5 -7.5zM192 128v48q0 29 -14 45
t-37 16q-50 0 -50 -61v-48q0 -61 50 -61q23 0 37 15.5t14 45.5zM358 296v64q0 24 -14.5 42t-35.5 18q-22 0 -36.5 -18.5t-14.5 -41.5v-64q0 -10 8 -12t40 -2q35 0 44 2t9 12z" />
    <glyph glyph-name="ccedilla" unicode="&#xe7;" horiz-adv-x="287" 
d="M262 125q0 -60 -30 -92.5t-63 -32.5q-3 0 -3 -23q0 -31 -22 -54t-53 -23q-3 0 -3 20q0 19 3 19q12 0 22.5 12t10.5 26q0 2 0.5 6t0.5 6.5v5t-1 3.5t-3 1q-24 0 -57.5 32.5t-33.5 93.5v232q0 57 32 91t84 34t84 -30.5t32 -95.5q0 -9 -31 -9q-35 0 -35 6q0 61 -50 61
q-22 0 -36.5 -15t-14.5 -46v-225q0 -61 51 -61q50 0 50 61q0 4 33 4h10t8 0.5t6 0.5h4.5t2.5 -1t1.5 -2.5t0.5 -4.5z" />
    <glyph glyph-name="egrave" unicode="&#xe8;" horiz-adv-x="292" 
d="M262 125q0 -64 -31.5 -94.5t-84.5 -30.5q-51 0 -83.5 33.5t-32.5 91.5v235q0 55 33 88.5t83 33.5t83 -35t33 -87v-123q0 -5 -0.5 -7.5t-5 -5.5t-13.5 -3h-137q-11 0 -11 -18v-75q0 -29 14 -45t37 -16q50 0 50 61q0 6 35 6q20 0 25.5 -1.5t5.5 -7.5zM196 296v64
q0 24 -14.5 42t-35.5 18q-22 0 -36.5 -18.5t-14.5 -41.5v-64q0 -10 8 -12t40 -2q35 0 44 2t9 12zM231 564q-12 -23 -13 -28q-4 -16 -24 -5l-107 62q-21 16 -10 28q5 6 14 25q6 13 35 -3l73 -43q42 -21 32 -36z" />
    <glyph glyph-name="eacute" unicode="&#xe9;" horiz-adv-x="292" 
d="M262 125q0 -64 -31.5 -94.5t-84.5 -30.5q-51 0 -83.5 33.5t-32.5 91.5v235q0 55 33 88.5t83 33.5t83 -35t33 -87v-123q0 -5 -0.5 -7.5t-5 -5.5t-13.5 -3h-137q-11 0 -11 -18v-75q0 -29 14 -45t37 -16q50 0 50 61q0 6 35 6q20 0 25.5 -1.5t5.5 -7.5zM196 296v64
q0 24 -14.5 42t-35.5 18q-22 0 -36.5 -18.5t-14.5 -41.5v-64q0 -10 8 -12t40 -2q35 0 44 2t9 12zM238 621q11 -12 -10 -28l-107 -62q-20 -11 -24 5q-1 5 -13 28q-10 15 32 36l73 43q29 16 35 3q9 -19 14 -25z" />
    <glyph glyph-name="ecircumflex" unicode="&#xea;" horiz-adv-x="292" 
d="M262 125q0 -64 -31.5 -94.5t-84.5 -30.5q-51 0 -83.5 33.5t-32.5 91.5v235q0 55 33 88.5t83 33.5t83 -35t33 -87v-123q0 -5 -0.5 -7.5t-5 -5.5t-13.5 -3h-137q-11 0 -11 -18v-75q0 -29 14 -45t37 -16q50 0 50 61q0 6 35 6q20 0 25.5 -1.5t5.5 -7.5zM196 296v64
q0 24 -14.5 42t-35.5 18q-22 0 -36.5 -18.5t-14.5 -41.5v-64q0 -10 8 -12t40 -2q35 0 44 2t9 12zM248 564q-12 -23 -13 -28q-2 -8 -7.5 -11t-16.5 6q-51 50 -63 50q-9 0 -62 -50q-19 -18 -24 5q-1 5 -13 28q-3 4 0.5 8.5t14.5 13t17 14.5q52 50 67 50q16 0 68 -50
q6 -6 17 -14.5t14.5 -13t0.5 -8.5z" />
    <glyph glyph-name="edieresis" unicode="&#xeb;" horiz-adv-x="292" 
d="M262 125q0 -64 -31.5 -94.5t-84.5 -30.5q-51 0 -83.5 33.5t-32.5 91.5v235q0 55 33 88.5t83 33.5t83 -35t33 -87v-123q0 -5 -0.5 -7.5t-5 -5.5t-13.5 -3h-137q-11 0 -11 -18v-75q0 -29 14 -45t37 -16q50 0 50 61q0 6 35 6q20 0 25.5 -1.5t5.5 -7.5zM196 296v64
q0 24 -14.5 42t-35.5 18q-22 0 -36.5 -18.5t-14.5 -41.5v-64q0 -10 8 -12t40 -2q35 0 44 2t9 12zM257 580q1 -13 0.5 -23t-10 -16.5t-30.5 -8.5q-18 -3 -31 13.5t-11 36.5t10.5 31t31.5 10q17 -1 28 -13t12 -30zM122 580q1 -13 0.5 -23t-10 -16.5t-30.5 -8.5
q-18 -3 -31 13.5t-11 36.5t10.5 31t31.5 10q17 -1 28 -13t12 -30z" />
    <glyph glyph-name="igrave" unicode="&#xec;" horiz-adv-x="140" 
d="M102 18q0 -13 -5 -15.5t-29 -2.5q-22 0 -26 2t-4 14v449q0 11 6 13.5t24 2.5q16 0 21 -0.5t9 -4t4 -12.5v-446zM149 570q-12 -23 -13 -28q-4 -16 -24 -5l-107 62q-21 16 -10 28q5 6 14 25q6 13 35 -3l73 -43q42 -21 32 -36z" />
    <glyph glyph-name="iacute" unicode="&#xed;" horiz-adv-x="140" 
d="M102 18q0 -13 -5 -15.5t-29 -2.5q-22 0 -26 2t-4 14v449q0 11 6 13.5t24 2.5q16 0 21 -0.5t9 -4t4 -12.5v-446zM178 627q11 -12 -10 -28l-107 -62q-20 -11 -24 5q-1 5 -13 28q-10 15 32 36l73 43q29 16 35 3q9 -19 14 -25z" />
    <glyph glyph-name="icircumflex" unicode="&#xee;" horiz-adv-x="140" 
d="M102 18q0 -13 -5 -15.5t-29 -2.5q-22 0 -26 2t-4 14v449q0 11 6 13.5t24 2.5q16 0 21 -0.5t9 -4t4 -12.5v-446zM168 564q-12 -23 -13 -28q-2 -8 -7.5 -11t-16.5 6q-51 50 -63 50q-9 0 -62 -50q-19 -18 -24 5q-1 5 -13 28q-3 4 0.5 8.5t14.5 13t17 14.5q52 50 67 50
q16 0 68 -50q6 -6 17 -14.5t14.5 -13t0.5 -8.5z" />
    <glyph glyph-name="idieresis" unicode="&#xef;" horiz-adv-x="140" 
d="M102 18q0 -13 -5 -15.5t-29 -2.5q-22 0 -26 2t-4 14v449q0 11 6 13.5t24 2.5q16 0 21 -0.5t9 -4t4 -12.5v-446zM177 580q1 -13 0.5 -23t-10 -16.5t-30.5 -8.5q-18 -3 -31 13.5t-11 36.5t10.5 31t31.5 10q17 -1 28 -13t12 -30zM42 580q1 -13 0.5 -23t-10 -16.5t-30.5 -8.5
q-18 -3 -31 13.5t-11 36.5t10.5 31t31.5 10q17 -1 28 -13t12 -30z" />
    <glyph glyph-name="eth" unicode="&#xf0;" horiz-adv-x="297" 
d="M334 564q0 -6 -0.5 -8t-5 -5t-13.5 -3q-53 0 -53 -4v-536q0 -8 -34 -8h-9.5t-8 -0.5t-5.5 0t-4 2t-1 3.5q0 22 -7 22q-2 0 -5.5 -6.5t-14 -13.5t-27.5 -7q-58 0 -87 33t-29 88v236q0 55 32.5 90t83.5 35q10 0 37 -13q14 0 14 18v56q0 6 -49 6q-6 0 -14.5 4.5t-8.5 14.5
v28q0 15 31 15q41 0 41 4v78q0 5 5 6t27 1q33 0 33 -8v-75q0 -6 23 -6q46 0 46 -16q0 -5 1.5 -15t1.5 -16zM196 128v232q0 22 -14.5 41t-35.5 19t-36 -19t-15 -41v-232q0 -61 51 -61q23 0 36.5 16t13.5 45z" />
    <glyph glyph-name="ntilde" unicode="&#xf1;" horiz-adv-x="297" 
d="M267 9q0 -6 -5.5 -7.5t-24.5 -1.5q-35 0 -35 8v345q0 65 -35 65q-29 0 -48 -16t-19 -44v-348q0 -7 -6 -8.5t-28 -1.5q-20 0 -25.5 1.5t-5.5 8.5v462q0 5 5 6.5t27 1.5q20 0 24.5 -1.5t4.5 -6.5q0 -40 3 -40q1 0 3 4q26 44 65 44q100 0 100 -127v-344zM263 586
q0 -4 1 -5.5t-3.5 -6t-7.5 -7t-10.5 -8t-11.5 -9.5q-22 -18 -41 -18q-24 0 -36 12q-18 18 -30 18q-3 0 -4.5 -0.5t-3.5 -1.5t-5 -3t-5.5 -4.5t-8.5 -7.5l-12 -10q-8 -6 -15 -4t-9 9q-1 5 -13 28q-7 10 32 36q30 20 43 20q24 0 36 -11q21 -20 30 -20q6 0 37 26q19 17 24 -5
q2 -5 13 -28z" />
    <glyph glyph-name="ograve" unicode="&#xf2;" horiz-adv-x="292" 
d="M262 125q0 -64 -31.5 -94.5t-84.5 -30.5q-51 0 -83.5 33t-32.5 92v235q0 55 33 88.5t83 33.5t83 -35t33 -87v-235zM196 128v232q0 22 -14.5 41t-35.5 19t-36 -19t-15 -41v-232q0 -61 51 -61q50 0 50 61zM237 558q-12 -23 -13 -28q-4 -16 -24 -5l-107 62q-21 16 -10 28
q5 6 14 25q6 13 35 -3l73 -43q42 -21 32 -36z" />
    <glyph glyph-name="oacute" unicode="&#xf3;" horiz-adv-x="292" 
d="M262 125q0 -64 -31.5 -94.5t-84.5 -30.5q-51 0 -83.5 33t-32.5 92v235q0 55 33 88.5t83 33.5t83 -35t33 -87v-235zM196 128v232q0 22 -14.5 41t-35.5 19t-36 -19t-15 -41v-232q0 -61 51 -61q50 0 50 61zM226 617q11 -12 -10 -28l-107 -62q-20 -11 -24 5q-1 5 -13 28
q-10 15 32 36l73 43q29 16 35 3q9 -19 14 -25z" />
    <glyph glyph-name="ocircumflex" unicode="&#xf4;" horiz-adv-x="292" 
d="M262 125q0 -64 -31.5 -94.5t-84.5 -30.5q-51 0 -83.5 33t-32.5 92v235q0 55 33 88.5t83 33.5t83 -35t33 -87v-235zM196 128v232q0 22 -14.5 41t-35.5 19t-36 -19t-15 -41v-232q0 -61 51 -61q50 0 50 61zM246 562q-12 -23 -13 -28q-2 -8 -7.5 -11t-16.5 6q-51 50 -63 50
q-9 0 -62 -50q-19 -18 -24 5q-1 5 -13 28q-3 4 0.5 8.5t14.5 13t17 14.5q52 50 67 50q16 0 68 -50q6 -6 17 -14.5t14.5 -13t0.5 -8.5z" />
    <glyph glyph-name="otilde" unicode="&#xf5;" horiz-adv-x="292" 
d="M262 125q0 -64 -31.5 -94.5t-84.5 -30.5q-51 0 -83.5 33t-32.5 92v235q0 55 33 88.5t83 33.5t83 -35t33 -87v-235zM196 128v232q0 22 -14.5 41t-35.5 19t-36 -19t-15 -41v-232q0 -61 51 -61q50 0 50 61zM254 586q0 -4 1 -5.5t-3.5 -6t-7.5 -7t-10.5 -8t-11.5 -9.5
q-22 -18 -41 -18q-24 0 -36 12q-18 18 -30 18q-3 0 -4.5 -0.5t-3.5 -1.5t-5 -3t-5.5 -4.5t-8.5 -7.5l-12 -10q-8 -6 -15 -4t-9 9q-1 5 -13 28q-7 10 32 36q30 20 43 20q24 0 36 -11q21 -20 30 -20q6 0 37 26q19 17 24 -5q2 -5 13 -28z" />
    <glyph glyph-name="odieresis" unicode="&#xf6;" horiz-adv-x="292" 
d="M262 125q0 -64 -31.5 -94.5t-84.5 -30.5q-51 0 -83.5 33t-32.5 92v235q0 55 33 88.5t83 33.5t83 -35t33 -87v-235zM196 128v232q0 22 -14.5 41t-35.5 19t-36 -19t-15 -41v-232q0 -61 51 -61q50 0 50 61zM257 580q1 -13 0.5 -23t-10 -16.5t-30.5 -8.5q-18 -3 -31 13.5
t-11 36.5t10.5 31t31.5 10q17 -1 28 -13t12 -30zM122 580q1 -13 0.5 -23t-10 -16.5t-30.5 -8.5q-18 -3 -31 13.5t-11 36.5t10.5 31t31.5 10q17 -1 28 -13t12 -30z" />
    <glyph glyph-name="divide" unicode="&#xf7;" 
d="M363 359v-4q0 -12 -0.5 -16.5t-3 -7t-9.5 -2.5h-44q-9 0 -11 -2.5t-2 -10.5v-178q0 -28 -23 -28h-42q-7 0 -7 -9v-86q0 -11 -5 -13t-29 -2h-4q-12 0 -16.5 0.5t-7 3t-2.5 9.5v90q0 7 -6 7h-41q-11 0 -18 9.5t-7 19.5v177v6.5t-1.5 3.5t-4 2.5t-7.5 0.5h-42q-10 0 -12.5 5
t-2.5 25q0 23 2.5 28.5t13.5 5.5h42q9 0 10.5 3.5t1.5 12.5v151q0 9 11 19.5t19 10.5h36q6 0 6 7v88q0 10 5 12.5t25 2.5q23 0 28.5 -2.5t5.5 -13.5v-86q0 -8 7 -8h40q10 0 17.5 -8.5t7.5 -21.5v-154q0 -5 0.5 -7.5t3 -4t8.5 -1.5h43q11 0 13 -5t2 -29zM228 183v335
q0 15 -19 15h-40q-19 0 -19 -15v-335q0 -17 17 -17h44q17 0 17 17z" />
    <glyph glyph-name="oslash" unicode="&#xf8;" horiz-adv-x="292" 
d="M262 125q0 -64 -31.5 -94.5t-84.5 -30.5q-2 0 -8 1t-10 0q-12 -2 -13 -8q-2 -12 -6.5 -32.5t-5.5 -29.5q0 -1 -4 -1.5t-9 -0.5t-10 1t-8 2t-3 2l15 74q1 7 -8 13q-46 35 -46 104v235q0 55 33 88.5t83 33.5q17 0 30 -4q4 -1 5.5 1t2.5 7l13 63q2 3 9 3.5t14.5 -3t6.5 -8.5
l-14 -71q-1 -7 4 -12q45 -39 45 -98v-235zM167 402q3 11 -2 13q-10 5 -19 5q-21 0 -36 -19t-15 -41v-232q0 -22 6 -22q3 0 4 5zM196 128v232q0 6 -1 8q-2 2 -3 -3q-1 -2 -2 -6q-6 -31 -18.5 -89l-22 -104.5t-16.5 -85.5q-2 -13 13 -13q50 0 50 61z" />
    <glyph glyph-name="ugrave" unicode="&#xf9;" horiz-adv-x="297" 
d="M262 7q0 -5 -4.5 -6t-24.5 -1q-32 0 -32 7q0 4 -0.5 14t-0.5 13v5q0 9 -1 9t-4 -5q-26 -44 -65 -44q-100 0 -100 127v344q0 10 29 10q36 0 36 -9v-345q0 -65 35 -65q31 0 49 17t18 43v348q0 7 5.5 8.5t26.5 1.5q33 0 33 -10v-462zM225 570q-12 -23 -13 -28q-4 -16 -24 -5
l-107 62q-21 16 -10 28q5 6 14 25q6 13 35 -3l73 -43q42 -21 32 -36z" />
    <glyph glyph-name="uacute" unicode="&#xfa;" horiz-adv-x="297" 
d="M262 7q0 -5 -4.5 -6t-24.5 -1q-32 0 -32 7q0 4 -0.5 14t-0.5 13v5q0 9 -1 9t-4 -5q-26 -44 -65 -44q-100 0 -100 127v344q0 10 29 10q36 0 36 -9v-345q0 -65 35 -65q31 0 49 17t18 43v348q0 7 5.5 8.5t26.5 1.5q33 0 33 -10v-462zM236 627q11 -12 -10 -28l-107 -62
q-20 -11 -24 5q-1 5 -13 28q-10 15 32 36l73 43q29 16 35 3q9 -19 14 -25z" />
    <glyph glyph-name="ucircumflex" unicode="&#xfb;" horiz-adv-x="297" 
d="M262 7q0 -5 -4.5 -6t-24.5 -1q-32 0 -32 7q0 4 -0.5 14t-0.5 13v5q0 9 -1 9t-4 -5q-26 -44 -65 -44q-100 0 -100 127v344q0 10 29 10q36 0 36 -9v-345q0 -65 35 -65q31 0 49 17t18 43v348q0 7 5.5 8.5t26.5 1.5q33 0 33 -10v-462zM244 566q-12 -23 -13 -28
q-2 -8 -7.5 -11t-16.5 6q-51 50 -63 50q-9 0 -62 -50q-19 -18 -24 5q-1 5 -13 28q-3 4 0.5 8.5t14.5 13t17 14.5q52 50 67 50q16 0 68 -50q6 -6 17 -14.5t14.5 -13t0.5 -8.5z" />
    <glyph glyph-name="udieresis" unicode="&#xfc;" horiz-adv-x="297" 
d="M262 7q0 -5 -4.5 -6t-24.5 -1q-32 0 -32 7q0 4 -0.5 14t-0.5 13v5q0 9 -1 9t-4 -5q-26 -44 -65 -44q-100 0 -100 127v344q0 10 29 10q36 0 36 -9v-345q0 -65 35 -65q31 0 49 17t18 43v348q0 7 5.5 8.5t26.5 1.5q33 0 33 -10v-462zM253 580q1 -13 0.5 -23t-10 -16.5
t-30.5 -8.5q-18 -3 -31 13.5t-11 36.5t10.5 31t31.5 10q17 -1 28 -13t12 -30zM118 580q1 -13 0.5 -23t-10 -16.5t-30.5 -8.5q-18 -3 -31 13.5t-11 36.5t10.5 31t31.5 10q17 -1 28 -13t12 -30z" />
    <glyph glyph-name="yacute" unicode="&#xfd;" horiz-adv-x="250" 
d="M240 466l-137 -653q-1 -9 -7 -11t-26 -2q-17 0 -22 2.5t-3 13.5l39 187q2 9 2 36q0 15 -3 33l-78 397q-1 7 5.5 9t27.5 2t27.5 -2.5t7.5 -11.5l43 -283q0 -10 6 -10q4 0 7 11l46 284q1 8 7 10t29 2q18 0 24 -3t5 -11zM227 627q11 -12 -10 -28l-107 -62q-20 -11 -24 5
q-1 5 -13 28q-10 15 32 36l73 43q29 16 35 3q9 -19 14 -25z" />
    <glyph glyph-name="thorn" unicode="&#xfe;" horiz-adv-x="297" 
d="M267 121q0 -55 -29 -88t-87 -33q-13 0 -22 3q-2 1 -4.5 2.5l-5 3t-5.5 1.5q-14 0 -14 -18v-184q0 -6 -5 -7t-23 -1h-7h-14t-8.5 1t-6 3t-1.5 5v883q0 9 30 9q35 0 35 -8v-206q0 -18 14 -18q27 13 37 13q52 0 84 -35.5t32 -89.5v-236zM201 128v232q0 22 -14.5 41t-35.5 19
t-36 -19t-15 -41v-232q0 -29 14 -45t37 -16q50 0 50 61z" />
    <glyph glyph-name="ydieresis" unicode="&#xff;" horiz-adv-x="250" 
d="M240 466l-137 -653q-1 -9 -7 -11t-26 -2q-17 0 -22 2.5t-3 13.5l39 187q2 9 2 36q0 15 -3 33l-78 397q-1 7 5.5 9t27.5 2t27.5 -2.5t7.5 -11.5l43 -283q0 -10 6 -10q4 0 7 11l46 284q1 8 7 10t29 2q18 0 24 -3t5 -11zM240 580q1 -13 0.5 -23t-10 -16.5t-30.5 -8.5
q-18 -3 -31 13.5t-11 36.5t10.5 31t31.5 10q17 -1 28 -13t12 -30zM105 580q1 -13 0.5 -23t-10 -16.5t-30.5 -8.5q-18 -3 -31 13.5t-11 36.5t10.5 31t31.5 10q17 -1 28 -13t12 -30z" />
    <glyph glyph-name="dotlessi" unicode="&#x131;" horiz-adv-x="140" 
d="M102 18q0 -13 -5 -15.5t-29 -2.5q-22 0 -26 2t-4 14v449q0 11 6 13.5t24 2.5q16 0 21 -0.5t9 -4t4 -12.5v-446z" />
    <glyph glyph-name="Lslash" unicode="&#x141;" horiz-adv-x="243" 
d="M233 30q0 -19 -2.5 -24.5t-11.5 -5.5h-149q-21 0 -26 7q-4 6 -4 36v264q0 6 -14 -5q-6 -5 -10.5 -8t-7.5 -4t-4.5 -1t-2.5 2t-1 4.5v6.5v34q0 17 13 26q27 20 27 24v301q0 2 0.5 4t1 3.5t1.5 2.5t3 1.5t3 1t4 0.5h5h6h6q15 0 21 -0.5t10 -4t4 -10.5v-259q0 -8 63 41
q7 5 12.5 6.5t8.5 0t3 -6.5q0 -2 1 -14t1 -15q0 -20 -9 -27q-77 -57 -80 -63q-1 -2 -1 -4v-48t0.5 -101.5t0.5 -98.5q0 -31 7 -36q2 0 10 -1.5t13 -1.5h84q9 0 11.5 -5.5t2.5 -21.5z" />
    <glyph glyph-name="lslash" unicode="&#x142;" horiz-adv-x="154" 
d="M149 396q0 -20 -9 -27q-31 -23 -31 -30v-323q0 -11 -5.5 -13.5t-28.5 -2.5q-19 0 -24.5 2t-5.5 12q0 46 -0.5 114.5t-0.5 119v53.5q0 8 -13 -3q-11 -10 -17 -12t-7.5 1t-1.5 11v39q0 17 13 26q27 20 27 24v297q0 9 6.5 12t23.5 3q13 0 19 -1t10.5 -4.5t4.5 -10.5v-259
q0 -6 14 6q24 20 24 0q0 -2 1 -16.5t1 -17.5z" />
    <glyph glyph-name="OE" unicode="&#x152;" horiz-adv-x="424" 
d="M409 28q0 -17 -2 -22.5t-10 -5.5h-150q-28 0 -32 4q-1 2 -0.5 7.5t0 11.5t-3.5 6q-1 0 -9.5 -7.5t-22 -14.5t-28.5 -7q-58 0 -87 35.5t-29 89.5v453q0 50 30.5 86t85.5 36q15 0 28.5 -7t22 -14.5t9.5 -7.5q3 0 3.5 6t0 11.5t0.5 7.5q4 4 32 4h150q12 0 12 -30
q0 -11 -0.5 -15.5t-3.5 -8t-9 -3.5h-100q-19 0 -23 -5q-5 -7 -5 -19v-190q0 -21 6 -26q6 -4 22 -4h47q9 0 11.5 -6t2.5 -23q0 -16 -2.5 -22t-11.5 -6h-45q-19 0 -25 -3q-7 -5 -7 -29v-215q0 -32 5 -35q7 -4 30 -4h95q9 0 11 -5.5t2 -22.5zM201 128v450q0 22 -14.5 41
t-35.5 19t-36 -19t-15 -41v-450q0 -61 51 -61q50 0 50 61z" />
    <glyph glyph-name="oe" unicode="&#x153;" horiz-adv-x="459" 
d="M429 125q0 -63 -32 -94t-84 -31q-35 0 -55.5 13.5t-27.5 13.5t-27.5 -13.5t-56.5 -13.5q-58 0 -87 33t-29 88v236q0 61 36 93t80 32q27 0 42.5 -8.5t23.5 -17t16 -8.5q6 0 13 8.5t24 17t48 8.5q50 0 83 -35t33 -87v-123q0 -5 -0.5 -7.5t-5 -5.5t-13.5 -3h-137
q-11 0 -11 -18v-75q0 -29 14 -45t37 -16q50 0 50 61q0 6 35 6q20 0 25.5 -1.5t5.5 -7.5zM197 128v232q0 22 -15 41t-36 19t-35.5 -19t-14.5 -41v-232q0 -61 50 -61q23 0 37 16t14 45zM363 296v64q0 24 -14.5 42t-35.5 18q-22 0 -36.5 -18.5t-14.5 -41.5v-64q0 -10 8 -12
t40 -2q35 0 44 2t9 12z" />
    <glyph glyph-name="Scaron" unicode="&#x160;" horiz-adv-x="273" 
d="M255 116q0 -50 -33.5 -83t-82.5 -33q-51 0 -83.5 29.5t-32.5 86.5v56q0 8 6.5 10.5t26.5 2.5q34 0 34 -11v-55q0 -21 12 -36.5t37 -15.5q51 0 51 55v61q0 25 -13 55.5t-26.5 52t-39.5 57.5q-30 42 -43.5 63t-29.5 56.5t-16 62.5v51q0 46 28.5 82.5t85.5 36.5
q53 0 83.5 -37.5t30.5 -80.5v-46q0 -8 -35 -8q-32 0 -32 9v47q0 23 -14.5 38.5t-32.5 15.5q-20 0 -34.5 -16.5t-14.5 -36.5v-55q0 -23 17.5 -53.5t50.5 -76.5l9 -12q28 -38 44.5 -65t31.5 -66.5t15 -74.5v-66zM232 816q3 -4 -0.5 -8.5t-14.5 -13t-17 -14.5q-52 -50 -68 -50
q-15 0 -67 50q-6 6 -17 14.5t-14.5 13t-0.5 8.5q11 23 13 28q5 23 24 5q53 -50 62 -50q12 0 63 50q11 9 16.5 6t7.5 -11q1 -5 13 -28z" />
    <glyph glyph-name="scaron" unicode="&#x161;" horiz-adv-x="262" 
d="M242 116q0 -51 -31 -83.5t-80 -32.5q-51 0 -81 29.5t-30 86.5q0 8 31 8q36 0 36 -5q0 -52 44 -52q46 0 46 55q0 33 -18.5 57.5t-55.5 52.5q-39 31 -59.5 59.5t-20.5 69.5q0 47 25.5 83t81.5 36q52 0 79.5 -36.5t27.5 -81.5q0 -6 -35 -6q-32 0 -32 8q0 24 -11.5 39
t-28.5 15q-20 0 -31 -16t-11 -37q0 -24 15.5 -43.5t48.5 -46.5q42 -34 66 -70t24 -89zM237 618q3 -4 -0.5 -8.5t-14.5 -13t-17 -14.5q-52 -50 -68 -50q-15 0 -67 50q-6 6 -17 14.5t-14.5 13t-0.5 8.5q11 23 13 28q5 23 24 5q53 -50 62 -50q12 0 63 50q11 9 16.5 6t7.5 -11
q1 -5 13 -28z" />
    <glyph glyph-name="Ydieresis" unicode="&#x178;" horiz-adv-x="229" 
d="M219 685l-56 -331q-5 -29 -9 -59q0 -3 -2 -12t-3 -19t-1 -18v-238q0 -8 -35 -8q-32 0 -32 11q0 39 0.5 112.5t0.5 119.5q0 21 -5 49q-1 6 -5.5 27.5t-6.5 33.5l-55 332q-1 9 4.5 11.5t19.5 2.5q25 0 32.5 -2.5t8.5 -13.5l17 -131l16 -122q0 -9 6 -9q5 0 5 10
q8 52 19 139.5l14 112.5q2 16 37 16q21 0 26 -2.5t4 -11.5zM225 778q1 -13 0.5 -23t-10 -16.5t-30.5 -8.5q-18 -3 -31 13.5t-11 36.5t10.5 31t31.5 10q17 -1 28 -13t12 -30zM90 778q1 -13 0.5 -23t-10 -16.5t-30.5 -8.5q-18 -3 -31 13.5t-11 36.5t10.5 31t31.5 10
q17 -1 28 -13t12 -30z" />
    <glyph glyph-name="Zcaron" unicode="&#x17d;" horiz-adv-x="246" 
d="M227 672q0 -34 -3 -49l-128 -518q-1 -4 -1 -36q0 -9 12 -9h106q8 0 9.5 -6t1.5 -26t-1.5 -24t-9.5 -4h-180q-8 0 -8 26q0 67 2 74q33 123 126 500q7 26 -7 37q-5 2 -21 2h-82q-12 0 -12 31q0 20 1.5 25t10.5 5h165q13 0 16 -4t3 -24zM241 816q3 -4 -0.5 -8.5t-14.5 -13
t-17 -14.5q-52 -50 -68 -50q-15 0 -67 50q-6 6 -17 14.5t-14.5 13t-0.5 8.5q11 23 13 28q5 23 24 5q53 -50 62 -50q12 0 63 50q11 9 16.5 6t7.5 -11q1 -5 13 -28z" />
    <glyph glyph-name="zcaron" unicode="&#x17e;" horiz-adv-x="245" 
d="M230 28q0 -24 -4 -26q-3 -2 -11 -2h-182q-12 0 -15 6.5t-3 32.5q0 37 2 43l134 302q11 27 -2 37q-5 2 -26 2h-86q-11 0 -13.5 5t-2.5 22q0 19 2 24.5t11 5.5h175q15 0 18 -6t3 -34q0 -22 -5 -37l-137 -316q-3 -6 -3.5 -15.5t3.5 -12.5q5 -3 35 -3h92q9 0 12 -5.5t3 -22.5
zM233 618q3 -4 -0.5 -8.5t-14.5 -13t-17 -14.5q-52 -50 -68 -50q-15 0 -67 50q-6 6 -17 14.5t-14.5 13t-0.5 8.5q11 23 13 28q5 23 24 5q53 -50 62 -50q12 0 63 50q11 9 16.5 6t7.5 -11q1 -5 13 -28z" />
    <glyph glyph-name="florin" unicode="&#x192;" horiz-adv-x="185" 
d="M175 438q0 -19 -2 -24t-9 -5q-37 0 -45.5 -2.5t-8.5 -12.5v-472q0 -49 -34 -85.5t-82 -36.5q-5 0 -5 21v10q0 31 5 31q19 0 36.5 17.5t17.5 42.5v472q0 10 -5 13t-23 3q-2 0 -3.5 0.5t-2.5 1.5l-2 2t-1.5 3t-0.5 3.5v4.5v5v5.5v5.5q0 28 9 28q18 0 23.5 2.5t5.5 12.5v94
q0 49 34 85.5t82 36.5q5 0 5 -21v-10q0 -31 -5 -31q-19 0 -36.5 -17.5t-17.5 -42.5v-94q0 -11 9 -13t43 -2q13 0 13 -31z" />
    <glyph glyph-name="circumflex" unicode="&#x2c6;" horiz-adv-x="286" 
d="M243 572q-12 -23 -13 -28q-2 -8 -7.5 -11t-16.5 6q-51 50 -63 50q-9 0 -62 -50q-19 -18 -24 5q-1 5 -13 28q-3 4 0.5 8.5t14.5 13t17 14.5q52 50 67 50q16 0 68 -50q6 -6 17 -14.5t14.5 -13t0.5 -8.5z" />
    <glyph glyph-name="caron" unicode="&#x2c7;" horiz-adv-x="286" 
d="M242 618q3 -4 -0.5 -8.5t-14.5 -13t-17 -14.5q-52 -50 -68 -50q-15 0 -67 50q-6 6 -17 14.5t-14.5 13t-0.5 8.5q11 23 13 28q5 23 24 5q53 -50 62 -50q12 0 63 50q11 9 16.5 6t7.5 -11q1 -5 13 -28z" />
    <glyph glyph-name="breve" unicode="&#x2d8;" horiz-adv-x="286" 
d="M243 618q4 -7 -8 -27.5t-37.5 -39.5t-54.5 -19q-25 0 -51 19t-39 39.5t-9 27.5q12 20 18 26q2 2 12.5 -10.5t30 -27.5t41.5 -15q21 0 39.5 14.5t28 27t11.5 9.5q11 -13 18 -24z" />
    <glyph glyph-name="dotaccent" unicode="&#x2d9;" horiz-adv-x="286" 
d="M184 580q1 -13 0.5 -23t-10 -16.5t-30.5 -8.5q-18 -3 -31 13.5t-11 36.5t10.5 31t31.5 10q17 -1 28 -13t12 -30z" />
    <glyph glyph-name="ring" unicode="&#x2da;" horiz-adv-x="286" 
d="M201 596q-1 -15 -3 -23t-7.5 -18t-17 -15.5t-29.5 -7.5q-27 -3 -45.5 19.5t-14.5 52.5q2 26 14.5 40.5t45.5 17.5q25 3 42 -18.5t15 -47.5zM170 594q3 16 -4.5 26t-21.5 8q-9 -1 -14.5 -2.5t-8 -5.5l-3.5 -5.5t-2 -8.5t-1 -9q-2 -15 7.5 -24.5t21.5 -7.5q22 4 26 29z" />
    <glyph glyph-name="ogonek" unicode="&#x2db;" horiz-adv-x="286" 
d="M200 -80q0 -20 -3 -20q-31 0 -53 23t-22 54v35q0 5 20 5q22 0 22 -6v-34q0 -14 10.5 -26t22.5 -12q3 0 3 -19z" />
    <glyph glyph-name="tilde" unicode="&#x2dc;" horiz-adv-x="286" 
d="M253 586q0 -4 1 -5.5t-3.5 -6t-7.5 -7t-10.5 -8t-11.5 -9.5q-22 -18 -41 -18q-24 0 -36 12q-18 18 -30 18q-3 0 -4.5 -0.5t-3.5 -1.5t-5 -3t-5.5 -4.5t-8.5 -7.5l-12 -10q-8 -6 -15 -4t-9 9q-1 5 -13 28q-7 10 32 36q30 20 43 20q24 0 36 -11q21 -20 30 -20q6 0 37 26
q19 17 24 -5q2 -5 13 -28z" />
    <glyph glyph-name="hungarumlaut" unicode="&#x2dd;" horiz-adv-x="286" 
d="M280 649q11 -9 -5 -30l-95 -79q-19 -15 -24 1q-4 7 -18 25q-12 12 25 41l21 17.5l22.5 19l21.5 18.5q26 21 34 9q10 -17 18 -22zM144 649q11 -9 -5 -30l-95 -79q-19 -15 -24 1q-4 7 -18 25q-12 12 25 41l21 17.5l22.5 19l21.5 18.5q26 21 34 9q10 -17 18 -22z" />
    <glyph glyph-name="Delta" unicode="&#x394;" 
d="M363 359v-4q0 -12 -0.5 -16.5t-3 -7t-9.5 -2.5h-44q-9 0 -11 -2.5t-2 -10.5v-178q0 -28 -23 -28h-42q-7 0 -7 -9v-86q0 -11 -5 -13t-29 -2h-4q-12 0 -16.5 0.5t-7 3t-2.5 9.5v90q0 7 -6 7h-41q-11 0 -18 9.5t-7 19.5v177v6.5t-1.5 3.5t-4 2.5t-7.5 0.5h-42q-10 0 -12.5 5
t-2.5 25q0 23 2.5 28.5t13.5 5.5h42q9 0 10.5 3.5t1.5 12.5v151q0 9 11 19.5t19 10.5h36q6 0 6 7v88q0 10 5 12.5t25 2.5q23 0 28.5 -2.5t5.5 -13.5v-86q0 -8 7 -8h40q10 0 17.5 -8.5t7.5 -21.5v-154q0 -5 0.5 -7.5t3 -4t8.5 -1.5h43q11 0 13 -5t2 -29zM228 183v335
q0 15 -19 15h-40q-19 0 -19 -15v-335q0 -17 17 -17h44q17 0 17 17z" />
    <glyph glyph-name="Delta" unicode="&#x2206;" 
d="M363 359v-4q0 -12 -0.5 -16.5t-3 -7t-9.5 -2.5h-44q-9 0 -11 -2.5t-2 -10.5v-178q0 -28 -23 -28h-42q-7 0 -7 -9v-86q0 -11 -5 -13t-29 -2h-4q-12 0 -16.5 0.5t-7 3t-2.5 9.5v90q0 7 -6 7h-41q-11 0 -18 9.5t-7 19.5v177v6.5t-1.5 3.5t-4 2.5t-7.5 0.5h-42q-10 0 -12.5 5
t-2.5 25q0 23 2.5 28.5t13.5 5.5h42q9 0 10.5 3.5t1.5 12.5v151q0 9 11 19.5t19 10.5h36q6 0 6 7v88q0 10 5 12.5t25 2.5q23 0 28.5 -2.5t5.5 -13.5v-86q0 -8 7 -8h40q10 0 17.5 -8.5t7.5 -21.5v-154q0 -5 0.5 -7.5t3 -4t8.5 -1.5h43q11 0 13 -5t2 -29zM228 183v335
q0 15 -19 15h-40q-19 0 -19 -15v-335q0 -17 17 -17h44q17 0 17 17z" />
    <glyph glyph-name="Omega" unicode="&#x3a9;" 
d="M363 359v-4q0 -12 -0.5 -16.5t-3 -7t-9.5 -2.5h-44q-9 0 -11 -2.5t-2 -10.5v-178q0 -28 -23 -28h-42q-7 0 -7 -9v-86q0 -11 -5 -13t-29 -2h-4q-12 0 -16.5 0.5t-7 3t-2.5 9.5v90q0 7 -6 7h-41q-11 0 -18 9.5t-7 19.5v177v6.5t-1.5 3.5t-4 2.5t-7.5 0.5h-42q-10 0 -12.5 5
t-2.5 25q0 23 2.5 28.5t13.5 5.5h42q9 0 10.5 3.5t1.5 12.5v151q0 9 11 19.5t19 10.5h36q6 0 6 7v88q0 10 5 12.5t25 2.5q23 0 28.5 -2.5t5.5 -13.5v-86q0 -8 7 -8h40q10 0 17.5 -8.5t7.5 -21.5v-154q0 -5 0.5 -7.5t3 -4t8.5 -1.5h43q11 0 13 -5t2 -29zM228 183v335
q0 15 -19 15h-40q-19 0 -19 -15v-335q0 -17 17 -17h44q17 0 17 17z" />
    <glyph glyph-name="Omega" unicode="&#x2126;" 
d="M363 359v-4q0 -12 -0.5 -16.5t-3 -7t-9.5 -2.5h-44q-9 0 -11 -2.5t-2 -10.5v-178q0 -28 -23 -28h-42q-7 0 -7 -9v-86q0 -11 -5 -13t-29 -2h-4q-12 0 -16.5 0.5t-7 3t-2.5 9.5v90q0 7 -6 7h-41q-11 0 -18 9.5t-7 19.5v177v6.5t-1.5 3.5t-4 2.5t-7.5 0.5h-42q-10 0 -12.5 5
t-2.5 25q0 23 2.5 28.5t13.5 5.5h42q9 0 10.5 3.5t1.5 12.5v151q0 9 11 19.5t19 10.5h36q6 0 6 7v88q0 10 5 12.5t25 2.5q23 0 28.5 -2.5t5.5 -13.5v-86q0 -8 7 -8h40q10 0 17.5 -8.5t7.5 -21.5v-154q0 -5 0.5 -7.5t3 -4t8.5 -1.5h43q11 0 13 -5t2 -29zM228 183v335
q0 15 -19 15h-40q-19 0 -19 -15v-335q0 -17 17 -17h44q17 0 17 17z" />
    <glyph glyph-name="pi" unicode="&#x3c0;" horiz-adv-x="554" 
d="M521 457q0 -100 -71.5 -171t-172.5 -71t-172 71t-71 171q0 101 71 172.5t172 71.5t172.5 -71.5t71.5 -172.5zM469 459q0 79 -55.5 134.5t-134.5 55.5t-135 -55.5t-56 -134.5t56 -134t135 -55t134.5 55t55.5 134zM367 508q0 -28 -21.5 -47.5t-62.5 -19.5h-18q-13 0 -16 -2
t-3 -9v-97q0 -6 -25 -6q-22 0 -22 6v256q0 7 4 10q6 2 17 2h63q41 0 62.5 -20t21.5 -49v-24zM315 512v17q0 17 -10 22.5t-38 5.5h-21v-13v-49q0 -6 3 -7q4 -1 20 -1q27 0 36.5 5t9.5 20z" />
    <glyph glyph-name="endash" unicode="&#x2013;" horiz-adv-x="500" 
d="M481 236q2 -6 -6 -10.5t-23 -4.5h-391q-5 0 -14 1.5t-18.5 6t-8.5 11.5q2 8 0 28q-1 8 16.5 11.5t38.5 3.5h347q22 1 39 -3.5t17 -12.5q0 -20 3 -31z" />
    <glyph glyph-name="emdash" unicode="&#x2014;" horiz-adv-x="786" 
d="M766 236q2 -6 -6 -10.5t-23 -4.5h-676q-5 0 -14 1.5t-18.5 6t-8.5 11.5q2 8 0 28q-1 8 16.5 11.5t38.5 3.5h107.5h210.5h205h109q22 1 39 -3.5t17 -12.5q0 -20 3 -31z" />
    <glyph glyph-name="quoteleft" unicode="&#x2018;" horiz-adv-x="112" 
d="M92 583q0 -37 -37 -35q-15 1 -24.5 11.5t-10.5 25.5q0 21 8 44q27 75 46 72q4 -1 6 -4.5t1 -11.5t-1.5 -13.5t-3 -17.5t-3.5 -16q-3 -16 9 -26q10 -8 10 -29z" />
    <glyph glyph-name="quoteright" unicode="&#x2019;" horiz-adv-x="112" 
d="M92 664q0 -21 -8 -44q-27 -75 -46 -72q-4 1 -6 4.5t-1 11.5t1.5 13.5t3 17.5t3.5 16q3 16 -9 26q-10 8 -10 29q0 37 37 35q15 -1 24.5 -11.5t10.5 -25.5z" />
    <glyph glyph-name="quotesinglbase" unicode="&#x201a;" horiz-adv-x="112" 
d="M96 43q0 -21 -8 -44q-27 -75 -46 -72q-4 1 -6 4.5t-1 11.5t1.5 13.5t3 17.5t3.5 16q3 16 -9 26q-10 8 -10 29q0 37 37 35q15 -1 24.5 -11.5t10.5 -25.5z" />
    <glyph glyph-name="quotedblleft" unicode="&#x201c;" horiz-adv-x="197" 
d="M177 583q0 -37 -37 -35q-15 1 -24.5 11.5t-10.5 25.5q0 21 8 44q27 75 46 72q4 -1 6 -4.5t1 -11.5t-1.5 -13.5t-3 -17.5t-3.5 -16q-3 -16 9 -26q10 -8 10 -29zM92 583q0 -37 -37 -35q-15 1 -24.5 11.5t-10.5 25.5q0 21 8 44q27 75 46 72q4 -1 6 -4.5t1 -11.5t-1.5 -13.5
t-3 -17.5t-3.5 -16q-3 -16 9 -26q10 -8 10 -29z" />
    <glyph glyph-name="quotedblright" unicode="&#x201d;" horiz-adv-x="197" 
d="M177 663q0 -21 -8 -44q-27 -75 -46 -72q-4 1 -6 4.5t-1 11.5t1.5 13.5t3 17.5t3.5 16q3 16 -9 26q-10 8 -10 29q0 37 37 35q15 -1 24.5 -11.5t10.5 -25.5zM92 663q0 -21 -8 -44q-27 -75 -46 -72q-4 1 -6 4.5t-1 11.5t1.5 13.5t3 17.5t3.5 16q3 16 -9 26q-10 8 -10 29
q0 37 37 35q15 -1 24.5 -11.5t10.5 -25.5z" />
    <glyph glyph-name="quotedblbase" unicode="&#x201e;" horiz-adv-x="197" 
d="M181 43q0 -21 -8 -44q-27 -75 -46 -72q-4 1 -6 4.5t-1 11.5t1.5 13.5t3 17.5t3.5 16q3 16 -9 26q-10 8 -10 29q0 37 37 35q15 -1 24.5 -11.5t10.5 -25.5zM96 43q0 -21 -8 -44q-27 -75 -46 -72q-4 1 -6 4.5t-1 11.5t1.5 13.5t3 17.5t3.5 16q3 16 -9 26q-10 8 -10 29
q0 37 37 35q15 -1 24.5 -11.5t10.5 -25.5z" />
    <glyph glyph-name="dagger" unicode="&#x2020;" horiz-adv-x="211" 
d="M183 605q0 -27 -4 -27q-7 0 -17 0.5t-14 0.5t-8.5 -1t-6 -4t-1.5 -8v-269q0 -9 -28 -9q-26 0 -26 7v268q0 4 -0.5 7t-2.5 4.5t-3.5 2.5t-5.5 1h-6.5h-8.5h-10q-9 0 -11 5t-2 23q0 15 3 20t11 5q32 0 34 4q2 3 2 9v48q0 7 26 7q28 0 28 -9v-49q0 -10 11 -10q4 -1 15 0h20
q5 0 5 -26z" />
    <glyph glyph-name="daggerdbl" unicode="&#x2021;" horiz-adv-x="211" 
d="M183 295q0 -27 -9 -27q-3 0 -11 0.5t-12 0t-9.5 -1t-7.5 -3t-2 -6.5v-49q0 -8 -28 -8q-26 0 -26 7v47q0 10 -3.5 11.5t-19.5 1.5h-13q-8 0 -11 5t-3 20q0 13 0.5 18t3 7.5t9.5 2.5q20 0 28.5 3t8.5 13v228q0 4 -1 6.5t-3 4t-4 2.5t-6 1.5t-6.5 0.5h-8h-8.5q-9 0 -11 5
t-2 23q0 15 3 20t11 5q32 0 34 4q2 3 2 9v48q0 7 26 7q28 0 28 -9v-49q0 -4 2.5 -6.5t8 -3t9.5 -1t11 0t9 0.5q11 0 11 -26q0 -27 -9 -27q-4 0 -12 0.5t-12 0.5t-9 -1t-7 -4t-2 -8v-234q0 -5 3 -8t8.5 -4t10 -1.5t12 0t9.5 0.5q6 0 7 -4.5t1 -21.5z" />
    <glyph glyph-name="bullet" unicode="&#x2022;" horiz-adv-x="287" 
d="M259 262q0 -28 -2.5 -45t-12.5 -38t-34 -33.5t-63 -17.5q-51 -6 -87.5 39t-30.5 101q3 27 8 45.5t17 36.5t35.5 26.5t57.5 6.5q48 -2 80 -37t32 -84z" />
    <glyph glyph-name="ellipsis" unicode="&#x2026;" horiz-adv-x="402" 
d="M382 43q1 -13 0.5 -23t-10 -16.5t-30.5 -8.5q-18 -3 -31 13.5t-11 36.5t10.5 31t31.5 10q17 -1 28 -13t12 -30zM242 43q1 -13 0.5 -23t-10 -16.5t-30.5 -8.5q-18 -3 -31 13.5t-11 36.5t10.5 31t31.5 10q17 -1 28 -13t12 -30zM102 43q1 -13 0.5 -23t-10 -16.5t-30.5 -8.5
q-18 -3 -31 13.5t-11 36.5t10.5 31t31.5 10q17 -1 28 -13t12 -30z" />
    <glyph glyph-name="perthousand" unicode="&#x2030;" horiz-adv-x="438" 
d="M270 680l-59.5 -209.5l-68.5 -240.5l-65 -213q-5 -17 -31 -17q-12 0 -14.5 2t0.5 16l190 663q4 18 21 18q15 0 22.5 -4.5t4.5 -14.5zM146 522q0 -25 -17 -44t-41 -19t-41 19t-17 44v117q0 24 17 42.5t41 18.5t41 -18.5t17 -42.5v-117zM272 63q0 -25 -17 -44t-41 -19
t-41 19t-17 44v117q0 24 17 42.5t41 18.5t41 -18.5t17 -42.5v-117zM413 63q0 -25 -17 -44t-41 -19t-41 19t-17 44v117q0 24 17 42.5t41 18.5t41 -18.5t17 -42.5v-117zM234 64v116q0 9 -6 16.5t-14 7.5q-9 0 -15 -7.5t-6 -16.5v-116q0 -9 6 -16.5t15 -7.5t14.5 7.5t5.5 16.5z
M108 523v116q0 9 -6 16.5t-14 7.5q-9 0 -15 -7.5t-6 -16.5v-116q0 -9 6 -16.5t15 -7.5t14.5 7.5t5.5 16.5zM375 64v116q0 9 -6 16.5t-14 7.5q-9 0 -15 -7.5t-6 -16.5v-116q0 -9 6 -16.5t15 -7.5t14.5 7.5t5.5 16.5z" />
    <glyph glyph-name="guilsinglleft" unicode="&#x2039;" horiz-adv-x="179" 
d="M144 135q10 -21 -5 -24q-6 -2 -12.5 -6.5t-10.5 -6.5q-15 -10 -36 32q-50 103 -50 117q0 9 50 118q8 18 18.5 27.5t17.5 4.5q4 -2 10.5 -6.5t12.5 -6.5q15 -3 5 -24q-50 -104 -50 -113q0 -14 50 -112z" />
    <glyph glyph-name="guilsinglright" unicode="&#x203a;" horiz-adv-x="179" 
d="M148 247q0 -14 -50 -117q-10 -20 -17.5 -28t-13.5 -4q-23 12 -28 13q-15 3 -5 24q50 98 50 112q0 9 -50 113q-10 21 5 24q5 2 28 13q6 4 14 -4.5t17 -27.5q50 -109 50 -118z" />
    <glyph glyph-name="fraction" unicode="&#x2044;" horiz-adv-x="293" 
d="M311 681l-267 -665q-6 -16 -36 -16q-16 0 -23.5 3t-3.5 14l269 669q4 10 9.5 13t20.5 3q23 0 29.5 -3.5t1.5 -17.5z" />
    <glyph glyph-name="fraction" unicode="&#x2215;" horiz-adv-x="293" 
d="M311 681l-267 -665q-6 -16 -36 -16q-16 0 -23.5 3t-3.5 14l269 669q4 10 9.5 13t20.5 3q23 0 29.5 -3.5t1.5 -17.5z" />
    <glyph glyph-name="Euro" unicode="&#x20ac;" horiz-adv-x="287" 
d="M151 0q-54 0 -85 36t-31 80v466q0 45 31 81.5t85 36.5q56 0 86 -39t30 -79v-45q0 -11 -33 -11h-4q-30 0 -30 11v47q0 18 -14 36t-35 18q-22 0 -36.5 -17t-14.5 -36v-111q0 -21 6 -26q6 -4 22 -4q9 0 27.5 0.5t22.5 0.5q14 0 14 -30q0 -16 -2.5 -22t-11.5 -6h-49
q-19 0 -25 -3q-7 -5 -7 -29q0 -27 9 -29q7 -2 19 -2h52q14 0 14 -31q0 -15 -2.5 -19.5t-11.5 -4.5h-45q-19 0 -25 -3q-7 -5 -7 -29v-115q0 -23 12.5 -39t38.5 -16q24 0 36.5 15t12.5 37v59q0 8 31 8h10q26 0 26 -8v-61q0 -51 -29 -84t-87 -33z" />
    <glyph glyph-name="trademark" unicode="&#x2122;" horiz-adv-x="330" 
d="M300 462q0 -6 -19 -6t-19 5v123q0 19 -8 -7q-3 -9 -9 -32q-4 -15 -6 -20q-2 -7 -11 -7t-11 8q-18 61 -21 61q-2 0 -2 -7v-118q0 -6 -20 -6q-19 0 -19 5v229q0 11 20 11q10 0 13 -2.5t6 -11.5q30 -101 34 -101t34 104q3 11 19 11q11 0 15 -3t4 -11v-225zM131 682
q0 -19 -3 -19h-9t-8 0.5t-6 0t-5 -0.5t-3.5 -1.5t-2 -3t-0.5 -4.5v-192q0 -6 -20 -6q-18 0 -18 5v191q0 3 -0.5 5t-2 3.5t-2.5 2t-4 0.5h-5h-6h-7q-6 0 -7.5 3.5t-1.5 16.5q0 18 10 18h97q4 0 4 -19z" />
    <glyph glyph-name="partialdiff" unicode="&#x2202;" 
d="M363 359v-4q0 -12 -0.5 -16.5t-3 -7t-9.5 -2.5h-44q-9 0 -11 -2.5t-2 -10.5v-178q0 -28 -23 -28h-42q-7 0 -7 -9v-86q0 -11 -5 -13t-29 -2h-4q-12 0 -16.5 0.5t-7 3t-2.5 9.5v90q0 7 -6 7h-41q-11 0 -18 9.5t-7 19.5v177v6.5t-1.5 3.5t-4 2.5t-7.5 0.5h-42q-10 0 -12.5 5
t-2.5 25q0 23 2.5 28.5t13.5 5.5h42q9 0 10.5 3.5t1.5 12.5v151q0 9 11 19.5t19 10.5h36q6 0 6 7v88q0 10 5 12.5t25 2.5q23 0 28.5 -2.5t5.5 -13.5v-86q0 -8 7 -8h40q10 0 17.5 -8.5t7.5 -21.5v-154q0 -5 0.5 -7.5t3 -4t8.5 -1.5h43q11 0 13 -5t2 -29zM228 183v335
q0 15 -19 15h-40q-19 0 -19 -15v-335q0 -17 17 -17h44q17 0 17 17z" />
    <glyph glyph-name="product" unicode="&#x220f;" 
d="M363 359v-4q0 -12 -0.5 -16.5t-3 -7t-9.5 -2.5h-44q-9 0 -11 -2.5t-2 -10.5v-178q0 -28 -23 -28h-42q-7 0 -7 -9v-86q0 -11 -5 -13t-29 -2h-4q-12 0 -16.5 0.5t-7 3t-2.5 9.5v90q0 7 -6 7h-41q-11 0 -18 9.5t-7 19.5v177v6.5t-1.5 3.5t-4 2.5t-7.5 0.5h-42q-10 0 -12.5 5
t-2.5 25q0 23 2.5 28.5t13.5 5.5h42q9 0 10.5 3.5t1.5 12.5v151q0 9 11 19.5t19 10.5h36q6 0 6 7v88q0 10 5 12.5t25 2.5q23 0 28.5 -2.5t5.5 -13.5v-86q0 -8 7 -8h40q10 0 17.5 -8.5t7.5 -21.5v-154q0 -5 0.5 -7.5t3 -4t8.5 -1.5h43q11 0 13 -5t2 -29zM228 183v335
q0 15 -19 15h-40q-19 0 -19 -15v-335q0 -17 17 -17h44q17 0 17 17z" />
    <glyph glyph-name="summation" unicode="&#x2211;" 
d="M363 359v-4q0 -12 -0.5 -16.5t-3 -7t-9.5 -2.5h-44q-9 0 -11 -2.5t-2 -10.5v-178q0 -28 -23 -28h-42q-7 0 -7 -9v-86q0 -11 -5 -13t-29 -2h-4q-12 0 -16.5 0.5t-7 3t-2.5 9.5v90q0 7 -6 7h-41q-11 0 -18 9.5t-7 19.5v177v6.5t-1.5 3.5t-4 2.5t-7.5 0.5h-42q-10 0 -12.5 5
t-2.5 25q0 23 2.5 28.5t13.5 5.5h42q9 0 10.5 3.5t1.5 12.5v151q0 9 11 19.5t19 10.5h36q6 0 6 7v88q0 10 5 12.5t25 2.5q23 0 28.5 -2.5t5.5 -13.5v-86q0 -8 7 -8h40q10 0 17.5 -8.5t7.5 -21.5v-154q0 -5 0.5 -7.5t3 -4t8.5 -1.5h43q11 0 13 -5t2 -29zM228 183v335
q0 15 -19 15h-40q-19 0 -19 -15v-335q0 -17 17 -17h44q17 0 17 17z" />
    <glyph glyph-name="minus" unicode="&#x2212;" 
d="M363 359v-4q0 -12 -0.5 -16.5t-3 -7t-9.5 -2.5h-44q-9 0 -11 -2.5t-2 -10.5v-178q0 -28 -23 -28h-42q-7 0 -7 -9v-86q0 -11 -5 -13t-29 -2h-4q-12 0 -16.5 0.5t-7 3t-2.5 9.5v90q0 7 -6 7h-41q-11 0 -18 9.5t-7 19.5v177v6.5t-1.5 3.5t-4 2.5t-7.5 0.5h-42q-10 0 -12.5 5
t-2.5 25q0 23 2.5 28.5t13.5 5.5h42q9 0 10.5 3.5t1.5 12.5v151q0 9 11 19.5t19 10.5h36q6 0 6 7v88q0 10 5 12.5t25 2.5q23 0 28.5 -2.5t5.5 -13.5v-86q0 -8 7 -8h40q10 0 17.5 -8.5t7.5 -21.5v-154q0 -5 0.5 -7.5t3 -4t8.5 -1.5h43q11 0 13 -5t2 -29zM228 183v335
q0 15 -19 15h-40q-19 0 -19 -15v-335q0 -17 17 -17h44q17 0 17 17z" />
    <glyph glyph-name="radical" unicode="&#x221a;" horiz-adv-x="385" 
d="M351 680l-159 -650q-7 -30 -26 -30q-20 0 -27 5t-13 19l-113 252q-14 32 32 32q28 0 35 -15l73 -180l130 576q3 10 37 10q19 0 26 -6t5 -13z" />
    <glyph glyph-name="infinity" unicode="&#x221e;" horiz-adv-x="467" 
d="M436 575q0 -9 -31 -9q-35 0 -35 6q0 31 -15 46t-38 15q-22 0 -37.5 -15t-15.5 -46v-88q0 -11 8.5 -13t42.5 -2q13 0 13 -31q0 -19 -2 -24t-9 -5q-36 0 -44.5 -2.5t-8.5 -12.5v-376q0 -13 -4 -15.5t-24 -2.5t-25 2t-5 14v377q0 10 -5 13t-23 3h-23q-35 0 -42 -2t-7 -13
v-376q0 -13 -5.5 -15.5t-27.5 -2.5q-21 0 -25.5 2t-4.5 14v378q0 10 -5 13t-23 3q-2 0 -3.5 0.5t-2.5 1.5l-2 2t-1.5 3t-0.5 3.5v4.5v5v5.5v5.5q0 28 9 28q18 0 23.5 2.5t5.5 12.5v94q0 51 32 86.5t86 35.5q5 0 5 -21v-10q0 -31 -5 -31q-19 0 -37 -17.5t-18 -42.5v-94
q0 -11 7 -13t40 -2h24q17 0 22 2.5t5 12.5v92q0 57 31 91t82 34q52 0 85.5 -30.5t33.5 -95.5zM432 18q0 -13 -4.5 -15.5t-28.5 -2.5q-21 0 -25.5 2t-4.5 14v449q0 11 6 13.5t24 2.5q22 0 27.5 -2t5.5 -15v-446z" />
    <glyph glyph-name="integral" unicode="&#x222b;" 
d="M363 359v-4q0 -12 -0.5 -16.5t-3 -7t-9.5 -2.5h-44q-9 0 -11 -2.5t-2 -10.5v-178q0 -28 -23 -28h-42q-7 0 -7 -9v-86q0 -11 -5 -13t-29 -2h-4q-12 0 -16.5 0.5t-7 3t-2.5 9.5v90q0 7 -6 7h-41q-11 0 -18 9.5t-7 19.5v177v6.5t-1.5 3.5t-4 2.5t-7.5 0.5h-42q-10 0 -12.5 5
t-2.5 25q0 23 2.5 28.5t13.5 5.5h42q9 0 10.5 3.5t1.5 12.5v151q0 9 11 19.5t19 10.5h36q6 0 6 7v88q0 10 5 12.5t25 2.5q23 0 28.5 -2.5t5.5 -13.5v-86q0 -8 7 -8h40q10 0 17.5 -8.5t7.5 -21.5v-154q0 -5 0.5 -7.5t3 -4t8.5 -1.5h43q11 0 13 -5t2 -29zM228 183v335
q0 15 -19 15h-40q-19 0 -19 -15v-335q0 -17 17 -17h44q17 0 17 17z" />
    <glyph glyph-name="approxequal" unicode="&#x2248;" 
d="M363 359v-4q0 -12 -0.5 -16.5t-3 -7t-9.5 -2.5h-44q-9 0 -11 -2.5t-2 -10.5v-178q0 -28 -23 -28h-42q-7 0 -7 -9v-86q0 -11 -5 -13t-29 -2h-4q-12 0 -16.5 0.5t-7 3t-2.5 9.5v90q0 7 -6 7h-41q-11 0 -18 9.5t-7 19.5v177v6.5t-1.5 3.5t-4 2.5t-7.5 0.5h-42q-10 0 -12.5 5
t-2.5 25q0 23 2.5 28.5t13.5 5.5h42q9 0 10.5 3.5t1.5 12.5v151q0 9 11 19.5t19 10.5h36q6 0 6 7v88q0 10 5 12.5t25 2.5q23 0 28.5 -2.5t5.5 -13.5v-86q0 -8 7 -8h40q10 0 17.5 -8.5t7.5 -21.5v-154q0 -5 0.5 -7.5t3 -4t8.5 -1.5h43q11 0 13 -5t2 -29zM228 183v335
q0 15 -19 15h-40q-19 0 -19 -15v-335q0 -17 17 -17h44q17 0 17 17z" />
    <glyph glyph-name="notequal" unicode="&#x2260;" horiz-adv-x="333" 
d="M329 438q0 -19 -2 -24t-9 -5q-37 0 -45.5 -2.5t-8.5 -12.5v-376q0 -13 -4 -15.5t-24 -2.5t-25 2t-5 14v378q0 10 -5 12.5t-23 2.5h-23q-37 0 -45.5 -2.5t-8.5 -12.5v-376q0 -13 -3.5 -15.5t-24.5 -2.5t-25.5 2t-4.5 14v378q0 10 -5 13t-23 3q-2 0 -3.5 0.5t-2.5 1.5l-2 2
t-1.5 3t-0.5 3.5v4.5v5v5.5v5.5q0 28 9 28q18 0 23.5 2.5t5.5 12.5v94q0 50 32 86t80 36q5 0 5 -21v-10q0 -31 -5 -31q-19 0 -36.5 -17.5t-17.5 -42.5v-94q0 -11 8.5 -13t43.5 -2h24q18 0 23.5 2.5t5.5 12.5v94q0 50 32 86t80 36q5 0 5 -21v-10q0 -31 -5 -31
q-19 0 -36.5 -17.5t-17.5 -42.5v-94q0 -11 9 -13t43 -2q13 0 13 -31z" />
    <glyph glyph-name="lessequal" unicode="&#x2264;" 
d="M363 359v-4q0 -12 -0.5 -16.5t-3 -7t-9.5 -2.5h-44q-9 0 -11 -2.5t-2 -10.5v-178q0 -28 -23 -28h-42q-7 0 -7 -9v-86q0 -11 -5 -13t-29 -2h-4q-12 0 -16.5 0.5t-7 3t-2.5 9.5v90q0 7 -6 7h-41q-11 0 -18 9.5t-7 19.5v177v6.5t-1.5 3.5t-4 2.5t-7.5 0.5h-42q-10 0 -12.5 5
t-2.5 25q0 23 2.5 28.5t13.5 5.5h42q9 0 10.5 3.5t1.5 12.5v151q0 9 11 19.5t19 10.5h36q6 0 6 7v88q0 10 5 12.5t25 2.5q23 0 28.5 -2.5t5.5 -13.5v-86q0 -8 7 -8h40q10 0 17.5 -8.5t7.5 -21.5v-154q0 -5 0.5 -7.5t3 -4t8.5 -1.5h43q11 0 13 -5t2 -29zM228 183v335
q0 15 -19 15h-40q-19 0 -19 -15v-335q0 -17 17 -17h44q17 0 17 17z" />
    <glyph glyph-name="greaterequal" unicode="&#x2265;" 
d="M363 359v-4q0 -12 -0.5 -16.5t-3 -7t-9.5 -2.5h-44q-9 0 -11 -2.5t-2 -10.5v-178q0 -28 -23 -28h-42q-7 0 -7 -9v-86q0 -11 -5 -13t-29 -2h-4q-12 0 -16.5 0.5t-7 3t-2.5 9.5v90q0 7 -6 7h-41q-11 0 -18 9.5t-7 19.5v177v6.5t-1.5 3.5t-4 2.5t-7.5 0.5h-42q-10 0 -12.5 5
t-2.5 25q0 23 2.5 28.5t13.5 5.5h42q9 0 10.5 3.5t1.5 12.5v151q0 9 11 19.5t19 10.5h36q6 0 6 7v88q0 10 5 12.5t25 2.5q23 0 28.5 -2.5t5.5 -13.5v-86q0 -8 7 -8h40q10 0 17.5 -8.5t7.5 -21.5v-154q0 -5 0.5 -7.5t3 -4t8.5 -1.5h43q11 0 13 -5t2 -29zM228 183v335
q0 15 -19 15h-40q-19 0 -19 -15v-335q0 -17 17 -17h44q17 0 17 17z" />
    <glyph glyph-name="lozenge" unicode="&#x25ca;" 
d="M363 359v-4q0 -12 -0.5 -16.5t-3 -7t-9.5 -2.5h-44q-9 0 -11 -2.5t-2 -10.5v-178q0 -28 -23 -28h-42q-7 0 -7 -9v-86q0 -11 -5 -13t-29 -2h-4q-12 0 -16.5 0.5t-7 3t-2.5 9.5v90q0 7 -6 7h-41q-11 0 -18 9.5t-7 19.5v177v6.5t-1.5 3.5t-4 2.5t-7.5 0.5h-42q-10 0 -12.5 5
t-2.5 25q0 23 2.5 28.5t13.5 5.5h42q9 0 10.5 3.5t1.5 12.5v151q0 9 11 19.5t19 10.5h36q6 0 6 7v88q0 10 5 12.5t25 2.5q23 0 28.5 -2.5t5.5 -13.5v-86q0 -8 7 -8h40q10 0 17.5 -8.5t7.5 -21.5v-154q0 -5 0.5 -7.5t3 -4t8.5 -1.5h43q11 0 13 -5t2 -29zM228 183v335
q0 15 -19 15h-40q-19 0 -19 -15v-335q0 -17 17 -17h44q17 0 17 17z" />
    <glyph glyph-name="apple" unicode="&#xf8ff;" 
d="M363 359v-4q0 -12 -0.5 -16.5t-3 -7t-9.5 -2.5h-44q-9 0 -11 -2.5t-2 -10.5v-178q0 -28 -23 -28h-42q-7 0 -7 -9v-86q0 -11 -5 -13t-29 -2h-4q-12 0 -16.5 0.5t-7 3t-2.5 9.5v90q0 7 -6 7h-41q-11 0 -18 9.5t-7 19.5v177v6.5t-1.5 3.5t-4 2.5t-7.5 0.5h-42q-10 0 -12.5 5
t-2.5 25q0 23 2.5 28.5t13.5 5.5h42q9 0 10.5 3.5t1.5 12.5v151q0 9 11 19.5t19 10.5h36q6 0 6 7v88q0 10 5 12.5t25 2.5q23 0 28.5 -2.5t5.5 -13.5v-86q0 -8 7 -8h40q10 0 17.5 -8.5t7.5 -21.5v-154q0 -5 0.5 -7.5t3 -4t8.5 -1.5h43q11 0 13 -5t2 -29zM228 183v335
q0 15 -19 15h-40q-19 0 -19 -15v-335q0 -17 17 -17h44q17 0 17 17z" />
    <glyph glyph-name="NUL" horiz-adv-x="0" 
 />
    <glyph glyph-name="nbspace" horiz-adv-x="63" 
 />
    </font>
</defs>
</svg>
